<svg width="24" height="25" viewBox="0 0 24 25" fill="none" xmlns="http://www.w3.org/2000/svg">
<g clip-path="url(#clip0_516_14301)">
<path d="M1.71484 6.50003H22.2863M7.71484 6.50003V5.64289C7.71484 4.50625 8.16637 3.41616 8.9701 2.61243C9.77383 1.80871 10.8639 1.35718 12.0006 1.35718C13.1372 1.35718 14.2273 1.80871 15.031 2.61243C15.8347 3.41616 16.2863 4.50625 16.2863 5.64289V6.50003M9.42913 11.6446V18.5052M14.572 11.6446V18.5052M4.28627 6.50003H19.7148V21.9286C19.7148 22.3833 19.5342 22.8193 19.2127 23.1408C18.8913 23.4623 18.4552 23.6429 18.0006 23.6429H6.00056C5.5459 23.6429 5.10987 23.4623 4.78837 23.1408C4.46688 22.8193 4.28627 22.3833 4.28627 21.9286V6.50003Z" stroke="#787878" stroke-width="0.8" stroke-linecap="round" stroke-linejoin="round"/>
</g>
<defs>
<clipPath id="clip0_516_14301">
<rect width="24" height="24" fill="white" transform="translate(0 0.5)"/>
</clipPath>
</defs>
</svg>
