<svg width="18" height="18" viewBox="0 0 18 18" fill="none" xmlns="http://www.w3.org/2000/svg">
<path d="M17.3407 8.45445H16.3485C15.9499 4.76766 12.7774 1.83398 8.99646 1.83398C6.79435 1.83398 4.79539 2.83363 3.4335 4.40541C3.15803 4.7172 3.20142 5.10066 3.48396 5.30348C3.77389 5.50631 4.11396 5.44138 4.35342 5.17331C4.93136 4.51008 5.64496 3.97868 6.44598 3.61502C7.247 3.25136 8.11676 3.06392 8.99646 3.06538C10.4975 3.06041 11.9482 3.60628 13.0736 4.59954C14.1991 5.5928 14.921 6.96442 15.1026 8.45445H14.0233C13.509 8.45445 13.3714 8.80223 13.6536 9.20048L15.2691 11.5112C15.5009 11.8446 15.8487 11.8519 16.0878 11.5112L17.7101 9.20788C18 8.80223 17.8624 8.45445 17.3407 8.45445ZM0.659245 9.99731H1.6515C2.05007 13.6841 5.22257 16.6107 8.99614 16.6107C11.2127 16.6107 13.212 15.6037 14.5739 14.0393C14.8346 13.7275 14.7982 13.3366 14.5231 13.1338C14.2335 12.931 13.8931 13.0033 13.654 13.2714C12.5386 14.568 10.8723 15.3793 8.99646 15.3793C7.49724 15.3844 6.04824 14.8393 4.92411 13.8474C3.79997 12.8554 3.07882 11.4855 2.89735 9.99731H3.97671C4.491 9.99731 4.62857 9.64245 4.34635 9.25159L2.72346 6.94052C2.49203 6.60752 2.15132 6.60013 1.91217 6.94052L0.289602 9.2442C-4.88758e-06 9.64277 0.137567 9.99731 0.659245 9.99731Z" fill="black"/>
</svg>
