<svg width="24" height="24" viewBox="0 0 24 24" fill="none" xmlns="http://www.w3.org/2000/svg">
<g clip-path="url(#clip0_393_6432)">
<path d="M12.4991 11.3889C11.1215 11.3889 9.80025 10.8416 8.8261 9.86747C7.85196 8.89332 7.30469 7.5721 7.30469 6.19444C7.30469 4.81679 7.85196 3.49556 8.8261 2.52142C9.80025 1.54727 11.1215 1 12.4991 1C13.8768 1 15.198 1.54727 16.1722 2.52142C17.1463 3.49556 17.6936 4.81679 17.6936 6.19444C17.6936 7.5721 17.1463 8.89332 16.1722 9.86747C15.198 10.8416 13.8768 11.3889 12.4991 11.3889Z" stroke="#E2E2E2" stroke-width="2" stroke-linecap="round"/>
<path d="M2.10938 24.3752V23.0766C2.10938 21.0101 2.93028 19.0283 4.3915 17.567C5.85272 16.1058 7.83456 15.2849 9.90104 15.2849H15.0955C17.162 15.2849 19.1438 16.1058 20.605 17.567C22.0662 19.0283 22.8872 21.0101 22.8872 23.0766V24.3752" stroke="#E2E2E2" stroke-width="2" stroke-linecap="round"/>
</g>
<defs>
<clipPath id="clip0_393_6432">
<rect width="24" height="24" fill="white"/>
</clipPath>
</defs>
</svg>
