<svg width="32" height="28" viewBox="0 0 32 28" fill="none" xmlns="http://www.w3.org/2000/svg">
<g clip-path="url(#clip0_1088_2691)">
<path d="M30.2222 3.5H28.4444V1.75C28.4444 0.7875 27.6444 0 26.6667 0H1.77778C0.8 0 0 0.7875 0 1.75V22.75C0 23.7125 0.8 24.5 1.77778 24.5H3.55556V26.25C3.55556 27.2125 4.35556 28 5.33333 28H30.2222C31.2 28 32 27.2125 32 26.25V5.25C32 4.2875 31.2 3.5 30.2222 3.5ZM3.55556 5.25V22.75H1.78133L1.77778 22.7465V1.7535L1.78133 1.75H26.6631L26.6667 1.7535V3.5H5.33333C4.35556 3.5 3.55556 4.2875 3.55556 5.25ZM30.2222 26.2465L30.2187 26.25H5.33689L5.33333 26.2465V5.2535L5.33689 5.25H30.2187L30.2222 5.2535V26.2465Z" fill="#393939"/>
<path d="M26.6649 9.62504C26.6647 10.3215 26.3834 10.9893 25.883 11.4816C25.3826 11.9738 24.704 12.2503 23.9965 12.25C23.289 12.2498 22.6106 11.9729 22.1105 11.4803C21.6104 10.9877 21.3296 10.3197 21.3298 9.62329C21.3301 8.92687 21.6113 8.25906 22.1118 7.76677C22.6122 7.27449 23.2908 6.99806 23.9983 6.99829C24.7057 6.99852 25.3842 7.2754 25.8843 7.76801C26.3843 8.26062 26.6652 8.92862 26.6649 9.62504ZM28.4427 24.5H7.10938V21L13.3316 10.5L20.4427 19.25H22.2205L28.4427 14V24.5Z" fill="#393939"/>
</g>
<defs>
<clipPath id="clip0_1088_2691">
<rect width="32" height="28" fill="white"/>
</clipPath>
</defs>
</svg>
