<svg version="1.0" xmlns="http://www.w3.org/2000/svg" width="32.000000pt" height="32.000000pt" viewBox="0 0 32.000000 32.000000" preserveAspectRatio="xMidYMid meet">
  <g transform="translate(0.000000,32.000000) scale(0.100000,-0.100000)" fill="#000000" stroke="none">
    <path d="M0 160 l0 -160 160 0 160 0 0 160 0 160 -160 0 -160 0 0 -160z m230
70 c47 -47 4 -110 -76 -110 -42 0 -44 -1 -44 -30 0 -20 -5 -30 -15 -30 -12 0
-15 16 -15 88 0 49 3 92 7 95 3 4 33 7 65 7 45 0 63 -5 78 -20z" />
    <path d="M110 185 c0 -45 0 -45 36 -45 47 0 74 16 74 43 0 34 -19 47 -67 47
l-43 0 0 -45z" />
  </g>
</svg>