<svg width="259" height="50" viewBox="0 0 259 50" fill="none" xmlns="http://www.w3.org/2000/svg">
<g clip-path="url(#clip0_393_6525)">
<path d="M47.5921 14.285C47.4186 13.9196 46.9814 13.7641 46.6164 13.9378C46.2509 14.1113 46.0955 14.5482 46.269 14.9136C47.7717 18.0768 48.5336 21.4704 48.5336 25C48.5336 31.2865 46.0856 37.1967 41.6404 41.6419C37.1953 46.0871 31.285 48.5351 24.9985 48.5351C21.2703 48.5351 17.7048 47.689 14.4015 46.0204C11.6491 44.63 9.16243 42.6779 7.14329 40.3322L10.033 41.2955C10.4167 41.4234 10.8316 41.216 10.9595 40.8322C11.0874 40.4484 10.88 40.0337 10.4962 39.9057L5.29602 38.1723C5.0552 38.0922 4.78997 38.1422 4.59515 38.3049C4.40032 38.4676 4.30354 38.7195 4.33938 38.9708L5.20608 45.0377C5.25833 45.403 5.57161 45.6666 5.9303 45.6666C5.96477 45.6666 5.99964 45.6641 6.03479 45.6592C6.43528 45.6019 6.71351 45.2309 6.65628 44.8305L6.17268 41.4455C8.29173 43.8654 10.8804 45.8828 13.7411 47.3279C17.2511 49.101 21.0386 50 24.9985 50C31.6762 50 37.9543 47.3995 42.6762 42.6777C47.398 37.9557 49.9985 31.6777 49.9985 25C49.9985 21.2512 49.1889 17.6463 47.5921 14.285Z" fill="#272343"/>
<path d="M45.6592 11.0293L44.7925 4.9624C44.7353 4.56191 44.3634 4.28389 43.9639 4.34092C43.5634 4.39814 43.2852 4.76914 43.3424 5.16953L43.8255 8.55117C39.0691 3.10156 32.2791 0 25 0C18.3223 0 12.0442 2.60049 7.32227 7.32227C2.60049 12.0442 0 18.3223 0 25C0 28.7488 0.809668 32.3539 2.40635 35.7149C2.53174 35.9789 2.79443 36.1333 3.06846 36.1333C3.17373 36.1333 3.28076 36.1105 3.38223 36.0622C3.74756 35.8887 3.90303 35.4518 3.72949 35.0863C2.22676 31.9233 1.46484 28.5298 1.46484 25C1.46484 18.7135 3.91289 12.8033 8.35811 8.35811C12.8033 3.91289 18.7135 1.46484 25 1.46484C31.9195 1.46484 38.3694 4.44277 42.8531 9.66709L39.9655 8.70459C39.5815 8.57646 39.1669 8.78408 39.0391 9.16787C38.9112 9.55166 39.1185 9.96641 39.5022 10.0943L44.7024 11.8277C44.7782 11.8529 44.8563 11.8653 44.934 11.8653C45.1031 11.8653 45.2697 11.8067 45.4034 11.6952C45.5982 11.5325 45.695 11.2806 45.6592 11.0293Z" fill="#272343"/>
<path d="M22.9637 32.8787H15.5961C15.8903 30.3152 17.7119 28.5953 19.6309 26.7833C21.6295 24.8962 23.6961 22.9449 23.6961 20.0146C23.6961 17.6116 21.5414 15.6565 18.893 15.6565C16.2445 15.6565 14.0898 17.6116 14.0898 20.0146C14.0898 20.4191 14.4178 20.747 14.8223 20.747C15.2268 20.747 15.5547 20.4191 15.5547 20.0146C15.5547 18.4193 17.0521 17.1213 18.893 17.1213C20.7338 17.1213 22.2313 18.4193 22.2313 20.0146C22.2313 22.3134 20.4796 23.9673 18.6252 25.7183C16.4993 27.7255 14.0898 30.0006 14.0898 33.6111C14.0898 34.0156 14.4178 34.3435 14.8223 34.3435H22.9637C23.3682 34.3435 23.6961 34.0156 23.6961 33.6111C23.6961 33.2066 23.3682 32.8787 22.9637 32.8787Z" fill="#272343"/>
<path d="M35.177 28.1816H34.3438V16.3889C34.3438 15.9844 34.016 15.6565 33.6114 15.6565C33.2068 15.6565 32.879 15.9844 32.879 16.3889V28.1817H26.6657L28.8514 16.524C28.926 16.1264 28.6641 15.7436 28.2666 15.6691C27.8694 15.595 27.4864 15.8564 27.4118 16.254L25.0633 28.7792C25.0232 28.9933 25.0804 29.2142 25.2196 29.3819C25.3587 29.5496 25.5653 29.6465 25.7832 29.6465H32.879V33.6111C32.879 34.0155 33.2068 34.3434 33.6114 34.3434C34.016 34.3434 34.3438 34.0155 34.3438 33.611V29.6464H35.177C35.5816 29.6464 35.9094 29.3185 35.9094 28.914C35.9094 28.5095 35.5816 28.1816 35.177 28.1816Z" fill="#272343"/>
<path d="M25.002 3.91406C24.5975 3.91406 24.2695 4.24199 24.2695 4.64648V7.77773C24.2695 8.18223 24.5975 8.51016 25.002 8.51016C25.4065 8.51016 25.7344 8.18223 25.7344 7.77773V4.64648C25.7344 4.24199 25.4065 3.91406 25.002 3.91406Z" fill="#272343"/>
<path d="M25.002 41.4897C24.5975 41.4897 24.2695 41.8177 24.2695 42.2222V45.3534C24.2695 45.7579 24.5975 46.0858 25.002 46.0858C25.4065 46.0858 25.7344 45.7579 25.7344 45.3534V42.2222C25.7344 41.8177 25.4065 41.4897 25.002 41.4897Z" fill="#272343"/>
<path d="M45.352 24.2676H42.2207C41.8161 24.2676 41.4883 24.5955 41.4883 25C41.4883 25.4045 41.8161 25.7324 42.2207 25.7324H45.352C45.7565 25.7324 46.0844 25.4045 46.0844 25C46.0844 24.5955 45.7565 24.2676 45.352 24.2676Z" fill="#272343"/>
<path d="M7.77773 24.2676H4.64648C4.24199 24.2676 3.91406 24.5955 3.91406 25C3.91406 25.4045 4.24199 25.7324 4.64648 25.7324H7.77773C8.18223 25.7324 8.51016 25.4045 8.51016 25C8.51016 24.5955 8.18223 24.2676 7.77773 24.2676Z" fill="#272343"/>
</g>
<path d="M73.578 19.644C72.606 19.644 71.712 19.488 70.896 19.176C70.08 18.852 69.372 18.402 68.772 17.826C68.172 17.238 67.704 16.554 67.368 15.774C67.032 14.994 66.864 14.136 66.864 13.2C66.864 12.264 67.032 11.406 67.368 10.626C67.704 9.846 68.172 9.168 68.772 8.592C69.384 8.004 70.098 7.554 70.914 7.242C71.73 6.918 72.63 6.756 73.614 6.756C74.61 6.756 75.522 6.918 76.35 7.242C77.178 7.566 77.88 8.052 78.456 8.7L77.34 9.816C76.824 9.312 76.26 8.946 75.648 8.718C75.048 8.478 74.394 8.358 73.686 8.358C72.966 8.358 72.294 8.478 71.67 8.718C71.058 8.958 70.524 9.294 70.068 9.726C69.624 10.158 69.276 10.674 69.024 11.274C68.784 11.862 68.664 12.504 68.664 13.2C68.664 13.884 68.784 14.526 69.024 15.126C69.276 15.714 69.624 16.23 70.068 16.674C70.524 17.106 71.058 17.442 71.67 17.682C72.282 17.922 72.948 18.042 73.668 18.042C74.34 18.042 74.982 17.94 75.594 17.736C76.218 17.52 76.794 17.166 77.322 16.674L78.348 18.042C77.724 18.57 76.992 18.972 76.152 19.248C75.324 19.512 74.466 19.644 73.578 19.644ZM76.62 17.808V13.128H78.348V18.042L76.62 17.808ZM81.5423 19.5V9.96H83.1983V12.552L83.0363 11.904C83.3003 11.244 83.7443 10.74 84.3683 10.392C84.9923 10.044 85.7603 9.87 86.6723 9.87V11.544C86.6003 11.532 86.5283 11.526 86.4563 11.526C86.3963 11.526 86.3363 11.526 86.2763 11.526C85.3523 11.526 84.6203 11.802 84.0803 12.354C83.5403 12.906 83.2703 13.704 83.2703 14.748V19.5H81.5423ZM92.9622 19.608C91.9422 19.608 91.0422 19.398 90.2622 18.978C89.4942 18.558 88.8942 17.982 88.4622 17.25C88.0422 16.518 87.8322 15.678 87.8322 14.73C87.8322 13.782 88.0362 12.942 88.4442 12.21C88.8642 11.478 89.4342 10.908 90.1542 10.5C90.8862 10.08 91.7082 9.87 92.6202 9.87C93.5442 9.87 94.3602 10.074 95.0682 10.482C95.7762 10.89 96.3282 11.466 96.7242 12.21C97.1322 12.942 97.3362 13.8 97.3362 14.784C97.3362 14.856 97.3302 14.94 97.3182 15.036C97.3182 15.132 97.3122 15.222 97.3002 15.306H89.1822V14.064H96.4002L95.6982 14.496C95.7102 13.884 95.5842 13.338 95.3202 12.858C95.0562 12.378 94.6902 12.006 94.2222 11.742C93.7662 11.466 93.2322 11.328 92.6202 11.328C92.0202 11.328 91.4862 11.466 91.0182 11.742C90.5502 12.006 90.1842 12.384 89.9202 12.876C89.6562 13.356 89.5242 13.908 89.5242 14.532V14.82C89.5242 15.456 89.6682 16.026 89.9562 16.53C90.2562 17.022 90.6702 17.406 91.1982 17.682C91.7262 17.958 92.3322 18.096 93.0162 18.096C93.5802 18.096 94.0902 18 94.5462 17.808C95.0142 17.616 95.4222 17.328 95.7702 16.944L96.7242 18.06C96.2922 18.564 95.7522 18.948 95.1042 19.212C94.4682 19.476 93.7542 19.608 92.9622 19.608ZM105.394 19.5V17.484L105.304 17.106V13.668C105.304 12.936 105.088 12.372 104.656 11.976C104.236 11.568 103.6 11.364 102.748 11.364C102.184 11.364 101.632 11.46 101.092 11.652C100.552 11.832 100.096 12.078 99.724 12.39L99.004 11.094C99.496 10.698 100.084 10.398 100.768 10.194C101.464 9.978 102.19 9.87 102.946 9.87C104.254 9.87 105.262 10.188 105.97 10.824C106.678 11.46 107.032 12.432 107.032 13.74V19.5H105.394ZM102.262 19.608C101.554 19.608 100.93 19.488 100.39 19.248C99.862 19.008 99.454 18.678 99.166 18.258C98.878 17.826 98.734 17.34 98.734 16.8C98.734 16.284 98.854 15.816 99.094 15.396C99.346 14.976 99.748 14.64 100.3 14.388C100.864 14.136 101.62 14.01 102.568 14.01H105.592V15.252H102.64C101.776 15.252 101.194 15.396 100.894 15.684C100.594 15.972 100.444 16.32 100.444 16.728C100.444 17.196 100.63 17.574 101.002 17.862C101.374 18.138 101.89 18.276 102.55 18.276C103.198 18.276 103.762 18.132 104.242 17.844C104.734 17.556 105.088 17.136 105.304 16.584L105.646 17.772C105.418 18.336 105.016 18.786 104.44 19.122C103.864 19.446 103.138 19.608 102.262 19.608ZM113.506 19.608C112.546 19.608 111.802 19.35 111.274 18.834C110.746 18.318 110.482 17.58 110.482 16.62V7.872H112.21V16.548C112.21 17.064 112.336 17.46 112.588 17.736C112.852 18.012 113.224 18.15 113.704 18.15C114.244 18.15 114.694 18 115.054 17.7L115.594 18.942C115.33 19.17 115.012 19.338 114.64 19.446C114.28 19.554 113.902 19.608 113.506 19.608ZM108.862 11.382V9.96H114.946V11.382H108.862ZM126.441 19.644C125.481 19.644 124.563 19.5 123.687 19.212C122.811 18.912 122.121 18.528 121.617 18.06L122.283 16.656C122.763 17.076 123.375 17.424 124.119 17.7C124.863 17.976 125.637 18.114 126.441 18.114C127.173 18.114 127.767 18.03 128.223 17.862C128.679 17.694 129.015 17.466 129.231 17.178C129.447 16.878 129.555 16.542 129.555 16.17C129.555 15.738 129.411 15.39 129.123 15.126C128.847 14.862 128.481 14.652 128.025 14.496C127.581 14.328 127.089 14.184 126.549 14.064C126.009 13.944 125.463 13.806 124.911 13.65C124.371 13.482 123.873 13.272 123.417 13.02C122.973 12.768 122.613 12.432 122.337 12.012C122.061 11.58 121.923 11.028 121.923 10.356C121.923 9.708 122.091 9.114 122.427 8.574C122.775 8.022 123.303 7.584 124.011 7.26C124.731 6.924 125.643 6.756 126.747 6.756C127.479 6.756 128.205 6.852 128.925 7.044C129.645 7.236 130.269 7.512 130.797 7.872L130.203 9.312C129.663 8.952 129.093 8.694 128.493 8.538C127.893 8.37 127.311 8.286 126.747 8.286C126.039 8.286 125.457 8.376 125.001 8.556C124.545 8.736 124.209 8.976 123.993 9.276C123.789 9.576 123.687 9.912 123.687 10.284C123.687 10.728 123.825 11.082 124.101 11.346C124.389 11.61 124.755 11.82 125.199 11.976C125.655 12.132 126.153 12.276 126.693 12.408C127.233 12.528 127.773 12.666 128.313 12.822C128.865 12.978 129.363 13.182 129.807 13.434C130.263 13.686 130.629 14.022 130.905 14.442C131.181 14.862 131.319 15.402 131.319 16.062C131.319 16.698 131.145 17.292 130.797 17.844C130.449 18.384 129.909 18.822 129.177 19.158C128.457 19.482 127.545 19.644 126.441 19.644ZM137.711 19.608C136.895 19.608 136.175 19.458 135.551 19.158C134.939 18.858 134.459 18.402 134.111 17.79C133.775 17.166 133.607 16.386 133.607 15.45V9.96H135.335V15.252C135.335 16.188 135.557 16.89 136.001 17.358C136.457 17.826 137.093 18.06 137.909 18.06C138.509 18.06 139.031 17.94 139.475 17.7C139.919 17.448 140.261 17.088 140.501 16.62C140.741 16.14 140.861 15.564 140.861 14.892V9.96H142.589V19.5H140.951V16.926L141.221 17.61C140.909 18.246 140.441 18.738 139.817 19.086C139.193 19.434 138.491 19.608 137.711 19.608ZM150.936 19.608C150.144 19.608 149.418 19.428 148.758 19.068C148.11 18.696 147.588 18.15 147.192 17.43C146.808 16.71 146.616 15.81 146.616 14.73C146.616 13.65 146.802 12.75 147.174 12.03C147.558 11.31 148.074 10.77 148.722 10.41C149.382 10.05 150.12 9.87 150.936 9.87C151.872 9.87 152.7 10.074 153.42 10.482C154.14 10.89 154.71 11.46 155.13 12.192C155.55 12.912 155.76 13.758 155.76 14.73C155.76 15.702 155.55 16.554 155.13 17.286C154.71 18.018 154.14 18.588 153.42 18.996C152.7 19.404 151.872 19.608 150.936 19.608ZM145.878 22.992V9.96H147.534V12.534L147.426 14.748L147.606 16.962V22.992H145.878ZM150.792 18.096C151.404 18.096 151.95 17.958 152.43 17.682C152.922 17.406 153.306 17.016 153.582 16.512C153.87 15.996 154.014 15.402 154.014 14.73C154.014 14.046 153.87 13.458 153.582 12.966C153.306 12.462 152.922 12.072 152.43 11.796C151.95 11.52 151.404 11.382 150.792 11.382C150.192 11.382 149.646 11.52 149.154 11.796C148.674 12.072 148.29 12.462 148.002 12.966C147.726 13.458 147.588 14.046 147.588 14.73C147.588 15.402 147.726 15.996 148.002 16.512C148.29 17.016 148.674 17.406 149.154 17.682C149.646 17.958 150.192 18.096 150.792 18.096ZM163.206 19.608C162.414 19.608 161.688 19.428 161.028 19.068C160.38 18.696 159.858 18.15 159.462 17.43C159.078 16.71 158.886 15.81 158.886 14.73C158.886 13.65 159.072 12.75 159.444 12.03C159.828 11.31 160.344 10.77 160.992 10.41C161.652 10.05 162.39 9.87 163.206 9.87C164.142 9.87 164.97 10.074 165.69 10.482C166.41 10.89 166.98 11.46 167.4 12.192C167.82 12.912 168.03 13.758 168.03 14.73C168.03 15.702 167.82 16.554 167.4 17.286C166.98 18.018 166.41 18.588 165.69 18.996C164.97 19.404 164.142 19.608 163.206 19.608ZM158.148 22.992V9.96H159.804V12.534L159.696 14.748L159.876 16.962V22.992H158.148ZM163.062 18.096C163.674 18.096 164.22 17.958 164.7 17.682C165.192 17.406 165.576 17.016 165.852 16.512C166.14 15.996 166.284 15.402 166.284 14.73C166.284 14.046 166.14 13.458 165.852 12.966C165.576 12.462 165.192 12.072 164.7 11.796C164.22 11.52 163.674 11.382 163.062 11.382C162.462 11.382 161.916 11.52 161.424 11.796C160.944 12.072 160.56 12.462 160.272 12.966C159.996 13.458 159.858 14.046 159.858 14.73C159.858 15.402 159.996 15.996 160.272 16.512C160.56 17.016 160.944 17.406 161.424 17.682C161.916 17.958 162.462 18.096 163.062 18.096ZM174.503 19.608C173.543 19.608 172.691 19.398 171.947 18.978C171.203 18.558 170.615 17.982 170.183 17.25C169.751 16.506 169.535 15.666 169.535 14.73C169.535 13.782 169.751 12.942 170.183 12.21C170.615 11.478 171.203 10.908 171.947 10.5C172.691 10.08 173.543 9.87 174.503 9.87C175.451 9.87 176.297 10.08 177.041 10.5C177.797 10.908 178.385 11.478 178.805 12.21C179.237 12.93 179.453 13.77 179.453 14.73C179.453 15.678 179.237 16.518 178.805 17.25C178.385 17.982 177.797 18.558 177.041 18.978C176.297 19.398 175.451 19.608 174.503 19.608ZM174.503 18.096C175.115 18.096 175.661 17.958 176.141 17.682C176.633 17.406 177.017 17.016 177.293 16.512C177.569 15.996 177.707 15.402 177.707 14.73C177.707 14.046 177.569 13.458 177.293 12.966C177.017 12.462 176.633 12.072 176.141 11.796C175.661 11.52 175.115 11.382 174.503 11.382C173.891 11.382 173.345 11.52 172.865 11.796C172.385 12.072 172.001 12.462 171.713 12.966C171.425 13.458 171.281 14.046 171.281 14.73C171.281 15.402 171.425 15.996 171.713 16.512C172.001 17.016 172.385 17.406 172.865 17.682C173.345 17.958 173.891 18.096 174.503 18.096ZM181.843 19.5V9.96H183.499V12.552L183.337 11.904C183.601 11.244 184.045 10.74 184.669 10.392C185.293 10.044 186.061 9.87 186.973 9.87V11.544C186.901 11.532 186.829 11.526 186.757 11.526C186.697 11.526 186.637 11.526 186.577 11.526C185.653 11.526 184.921 11.802 184.381 12.354C183.841 12.906 183.571 13.704 183.571 14.748V19.5H181.843ZM192.766 19.608C191.806 19.608 191.062 19.35 190.534 18.834C190.006 18.318 189.742 17.58 189.742 16.62V7.872H191.47V16.548C191.47 17.064 191.596 17.46 191.848 17.736C192.112 18.012 192.484 18.15 192.964 18.15C193.504 18.15 193.954 18 194.314 17.7L194.854 18.942C194.59 19.17 194.272 19.338 193.9 19.446C193.54 19.554 193.162 19.608 192.766 19.608ZM188.122 11.382V9.96H194.206V11.382H188.122ZM200.805 19.5V18.276L205.935 13.326C206.391 12.894 206.727 12.516 206.943 12.192C207.171 11.856 207.321 11.55 207.393 11.274C207.477 10.986 207.519 10.71 207.519 10.446C207.519 9.798 207.291 9.288 206.835 8.916C206.379 8.544 205.713 8.358 204.837 8.358C204.165 8.358 203.559 8.472 203.019 8.7C202.479 8.916 202.011 9.258 201.615 9.726L200.391 8.664C200.871 8.052 201.513 7.584 202.317 7.26C203.133 6.924 204.027 6.756 204.999 6.756C205.875 6.756 206.637 6.9 207.285 7.188C207.933 7.464 208.431 7.866 208.779 8.394C209.139 8.922 209.319 9.546 209.319 10.266C209.319 10.674 209.265 11.076 209.157 11.472C209.049 11.868 208.845 12.288 208.545 12.732C208.245 13.176 207.813 13.674 207.249 14.226L202.677 18.636L202.245 17.934H209.859V19.5H200.805ZM210.807 16.404V15.144L217.251 6.9H219.195L212.805 15.144L211.887 14.856H221.949V16.404H210.807ZM217.809 19.5V16.404L217.863 14.856V12.12H219.555V19.5H217.809ZM222.152 21.3L228.092 4.344H229.658L223.718 21.3H222.152ZM232.237 19.5L237.583 7.656L238.051 8.466H230.563L231.463 7.584V10.716H229.735V6.9H239.239V8.124L234.145 19.5H232.237Z" fill="#272343"/>
<path d="M70.095 43.5L66.555 33H67.695L71.01 42.885H70.44L73.86 33H74.88L78.255 42.885H77.715L81.06 33H82.125L78.585 43.5H77.415L74.19 34.125H74.49L71.25 43.5H70.095ZM86.6796 43.575C85.8596 43.575 85.1396 43.405 84.5196 43.065C83.8996 42.715 83.4146 42.24 83.0646 41.64C82.7146 41.03 82.5396 40.335 82.5396 39.555C82.5396 38.775 82.7046 38.085 83.0346 37.485C83.3746 36.885 83.8346 36.415 84.4146 36.075C85.0046 35.725 85.6646 35.55 86.3946 35.55C87.1346 35.55 87.7896 35.72 88.3596 36.06C88.9396 36.39 89.3946 36.86 89.7246 37.47C90.0546 38.07 90.2196 38.765 90.2196 39.555C90.2196 39.605 90.2146 39.66 90.2046 39.72C90.2046 39.77 90.2046 39.825 90.2046 39.885H83.3496V39.09H89.6346L89.2146 39.405C89.2146 38.835 89.0896 38.33 88.8396 37.89C88.5996 37.44 88.2696 37.09 87.8496 36.84C87.4296 36.59 86.9446 36.465 86.3946 36.465C85.8546 36.465 85.3696 36.59 84.9396 36.84C84.5096 37.09 84.1746 37.44 83.9346 37.89C83.6946 38.34 83.5746 38.855 83.5746 39.435V39.6C83.5746 40.2 83.7046 40.73 83.9646 41.19C84.2346 41.64 84.6046 41.995 85.0746 42.255C85.5546 42.505 86.0996 42.63 86.7096 42.63C87.1896 42.63 87.6346 42.545 88.0446 42.375C88.4646 42.205 88.8246 41.945 89.1246 41.595L89.7246 42.285C89.3746 42.705 88.9346 43.025 88.4046 43.245C87.8846 43.465 87.3096 43.575 86.6796 43.575ZM99.5831 43.575C98.8031 43.575 98.1031 43.405 97.4831 43.065C96.8731 42.715 96.3931 42.24 96.0431 41.64C95.6931 41.03 95.5181 40.335 95.5181 39.555C95.5181 38.765 95.6931 38.07 96.0431 37.47C96.3931 36.87 96.8731 36.4 97.4831 36.06C98.1031 35.72 98.8031 35.55 99.5831 35.55C100.253 35.55 100.858 35.68 101.398 35.94C101.938 36.2 102.363 36.59 102.673 37.11L101.878 37.65C101.608 37.25 101.273 36.955 100.873 36.765C100.473 36.575 100.038 36.48 99.5681 36.48C99.0081 36.48 98.5031 36.61 98.0531 36.87C97.6031 37.12 97.2481 37.475 96.9881 37.935C96.7281 38.395 96.5981 38.935 96.5981 39.555C96.5981 40.175 96.7281 40.715 96.9881 41.175C97.2481 41.635 97.6031 41.995 98.0531 42.255C98.5031 42.505 99.0081 42.63 99.5681 42.63C100.038 42.63 100.473 42.535 100.873 42.345C101.273 42.155 101.608 41.865 101.878 41.475L102.673 42.015C102.363 42.525 101.938 42.915 101.398 43.185C100.858 43.445 100.253 43.575 99.5831 43.575ZM109.7 43.5V41.76L109.655 41.475V38.565C109.655 37.895 109.465 37.38 109.085 37.02C108.715 36.66 108.16 36.48 107.42 36.48C106.91 36.48 106.425 36.565 105.965 36.735C105.505 36.905 105.115 37.13 104.795 37.41L104.315 36.615C104.715 36.275 105.195 36.015 105.755 35.835C106.315 35.645 106.905 35.55 107.525 35.55C108.545 35.55 109.33 35.805 109.88 36.315C110.44 36.815 110.72 37.58 110.72 38.61V43.5H109.7ZM106.985 43.575C106.395 43.575 105.88 43.48 105.44 43.29C105.01 43.09 104.68 42.82 104.45 42.48C104.22 42.13 104.105 41.73 104.105 41.28C104.105 40.87 104.2 40.5 104.39 40.17C104.59 39.83 104.91 39.56 105.35 39.36C105.8 39.15 106.4 39.045 107.15 39.045H109.865V39.84H107.18C106.42 39.84 105.89 39.975 105.59 40.245C105.3 40.515 105.155 40.85 105.155 41.25C105.155 41.7 105.33 42.06 105.68 42.33C106.03 42.6 106.52 42.735 107.15 42.735C107.75 42.735 108.265 42.6 108.695 42.33C109.135 42.05 109.455 41.65 109.655 41.13L109.895 41.865C109.695 42.385 109.345 42.8 108.845 43.11C108.355 43.42 107.735 43.575 106.985 43.575ZM113.613 43.5V35.625H114.633V37.77L114.528 37.395C114.748 36.795 115.118 36.34 115.638 36.03C116.158 35.71 116.803 35.55 117.573 35.55V36.585C117.533 36.585 117.493 36.585 117.453 36.585C117.413 36.575 117.373 36.57 117.333 36.57C116.503 36.57 115.853 36.825 115.383 37.335C114.913 37.835 114.678 38.55 114.678 39.48V43.5H113.613ZM122.788 43.575C121.968 43.575 121.248 43.405 120.628 43.065C120.008 42.715 119.523 42.24 119.173 41.64C118.823 41.03 118.648 40.335 118.648 39.555C118.648 38.775 118.813 38.085 119.143 37.485C119.483 36.885 119.943 36.415 120.523 36.075C121.113 35.725 121.773 35.55 122.503 35.55C123.243 35.55 123.898 35.72 124.468 36.06C125.048 36.39 125.503 36.86 125.833 37.47C126.163 38.07 126.328 38.765 126.328 39.555C126.328 39.605 126.323 39.66 126.313 39.72C126.313 39.77 126.313 39.825 126.313 39.885H119.458V39.09H125.743L125.323 39.405C125.323 38.835 125.198 38.33 124.948 37.89C124.708 37.44 124.378 37.09 123.958 36.84C123.538 36.59 123.053 36.465 122.503 36.465C121.963 36.465 121.478 36.59 121.048 36.84C120.618 37.09 120.283 37.44 120.043 37.89C119.803 38.34 119.683 38.855 119.683 39.435V39.6C119.683 40.2 119.813 40.73 120.073 41.19C120.343 41.64 120.713 41.995 121.183 42.255C121.663 42.505 122.208 42.63 122.818 42.63C123.298 42.63 123.743 42.545 124.153 42.375C124.573 42.205 124.933 41.945 125.233 41.595L125.833 42.285C125.483 42.705 125.043 43.025 124.513 43.245C123.993 43.465 123.418 43.575 122.788 43.575ZM132.482 46.485C132.112 46.485 131.757 46.425 131.417 46.305C131.087 46.185 130.802 46.005 130.562 45.765L131.057 44.97C131.257 45.16 131.472 45.305 131.702 45.405C131.942 45.515 132.207 45.57 132.497 45.57C132.847 45.57 133.147 45.47 133.397 45.27C133.657 45.08 133.902 44.74 134.132 44.25L134.642 43.095L134.762 42.93L138.002 35.625H139.052L135.107 44.445C134.887 44.955 134.642 45.36 134.372 45.66C134.112 45.96 133.827 46.17 133.517 46.29C133.207 46.42 132.862 46.485 132.482 46.485ZM134.582 43.725L130.952 35.625H132.062L135.272 42.855L134.582 43.725ZM143.542 43.575C142.782 43.575 142.097 43.405 141.487 43.065C140.887 42.715 140.412 42.24 140.062 41.64C139.712 41.03 139.537 40.335 139.537 39.555C139.537 38.765 139.712 38.07 140.062 37.47C140.412 36.87 140.887 36.4 141.487 36.06C142.087 35.72 142.772 35.55 143.542 35.55C144.322 35.55 145.012 35.72 145.612 36.06C146.222 36.4 146.697 36.87 147.037 37.47C147.387 38.07 147.562 38.765 147.562 39.555C147.562 40.335 147.387 41.03 147.037 41.64C146.697 42.24 146.222 42.715 145.612 43.065C145.002 43.405 144.312 43.575 143.542 43.575ZM143.542 42.63C144.112 42.63 144.617 42.505 145.057 42.255C145.497 41.995 145.842 41.635 146.092 41.175C146.352 40.705 146.482 40.165 146.482 39.555C146.482 38.935 146.352 38.395 146.092 37.935C145.842 37.475 145.497 37.12 145.057 36.87C144.617 36.61 144.117 36.48 143.557 36.48C142.997 36.48 142.497 36.61 142.057 36.87C141.617 37.12 141.267 37.475 141.007 37.935C140.747 38.395 140.617 38.935 140.617 39.555C140.617 40.165 140.747 40.705 141.007 41.175C141.267 41.635 141.617 41.995 142.057 42.255C142.497 42.505 142.992 42.63 143.542 42.63ZM152.991 43.575C152.321 43.575 151.736 43.45 151.236 43.2C150.736 42.95 150.346 42.575 150.066 42.075C149.796 41.575 149.661 40.95 149.661 40.2V35.625H150.726V40.08C150.726 40.92 150.931 41.555 151.341 41.985C151.761 42.405 152.346 42.615 153.096 42.615C153.646 42.615 154.121 42.505 154.521 42.285C154.931 42.055 155.241 41.725 155.451 41.295C155.671 40.865 155.781 40.35 155.781 39.75V35.625H156.846V43.5H155.826V41.34L155.991 41.73C155.741 42.31 155.351 42.765 154.821 43.095C154.301 43.415 153.691 43.575 152.991 43.575ZM159.814 43.5V35.625H160.834V37.77L160.729 37.395C160.949 36.795 161.319 36.34 161.839 36.03C162.359 35.71 163.004 35.55 163.774 35.55V36.585C163.734 36.585 163.694 36.585 163.654 36.585C163.614 36.575 163.574 36.57 163.534 36.57C162.704 36.57 162.054 36.825 161.584 37.335C161.114 37.835 160.879 38.55 160.879 39.48V43.5H159.814ZM173.105 43.575C172.285 43.575 171.565 43.405 170.945 43.065C170.325 42.715 169.84 42.24 169.49 41.64C169.14 41.03 168.965 40.335 168.965 39.555C168.965 38.775 169.13 38.085 169.46 37.485C169.8 36.885 170.26 36.415 170.84 36.075C171.43 35.725 172.09 35.55 172.82 35.55C173.56 35.55 174.215 35.72 174.785 36.06C175.365 36.39 175.82 36.86 176.15 37.47C176.48 38.07 176.645 38.765 176.645 39.555C176.645 39.605 176.64 39.66 176.63 39.72C176.63 39.77 176.63 39.825 176.63 39.885H169.775V39.09H176.06L175.64 39.405C175.64 38.835 175.515 38.33 175.265 37.89C175.025 37.44 174.695 37.09 174.275 36.84C173.855 36.59 173.37 36.465 172.82 36.465C172.28 36.465 171.795 36.59 171.365 36.84C170.935 37.09 170.6 37.44 170.36 37.89C170.12 38.34 170 38.855 170 39.435V39.6C170 40.2 170.13 40.73 170.39 41.19C170.66 41.64 171.03 41.995 171.5 42.255C171.98 42.505 172.525 42.63 173.135 42.63C173.615 42.63 174.06 42.545 174.47 42.375C174.89 42.205 175.25 41.945 175.55 41.595L176.15 42.285C175.8 42.705 175.36 43.025 174.83 43.245C174.31 43.465 173.735 43.575 173.105 43.575ZM177.393 43.5L180.723 39.18L180.708 39.705L177.543 35.625H178.743L181.338 39L180.888 38.985L183.483 35.625H184.653L181.458 39.75L181.473 39.18L184.833 43.5H183.618L180.873 39.9L181.293 39.96L178.593 43.5H177.393ZM190.671 43.575C189.991 43.575 189.376 43.42 188.826 43.11C188.276 42.79 187.836 42.335 187.506 41.745C187.186 41.145 187.026 40.415 187.026 39.555C187.026 38.695 187.186 37.97 187.506 37.38C187.826 36.78 188.261 36.325 188.811 36.015C189.361 35.705 189.981 35.55 190.671 35.55C191.421 35.55 192.091 35.72 192.681 36.06C193.281 36.39 193.751 36.86 194.091 37.47C194.431 38.07 194.601 38.765 194.601 39.555C194.601 40.355 194.431 41.055 194.091 41.655C193.751 42.255 193.281 42.725 192.681 43.065C192.091 43.405 191.421 43.575 190.671 43.575ZM186.606 46.41V35.625H187.626V37.995L187.521 39.57L187.671 41.16V46.41H186.606ZM190.596 42.63C191.156 42.63 191.656 42.505 192.096 42.255C192.536 41.995 192.886 41.635 193.146 41.175C193.406 40.705 193.536 40.165 193.536 39.555C193.536 38.945 193.406 38.41 193.146 37.95C192.886 37.49 192.536 37.13 192.096 36.87C191.656 36.61 191.156 36.48 190.596 36.48C190.036 36.48 189.531 36.61 189.081 36.87C188.641 37.13 188.291 37.49 188.031 37.95C187.781 38.41 187.656 38.945 187.656 39.555C187.656 40.165 187.781 40.705 188.031 41.175C188.291 41.635 188.641 41.995 189.081 42.255C189.531 42.505 190.036 42.63 190.596 42.63ZM200.117 43.575C199.297 43.575 198.577 43.405 197.957 43.065C197.337 42.715 196.852 42.24 196.502 41.64C196.152 41.03 195.977 40.335 195.977 39.555C195.977 38.775 196.142 38.085 196.472 37.485C196.812 36.885 197.272 36.415 197.852 36.075C198.442 35.725 199.102 35.55 199.832 35.55C200.572 35.55 201.227 35.72 201.797 36.06C202.377 36.39 202.832 36.86 203.162 37.47C203.492 38.07 203.657 38.765 203.657 39.555C203.657 39.605 203.652 39.66 203.642 39.72C203.642 39.77 203.642 39.825 203.642 39.885H196.787V39.09H203.072L202.652 39.405C202.652 38.835 202.527 38.33 202.277 37.89C202.037 37.44 201.707 37.09 201.287 36.84C200.867 36.59 200.382 36.465 199.832 36.465C199.292 36.465 198.807 36.59 198.377 36.84C197.947 37.09 197.612 37.44 197.372 37.89C197.132 38.34 197.012 38.855 197.012 39.435V39.6C197.012 40.2 197.142 40.73 197.402 41.19C197.672 41.64 198.042 41.995 198.512 42.255C198.992 42.505 199.537 42.63 200.147 42.63C200.627 42.63 201.072 42.545 201.482 42.375C201.902 42.205 202.262 41.945 202.562 41.595L203.162 42.285C202.812 42.705 202.372 43.025 201.842 43.245C201.322 43.465 200.747 43.575 200.117 43.575ZM205.825 43.5V35.625H206.845V37.77L206.74 37.395C206.96 36.795 207.33 36.34 207.85 36.03C208.37 35.71 209.015 35.55 209.785 35.55V36.585C209.745 36.585 209.705 36.585 209.665 36.585C209.625 36.575 209.585 36.57 209.545 36.57C208.715 36.57 208.065 36.825 207.595 37.335C207.125 37.835 206.89 38.55 206.89 39.48V43.5H205.825ZM211.728 43.5V35.625H212.793V43.5H211.728ZM212.268 33.885C212.048 33.885 211.863 33.81 211.713 33.66C211.563 33.51 211.488 33.33 211.488 33.12C211.488 32.91 211.563 32.735 211.713 32.595C211.863 32.445 212.048 32.37 212.268 32.37C212.488 32.37 212.673 32.44 212.823 32.58C212.973 32.72 213.048 32.895 213.048 33.105C213.048 33.325 212.973 33.51 212.823 33.66C212.683 33.81 212.498 33.885 212.268 33.885ZM219.101 43.575C218.281 43.575 217.561 43.405 216.941 43.065C216.321 42.715 215.836 42.24 215.486 41.64C215.136 41.03 214.961 40.335 214.961 39.555C214.961 38.775 215.126 38.085 215.456 37.485C215.796 36.885 216.256 36.415 216.836 36.075C217.426 35.725 218.086 35.55 218.816 35.55C219.556 35.55 220.211 35.72 220.781 36.06C221.361 36.39 221.816 36.86 222.146 37.47C222.476 38.07 222.641 38.765 222.641 39.555C222.641 39.605 222.636 39.66 222.626 39.72C222.626 39.77 222.626 39.825 222.626 39.885H215.771V39.09H222.056L221.636 39.405C221.636 38.835 221.511 38.33 221.261 37.89C221.021 37.44 220.691 37.09 220.271 36.84C219.851 36.59 219.366 36.465 218.816 36.465C218.276 36.465 217.791 36.59 217.361 36.84C216.931 37.09 216.596 37.44 216.356 37.89C216.116 38.34 215.996 38.855 215.996 39.435V39.6C215.996 40.2 216.126 40.73 216.386 41.19C216.656 41.64 217.026 41.995 217.496 42.255C217.976 42.505 218.521 42.63 219.131 42.63C219.611 42.63 220.056 42.545 220.466 42.375C220.886 42.205 221.246 41.945 221.546 41.595L222.146 42.285C221.796 42.705 221.356 43.025 220.826 43.245C220.306 43.465 219.731 43.575 219.101 43.575ZM228.829 35.55C229.469 35.55 230.029 35.675 230.509 35.925C230.999 36.165 231.379 36.535 231.649 37.035C231.929 37.535 232.069 38.165 232.069 38.925V43.5H231.004V39.03C231.004 38.2 230.794 37.575 230.374 37.155C229.964 36.725 229.384 36.51 228.634 36.51C228.074 36.51 227.584 36.625 227.164 36.855C226.754 37.075 226.434 37.4 226.204 37.83C225.984 38.25 225.874 38.76 225.874 39.36V43.5H224.809V35.625H225.829V37.785L225.664 37.38C225.914 36.81 226.314 36.365 226.864 36.045C227.414 35.715 228.069 35.55 228.829 35.55ZM238.216 43.575C237.436 43.575 236.736 43.405 236.116 43.065C235.506 42.715 235.026 42.24 234.676 41.64C234.326 41.03 234.151 40.335 234.151 39.555C234.151 38.765 234.326 38.07 234.676 37.47C235.026 36.87 235.506 36.4 236.116 36.06C236.736 35.72 237.436 35.55 238.216 35.55C238.886 35.55 239.491 35.68 240.031 35.94C240.571 36.2 240.996 36.59 241.306 37.11L240.511 37.65C240.241 37.25 239.906 36.955 239.506 36.765C239.106 36.575 238.671 36.48 238.201 36.48C237.641 36.48 237.136 36.61 236.686 36.87C236.236 37.12 235.881 37.475 235.621 37.935C235.361 38.395 235.231 38.935 235.231 39.555C235.231 40.175 235.361 40.715 235.621 41.175C235.881 41.635 236.236 41.995 236.686 42.255C237.136 42.505 237.641 42.63 238.201 42.63C238.671 42.63 239.106 42.535 239.506 42.345C239.906 42.155 240.241 41.865 240.511 41.475L241.306 42.015C240.996 42.525 240.571 42.915 240.031 43.185C239.491 43.445 238.886 43.575 238.216 43.575ZM246.611 43.575C245.791 43.575 245.071 43.405 244.451 43.065C243.831 42.715 243.346 42.24 242.996 41.64C242.646 41.03 242.471 40.335 242.471 39.555C242.471 38.775 242.636 38.085 242.966 37.485C243.306 36.885 243.766 36.415 244.346 36.075C244.936 35.725 245.596 35.55 246.326 35.55C247.066 35.55 247.721 35.72 248.291 36.06C248.871 36.39 249.326 36.86 249.656 37.47C249.986 38.07 250.151 38.765 250.151 39.555C250.151 39.605 250.146 39.66 250.136 39.72C250.136 39.77 250.136 39.825 250.136 39.885H243.281V39.09H249.566L249.146 39.405C249.146 38.835 249.021 38.33 248.771 37.89C248.531 37.44 248.201 37.09 247.781 36.84C247.361 36.59 246.876 36.465 246.326 36.465C245.786 36.465 245.301 36.59 244.871 36.84C244.441 37.09 244.106 37.44 243.866 37.89C243.626 38.34 243.506 38.855 243.506 39.435V39.6C243.506 40.2 243.636 40.73 243.896 41.19C244.166 41.64 244.536 41.995 245.006 42.255C245.486 42.505 246.031 42.63 246.641 42.63C247.121 42.63 247.566 42.545 247.976 42.375C248.396 42.205 248.756 41.945 249.056 41.595L249.656 42.285C249.306 42.705 248.866 43.025 248.336 43.245C247.816 43.465 247.241 43.575 246.611 43.575ZM254.434 43.575C253.784 43.575 253.169 43.485 252.589 43.305C252.009 43.115 251.554 42.88 251.224 42.6L251.704 41.76C252.024 42 252.434 42.21 252.934 42.39C253.434 42.56 253.959 42.645 254.509 42.645C255.259 42.645 255.799 42.53 256.129 42.3C256.459 42.06 256.624 41.745 256.624 41.355C256.624 41.065 256.529 40.84 256.339 40.68C256.159 40.51 255.919 40.385 255.619 40.305C255.319 40.215 254.984 40.14 254.614 40.08C254.244 40.02 253.874 39.95 253.504 39.87C253.144 39.79 252.814 39.675 252.514 39.525C252.214 39.365 251.969 39.15 251.779 38.88C251.599 38.61 251.509 38.25 251.509 37.8C251.509 37.37 251.629 36.985 251.869 36.645C252.109 36.305 252.459 36.04 252.919 35.85C253.389 35.65 253.959 35.55 254.629 35.55C255.139 35.55 255.649 35.62 256.159 35.76C256.669 35.89 257.089 36.065 257.419 36.285L256.954 37.14C256.604 36.9 256.229 36.73 255.829 36.63C255.429 36.52 255.029 36.465 254.629 36.465C253.919 36.465 253.394 36.59 253.054 36.84C252.724 37.08 252.559 37.39 252.559 37.77C252.559 38.07 252.649 38.305 252.829 38.475C253.019 38.645 253.264 38.78 253.564 38.88C253.874 38.97 254.209 39.045 254.569 39.105C254.939 39.165 255.304 39.24 255.664 39.33C256.034 39.41 256.369 39.525 256.669 39.675C256.979 39.815 257.224 40.02 257.404 40.29C257.594 40.55 257.689 40.895 257.689 41.325C257.689 41.785 257.559 42.185 257.299 42.525C257.049 42.855 256.679 43.115 256.189 43.305C255.709 43.485 255.124 43.575 254.434 43.575Z" fill="#9A9CAA"/>
<defs>
<clipPath id="clip0_393_6525">
<rect width="50" height="50" fill="white"/>
</clipPath>
</defs>
</svg>
