<svg width="24" height="24" viewBox="0 0 24 24" fill="none" xmlns="http://www.w3.org/2000/svg">
<path d="M23.7935 5.42007C23.6552 4.80436 23.4417 4.21373 23.1593 3.66541L23.7935 5.42007ZM23.7935 5.42007C23.9389 6.05646 24.0081 6.71225 23.9992 7.3697L23.7935 5.42007ZM22.3917 4.03049L22.3975 4.04266L22.4037 4.05464C22.6522 4.53725 22.8414 5.05952 22.9642 5.60637L22.9649 5.6094C23.0951 6.17945 23.1573 6.76782 23.1493 7.35821L23.1492 7.36631L23.1493 7.37441C23.1555 8.49532 22.8957 9.59221 22.4035 10.5486L22.3989 10.5575L22.3945 10.5665C22.1538 11.0628 21.8495 11.5171 21.4972 11.9111L21.4972 11.9111L21.4924 11.9165L12 22.7127L2.50756 11.9165L2.50541 11.914C2.14974 11.5126 1.83966 11.0572 1.58449 10.5586C1.34816 10.0706 1.16315 9.55043 1.03421 9.00912C0.912127 8.4751 0.850749 7.9239 0.850749 7.3697H0.850826L0.850673 7.35829C0.842746 6.76785 0.904916 6.17943 1.03512 5.60932L1.03516 5.60933L1.03695 5.60112C1.28043 4.4842 1.79134 3.47919 2.49987 2.69508L2.49991 2.69512L2.50662 2.68752C3.02849 2.09595 3.64056 1.63176 4.30566 1.31494C5.63517 0.695303 7.11786 0.695021 8.44751 1.31409C9.06643 1.61274 9.64183 2.03118 10.1473 2.55544L10.2001 2.62758L10.2225 2.65807L10.2474 2.68646L11.3616 3.95372L12 4.67975L12.6383 3.95372L13.7526 2.68646L13.7775 2.65807L13.7999 2.62758L13.8527 2.55544C14.3582 2.03118 14.9336 1.61274 15.5525 1.31408C16.8821 0.695021 18.3648 0.695306 19.6943 1.31494C20.3594 1.63176 20.9715 2.09595 21.4934 2.68752L21.4933 2.6876L21.5025 2.6977C21.8544 3.08386 22.155 3.5329 22.3917 4.03049Z" stroke="white" stroke-width="1.7"/>
</svg>
