<svg width="314" height="48" viewBox="0 0 314 48" fill="none" xmlns="http://www.w3.org/2000/svg">
<path d="M43.1765 41.6013L40.4144 10.4724C40.3647 9.85635 39.848 9.38936 39.2221 9.38936H33.3997C33.3897 4.21279 29.1769 0 24.0004 0C18.8238 0 14.611 4.21279 14.6011 9.38936H8.77868C8.16266 9.38936 7.64599 9.85635 7.58638 10.4724L4.82422 41.6013C4.82422 41.6411 4.82422 41.6709 4.82422 41.7106C4.82422 45.1782 8.01362 48 11.9283 48H36.0724C39.9871 48 43.1765 45.1782 43.1765 41.7106C43.1765 41.6709 43.1765 41.6411 43.1765 41.6013ZM24.0004 2.3846C27.8654 2.3846 31.0051 5.52432 31.0151 9.38936H16.9857C16.9956 5.52432 20.1353 2.3846 24.0004 2.3846ZM36.0724 45.6055H11.9283C9.34502 45.6055 7.23863 43.8866 7.20882 41.7504L9.87162 11.774H14.6011V15.9569C14.6011 16.6127 15.1376 17.1492 15.7934 17.1492C16.4491 17.1492 16.9857 16.6127 16.9857 15.9569V11.774H31.0151V15.9569C31.0151 16.6127 31.5516 17.1492 32.2074 17.1492C32.8631 17.1492 33.3997 16.6127 33.3997 15.9569V11.774H38.1291L40.7919 41.7603C40.7621 43.8866 38.6557 45.6055 36.0724 45.6055Z" fill="#E09A88"/>
<path d="M28.9571 24.8198L21.9225 31.8544L19.051 28.983C18.5841 28.516 17.8289 28.516 17.362 28.983C16.895 29.4499 16.895 30.2051 17.362 30.6721L21.078 34.3881C21.3065 34.6166 21.6145 34.7358 21.9225 34.7358C22.2305 34.7358 22.5286 34.6166 22.767 34.3881L30.6461 26.5089C31.1131 26.0419 31.1131 25.2868 30.6461 24.8198C30.1792 24.3628 29.424 24.3628 28.9571 24.8198Z" fill="#E09A88"/>
<path d="M66.496 15V4.6L67.408 5.544H64.128V3.8H68.576V15H66.496ZM75.4698 15.16C74.5844 15.16 73.7844 14.936 73.0698 14.488C72.3658 14.04 71.8111 13.3893 71.4058 12.536C71.0004 11.672 70.7978 10.6267 70.7978 9.4C70.7978 8.17333 71.0004 7.13333 71.4058 6.28C71.8111 5.416 72.3658 4.76 73.0698 4.312C73.7844 3.864 74.5844 3.64 75.4698 3.64C76.3658 3.64 77.1658 3.864 77.8698 4.312C78.5738 4.76 79.1284 5.416 79.5338 6.28C79.9498 7.13333 80.1578 8.17333 80.1578 9.4C80.1578 10.6267 79.9498 11.672 79.5338 12.536C79.1284 13.3893 78.5738 14.04 77.8698 14.488C77.1658 14.936 76.3658 15.16 75.4698 15.16ZM75.4698 13.352C75.9924 13.352 76.4458 13.2133 76.8298 12.936C77.2138 12.648 77.5124 12.2107 77.7258 11.624C77.9498 11.0373 78.0618 10.296 78.0618 9.4C78.0618 8.49333 77.9498 7.752 77.7258 7.176C77.5124 6.58933 77.2138 6.15733 76.8298 5.88C76.4458 5.592 75.9924 5.448 75.4698 5.448C74.9684 5.448 74.5204 5.592 74.1258 5.88C73.7418 6.15733 73.4378 6.58933 73.2138 7.176C73.0004 7.752 72.8938 8.49333 72.8938 9.4C72.8938 10.296 73.0004 11.0373 73.2138 11.624C73.4378 12.2107 73.7418 12.648 74.1258 12.936C74.5204 13.2133 74.9684 13.352 75.4698 13.352ZM86.2354 15.16C85.35 15.16 84.55 14.936 83.8354 14.488C83.1314 14.04 82.5767 13.3893 82.1714 12.536C81.766 11.672 81.5634 10.6267 81.5634 9.4C81.5634 8.17333 81.766 7.13333 82.1714 6.28C82.5767 5.416 83.1314 4.76 83.8354 4.312C84.55 3.864 85.35 3.64 86.2354 3.64C87.1314 3.64 87.9314 3.864 88.6354 4.312C89.3394 4.76 89.894 5.416 90.2994 6.28C90.7154 7.13333 90.9234 8.17333 90.9234 9.4C90.9234 10.6267 90.7154 11.672 90.2994 12.536C89.894 13.3893 89.3394 14.04 88.6354 14.488C87.9314 14.936 87.1314 15.16 86.2354 15.16ZM86.2354 13.352C86.758 13.352 87.2114 13.2133 87.5954 12.936C87.9794 12.648 88.278 12.2107 88.4914 11.624C88.7154 11.0373 88.8274 10.296 88.8274 9.4C88.8274 8.49333 88.7154 7.752 88.4914 7.176C88.278 6.58933 87.9794 6.15733 87.5954 5.88C87.2114 5.592 86.758 5.448 86.2354 5.448C85.734 5.448 85.286 5.592 84.8914 5.88C84.5074 6.15733 84.2034 6.58933 83.9794 7.176C83.766 7.752 83.6594 8.49333 83.6594 9.4C83.6594 10.296 83.766 11.0373 83.9794 11.624C84.2034 12.2107 84.5074 12.648 84.8914 12.936C85.286 13.2133 85.734 13.352 86.2354 13.352ZM93.897 15L101.545 3.8H103.113L95.465 15H93.897ZM94.825 9.832C94.3023 9.832 93.8383 9.704 93.433 9.448C93.0277 9.192 92.713 8.83467 92.489 8.376C92.265 7.91733 92.153 7.37867 92.153 6.76C92.153 6.14133 92.265 5.60267 92.489 5.144C92.713 4.68533 93.0277 4.328 93.433 4.072C93.8383 3.816 94.3023 3.688 94.825 3.688C95.369 3.688 95.8383 3.816 96.233 4.072C96.6383 4.328 96.953 4.68533 97.177 5.144C97.401 5.60267 97.513 6.14133 97.513 6.76C97.513 7.37867 97.401 7.91733 97.177 8.376C96.953 8.83467 96.6383 9.192 96.233 9.448C95.8383 9.704 95.369 9.832 94.825 9.832ZM94.841 8.712C95.2677 8.712 95.5983 8.54667 95.833 8.216C96.0783 7.87467 96.201 7.38933 96.201 6.76C96.201 6.13067 96.0783 5.65067 95.833 5.32C95.5983 4.97867 95.2677 4.808 94.841 4.808C94.4143 4.808 94.073 4.97867 93.817 5.32C93.5717 5.66133 93.449 6.14133 93.449 6.76C93.449 7.37867 93.5717 7.85867 93.817 8.2C94.073 8.54133 94.4143 8.712 94.841 8.712ZM102.169 15.112C101.646 15.112 101.182 14.984 100.777 14.728C100.372 14.472 100.057 14.1147 99.833 13.656C99.609 13.1973 99.497 12.6587 99.497 12.04C99.497 11.4213 99.609 10.8827 99.833 10.424C100.057 9.96533 100.372 9.608 100.777 9.352C101.182 9.096 101.646 8.968 102.169 8.968C102.713 8.968 103.182 9.096 103.577 9.352C103.982 9.608 104.297 9.96533 104.521 10.424C104.745 10.8827 104.857 11.4213 104.857 12.04C104.857 12.6587 104.745 13.1973 104.521 13.656C104.297 14.1147 103.982 14.472 103.577 14.728C103.182 14.984 102.713 15.112 102.169 15.112ZM102.169 13.992C102.596 13.992 102.932 13.8213 103.177 13.48C103.422 13.1387 103.545 12.6587 103.545 12.04C103.545 11.4213 103.422 10.9413 103.177 10.6C102.932 10.2587 102.596 10.088 102.169 10.088C101.753 10.088 101.417 10.2587 101.161 10.6C100.916 10.9307 100.793 11.4107 100.793 12.04C100.793 12.6693 100.916 13.1547 101.161 13.496C101.417 13.8267 101.753 13.992 102.169 13.992ZM114.789 15.16C113.914 15.16 113.077 15.0373 112.277 14.792C111.477 14.536 110.842 14.2107 110.373 13.816L111.093 12.2C111.541 12.552 112.095 12.8453 112.757 13.08C113.418 13.3147 114.095 13.432 114.789 13.432C115.375 13.432 115.85 13.368 116.213 13.24C116.575 13.112 116.842 12.9413 117.013 12.728C117.183 12.504 117.269 12.2533 117.269 11.976C117.269 11.6347 117.146 11.3627 116.901 11.16C116.655 10.9467 116.335 10.7813 115.941 10.664C115.557 10.536 115.125 10.4187 114.645 10.312C114.175 10.2053 113.701 10.0827 113.221 9.944C112.751 9.79467 112.319 9.608 111.924 9.384C111.541 9.14933 111.226 8.84 110.981 8.456C110.735 8.072 110.613 7.58133 110.613 6.984C110.613 6.376 110.773 5.82133 111.093 5.32C111.423 4.808 111.919 4.40267 112.581 4.104C113.253 3.79467 114.101 3.64 115.125 3.64C115.797 3.64 116.463 3.72533 117.125 3.896C117.786 4.06667 118.362 4.312 118.852 4.632L118.197 6.248C117.695 5.94933 117.178 5.73067 116.645 5.592C116.111 5.44267 115.599 5.368 115.109 5.368C114.533 5.368 114.063 5.43733 113.701 5.576C113.349 5.71467 113.087 5.896 112.917 6.12C112.757 6.344 112.677 6.6 112.677 6.888C112.677 7.22933 112.794 7.50667 113.029 7.72C113.274 7.92267 113.589 8.08267 113.973 8.2C114.367 8.31733 114.805 8.43467 115.285 8.552C115.765 8.65867 116.239 8.78133 116.709 8.92C117.189 9.05867 117.621 9.24 118.005 9.464C118.399 9.688 118.714 9.992 118.949 10.376C119.194 10.76 119.317 11.2453 119.317 11.832C119.317 12.4293 119.151 12.984 118.821 13.496C118.501 13.9973 118.005 14.4027 117.333 14.712C116.661 15.0107 115.813 15.16 114.789 15.16ZM125.203 15.112C124.254 15.112 123.422 14.9253 122.707 14.552C122.003 14.168 121.454 13.6453 121.059 12.984C120.675 12.3227 120.483 11.5707 120.483 10.728C120.483 9.87467 120.67 9.12267 121.043 8.472C121.427 7.81067 121.95 7.29333 122.611 6.92C123.283 6.54667 124.046 6.36 124.899 6.36C125.731 6.36 126.472 6.54133 127.123 6.904C127.774 7.26667 128.286 7.77867 128.659 8.44C129.032 9.10133 129.219 9.88 129.219 10.776C129.219 10.8613 129.214 10.9573 129.203 11.064C129.203 11.1707 129.198 11.272 129.187 11.368H122.067V10.04H128.131L127.347 10.456C127.358 9.96533 127.256 9.53333 127.043 9.16C126.83 8.78667 126.536 8.49333 126.163 8.28C125.8 8.06667 125.379 7.96 124.899 7.96C124.408 7.96 123.976 8.06667 123.603 8.28C123.24 8.49333 122.952 8.792 122.739 9.176C122.536 9.54933 122.435 9.992 122.435 10.504V10.824C122.435 11.336 122.552 11.7893 122.787 12.184C123.022 12.5787 123.352 12.8827 123.779 13.096C124.206 13.3093 124.696 13.416 125.251 13.416C125.731 13.416 126.163 13.3413 126.547 13.192C126.931 13.0427 127.272 12.808 127.571 12.488L128.643 13.72C128.259 14.168 127.774 14.5147 127.187 14.76C126.611 14.9947 125.95 15.112 125.203 15.112ZM135.06 15.112C134.164 15.112 133.364 14.9253 132.66 14.552C131.967 14.168 131.423 13.6453 131.028 12.984C130.633 12.3227 130.436 11.5707 130.436 10.728C130.436 9.87467 130.633 9.12267 131.028 8.472C131.423 7.81067 131.967 7.29333 132.66 6.92C133.364 6.54667 134.164 6.36 135.06 6.36C135.892 6.36 136.623 6.53067 137.252 6.872C137.892 7.20267 138.377 7.69333 138.708 8.344L137.172 9.24C136.916 8.83467 136.601 8.536 136.228 8.344C135.865 8.152 135.471 8.056 135.044 8.056C134.553 8.056 134.111 8.16267 133.716 8.376C133.321 8.58933 133.012 8.89867 132.788 9.304C132.564 9.69867 132.452 10.1733 132.452 10.728C132.452 11.2827 132.564 11.7627 132.788 12.168C133.012 12.5627 133.321 12.8667 133.716 13.08C134.111 13.2933 134.553 13.4 135.044 13.4C135.471 13.4 135.865 13.304 136.228 13.112C136.601 12.92 136.916 12.6213 137.172 12.216L138.708 13.112C138.377 13.752 137.892 14.248 137.252 14.6C136.623 14.9413 135.892 15.112 135.06 15.112ZM144.053 15.112C143.328 15.112 142.688 14.9787 142.133 14.712C141.578 14.4347 141.146 14.0187 140.837 13.464C140.528 12.8987 140.373 12.1893 140.373 11.336V6.456H142.373V11.064C142.373 11.832 142.544 12.408 142.885 12.792C143.237 13.1653 143.733 13.352 144.373 13.352C144.842 13.352 145.248 13.256 145.589 13.064C145.941 12.872 146.213 12.584 146.405 12.2C146.608 11.816 146.709 11.3413 146.709 10.776V6.456H148.709V15H146.805V12.696L147.141 13.4C146.853 13.9547 146.432 14.3813 145.877 14.68C145.322 14.968 144.714 15.112 144.053 15.112ZM151.328 15V6.456H153.232V8.808L153.008 8.12C153.264 7.544 153.664 7.10667 154.208 6.808C154.762 6.50933 155.45 6.36 156.272 6.36V8.264C156.186 8.24267 156.106 8.232 156.032 8.232C155.957 8.22133 155.882 8.216 155.808 8.216C155.05 8.216 154.448 8.44 154 8.888C153.552 9.32533 153.328 9.98133 153.328 10.856V15H151.328ZM161.906 15.112C160.957 15.112 160.125 14.9253 159.41 14.552C158.706 14.168 158.157 13.6453 157.762 12.984C157.378 12.3227 157.186 11.5707 157.186 10.728C157.186 9.87467 157.373 9.12267 157.746 8.472C158.13 7.81067 158.653 7.29333 159.314 6.92C159.986 6.54667 160.749 6.36 161.602 6.36C162.434 6.36 163.175 6.54133 163.826 6.904C164.477 7.26667 164.989 7.77867 165.362 8.44C165.735 9.10133 165.922 9.88 165.922 10.776C165.922 10.8613 165.917 10.9573 165.906 11.064C165.906 11.1707 165.901 11.272 165.89 11.368H158.77V10.04H164.834L164.05 10.456C164.061 9.96533 163.959 9.53333 163.746 9.16C163.533 8.78667 163.239 8.49333 162.866 8.28C162.503 8.06667 162.082 7.96 161.602 7.96C161.111 7.96 160.679 8.06667 160.306 8.28C159.943 8.49333 159.655 8.792 159.442 9.176C159.239 9.54933 159.138 9.992 159.138 10.504V10.824C159.138 11.336 159.255 11.7893 159.49 12.184C159.725 12.5787 160.055 12.8827 160.482 13.096C160.909 13.3093 161.399 13.416 161.954 13.416C162.434 13.416 162.866 13.3413 163.25 13.192C163.634 13.0427 163.975 12.808 164.274 12.488L165.346 13.72C164.962 14.168 164.477 14.5147 163.89 14.76C163.314 14.9947 162.653 15.112 161.906 15.112ZM172.457 15V3.8H177.065C178.057 3.8 178.905 3.96 179.609 4.28C180.324 4.6 180.873 5.05867 181.257 5.656C181.641 6.25333 181.833 6.96267 181.833 7.784C181.833 8.60533 181.641 9.31467 181.257 9.912C180.873 10.5093 180.324 10.968 179.609 11.288C178.905 11.608 178.057 11.768 177.065 11.768H173.609L174.537 10.792V15H172.457ZM174.537 11.016L173.609 10.008H176.969C177.886 10.008 178.574 9.816 179.033 9.432C179.502 9.03733 179.737 8.488 179.737 7.784C179.737 7.06933 179.502 6.52 179.033 6.136C178.574 5.752 177.886 5.56 176.969 5.56H173.609L174.537 4.536V11.016ZM188.904 15V13.272L188.792 12.904V9.88C188.792 9.29333 188.616 8.84 188.264 8.52C187.912 8.18933 187.379 8.024 186.664 8.024C186.184 8.024 185.709 8.09867 185.24 8.248C184.781 8.39733 184.392 8.60533 184.072 8.872L183.288 7.416C183.747 7.064 184.291 6.80267 184.92 6.632C185.56 6.45067 186.221 6.36 186.904 6.36C188.141 6.36 189.096 6.65867 189.768 7.256C190.451 7.84267 190.792 8.75467 190.792 9.992V15H188.904ZM186.216 15.112C185.576 15.112 185.016 15.0053 184.536 14.792C184.056 14.568 183.683 14.264 183.416 13.88C183.16 13.4853 183.032 13.0427 183.032 12.552C183.032 12.072 183.144 11.64 183.368 11.256C183.603 10.872 183.981 10.568 184.504 10.344C185.027 10.12 185.72 10.008 186.584 10.008H189.064V11.336H186.728C186.045 11.336 185.587 11.448 185.352 11.672C185.117 11.8853 185 12.152 185 12.472C185 12.8347 185.144 13.1227 185.432 13.336C185.72 13.5493 186.12 13.656 186.632 13.656C187.123 13.656 187.56 13.544 187.944 13.32C188.339 13.096 188.621 12.7653 188.792 12.328L189.128 13.528C188.936 14.0293 188.589 14.4187 188.088 14.696C187.597 14.9733 186.973 15.112 186.216 15.112ZM193.907 18.216C193.491 18.216 193.075 18.1467 192.659 18.008C192.243 17.8693 191.896 17.6773 191.619 17.432L192.419 15.96C192.621 16.1413 192.851 16.2853 193.107 16.392C193.363 16.4987 193.624 16.552 193.891 16.552C194.253 16.552 194.547 16.4613 194.771 16.28C194.995 16.0987 195.203 15.7947 195.395 15.368L195.891 14.248L196.051 14.008L199.283 6.456H201.203L197.203 15.688C196.936 16.328 196.637 16.8347 196.307 17.208C195.987 17.5813 195.624 17.8427 195.219 17.992C194.824 18.1413 194.387 18.216 193.907 18.216ZM195.667 15.304L191.811 6.456H193.891L197.027 13.832L195.667 15.304ZM213.237 6.36C213.919 6.36 214.522 6.49333 215.045 6.76C215.578 7.02667 215.994 7.43733 216.293 7.992C216.591 8.536 216.741 9.24 216.741 10.104V15H214.741V10.36C214.741 9.60267 214.575 9.03733 214.245 8.664C213.914 8.29067 213.439 8.104 212.821 8.104C212.383 8.104 211.994 8.2 211.653 8.392C211.322 8.584 211.061 8.86667 210.869 9.24C210.687 9.61333 210.597 10.088 210.597 10.664V15H208.597V10.36C208.597 9.60267 208.431 9.03733 208.101 8.664C207.77 8.29067 207.295 8.104 206.677 8.104C206.239 8.104 205.85 8.2 205.509 8.392C205.178 8.584 204.917 8.86667 204.725 9.24C204.543 9.61333 204.453 10.088 204.453 10.664V15H202.453V6.456H204.357V8.728L204.021 8.056C204.309 7.50133 204.725 7.08 205.269 6.792C205.823 6.504 206.453 6.36 207.157 6.36C207.957 6.36 208.65 6.55733 209.237 6.952C209.834 7.34667 210.229 7.944 210.421 8.744L209.637 8.472C209.914 7.832 210.373 7.32 211.013 6.936C211.653 6.552 212.394 6.36 213.237 6.36ZM223.328 15.112C222.379 15.112 221.547 14.9253 220.832 14.552C220.128 14.168 219.579 13.6453 219.184 12.984C218.8 12.3227 218.608 11.5707 218.608 10.728C218.608 9.87467 218.795 9.12267 219.168 8.472C219.552 7.81067 220.075 7.29333 220.736 6.92C221.408 6.54667 222.171 6.36 223.024 6.36C223.856 6.36 224.597 6.54133 225.248 6.904C225.899 7.26667 226.411 7.77867 226.784 8.44C227.157 9.10133 227.344 9.88 227.344 10.776C227.344 10.8613 227.339 10.9573 227.328 11.064C227.328 11.1707 227.323 11.272 227.312 11.368H220.192V10.04H226.256L225.472 10.456C225.483 9.96533 225.381 9.53333 225.168 9.16C224.955 8.78667 224.661 8.49333 224.288 8.28C223.925 8.06667 223.504 7.96 223.024 7.96C222.533 7.96 222.101 8.06667 221.728 8.28C221.365 8.49333 221.077 8.792 220.864 9.176C220.661 9.54933 220.56 9.992 220.56 10.504V10.824C220.56 11.336 220.677 11.7893 220.912 12.184C221.147 12.5787 221.477 12.8827 221.904 13.096C222.331 13.3093 222.821 13.416 223.376 13.416C223.856 13.416 224.288 13.3413 224.672 13.192C225.056 13.0427 225.397 12.808 225.696 12.488L226.768 13.72C226.384 14.168 225.899 14.5147 225.312 14.76C224.736 14.9947 224.075 15.112 223.328 15.112ZM234.113 6.36C234.796 6.36 235.404 6.49333 235.937 6.76C236.481 7.02667 236.908 7.43733 237.217 7.992C237.526 8.536 237.681 9.24 237.681 10.104V15H235.681V10.36C235.681 9.60267 235.5 9.03733 235.137 8.664C234.785 8.29067 234.289 8.104 233.649 8.104C233.18 8.104 232.764 8.2 232.401 8.392C232.038 8.584 231.756 8.872 231.553 9.256C231.361 9.62933 231.265 10.104 231.265 10.68V15H229.265V6.456H231.169V8.76L230.833 8.056C231.132 7.512 231.564 7.096 232.129 6.808C232.705 6.50933 233.366 6.36 234.113 6.36ZM243.434 15.112C242.496 15.112 241.77 14.872 241.258 14.392C240.746 13.9013 240.49 13.1813 240.49 12.232V4.568H242.49V12.184C242.49 12.5893 242.592 12.904 242.794 13.128C243.008 13.352 243.301 13.464 243.674 13.464C244.122 13.464 244.496 13.3467 244.794 13.112L245.354 14.536C245.12 14.728 244.832 14.872 244.49 14.968C244.149 15.064 243.797 15.112 243.434 15.112ZM239.082 8.12V6.52H244.778V8.12H239.082Z" fill="#1A1A1A"/>
<path d="M67.822 43L64.518 33.2H65.582L68.676 42.426H68.144L71.336 33.2H72.288L75.438 42.426H74.934L78.056 33.2H79.05L75.746 43H74.654L71.644 34.25H71.924L68.9 43H67.822ZM83.301 43.07C82.5356 43.07 81.8636 42.9113 81.285 42.594C80.7063 42.2673 80.2536 41.824 79.927 41.264C79.6003 40.6947 79.437 40.046 79.437 39.318C79.437 38.59 79.591 37.946 79.899 37.386C80.2163 36.826 80.6456 36.3873 81.187 36.07C81.7376 35.7433 82.3536 35.58 83.035 35.58C83.7256 35.58 84.337 35.7387 84.869 36.056C85.4103 36.364 85.835 36.8027 86.143 37.372C86.451 37.932 86.605 38.5807 86.605 39.318C86.605 39.3647 86.6003 39.416 86.591 39.472C86.591 39.5187 86.591 39.57 86.591 39.626H80.193V38.884H86.059L85.667 39.178C85.667 38.646 85.5503 38.1747 85.317 37.764C85.093 37.344 84.785 37.0173 84.393 36.784C84.001 36.5507 83.5483 36.434 83.035 36.434C82.531 36.434 82.0783 36.5507 81.677 36.784C81.2756 37.0173 80.963 37.344 80.739 37.764C80.515 38.184 80.403 38.6647 80.403 39.206V39.36C80.403 39.92 80.5243 40.4147 80.767 40.844C81.019 41.264 81.3643 41.5953 81.803 41.838C82.251 42.0713 82.7596 42.188 83.329 42.188C83.777 42.188 84.1923 42.1087 84.575 41.95C84.967 41.7913 85.303 41.5487 85.583 41.222L86.143 41.866C85.8163 42.258 85.4056 42.5567 84.911 42.762C84.4256 42.9673 83.889 43.07 83.301 43.07ZM95.4143 43.07C94.6489 43.07 93.9769 42.9113 93.3983 42.594C92.8196 42.2673 92.3669 41.824 92.0403 41.264C91.7136 40.6947 91.5503 40.046 91.5503 39.318C91.5503 38.59 91.7043 37.946 92.0123 37.386C92.3296 36.826 92.7589 36.3873 93.3003 36.07C93.8509 35.7433 94.4669 35.58 95.1483 35.58C95.8389 35.58 96.4503 35.7387 96.9823 36.056C97.5236 36.364 97.9483 36.8027 98.2563 37.372C98.5643 37.932 98.7183 38.5807 98.7183 39.318C98.7183 39.3647 98.7136 39.416 98.7043 39.472C98.7043 39.5187 98.7043 39.57 98.7043 39.626H92.3063V38.884H98.1723L97.7803 39.178C97.7803 38.646 97.6636 38.1747 97.4303 37.764C97.2063 37.344 96.8983 37.0173 96.5063 36.784C96.1143 36.5507 95.6616 36.434 95.1483 36.434C94.6443 36.434 94.1916 36.5507 93.7903 36.784C93.3889 37.0173 93.0763 37.344 92.8523 37.764C92.6283 38.184 92.5163 38.6647 92.5163 39.206V39.36C92.5163 39.92 92.6376 40.4147 92.8803 40.844C93.1323 41.264 93.4776 41.5953 93.9163 41.838C94.3643 42.0713 94.8729 42.188 95.4423 42.188C95.8903 42.188 96.3056 42.1087 96.6883 41.95C97.0803 41.7913 97.4163 41.5487 97.6963 41.222L98.2563 41.866C97.9296 42.258 97.5189 42.5567 97.0243 42.762C96.5389 42.9673 96.0023 43.07 95.4143 43.07ZM104.493 35.58C105.091 35.58 105.613 35.6967 106.061 35.93C106.519 36.154 106.873 36.4993 107.125 36.966C107.387 37.4327 107.517 38.0207 107.517 38.73V43H106.523V38.828C106.523 38.0533 106.327 37.47 105.935 37.078C105.553 36.6767 105.011 36.476 104.311 36.476C103.789 36.476 103.331 36.5833 102.939 36.798C102.557 37.0033 102.258 37.3067 102.043 37.708C101.838 38.1 101.735 38.576 101.735 39.136V43H100.741V35.65H101.693V37.666L101.539 37.288C101.773 36.756 102.146 36.3407 102.659 36.042C103.173 35.734 103.784 35.58 104.493 35.58ZM112.176 43.07C111.57 43.07 110.996 42.986 110.454 42.818C109.913 42.6407 109.488 42.4213 109.18 42.16L109.628 41.376C109.927 41.6 110.31 41.796 110.776 41.964C111.243 42.1227 111.733 42.202 112.246 42.202C112.946 42.202 113.45 42.0947 113.758 41.88C114.066 41.656 114.22 41.362 114.22 40.998C114.22 40.7273 114.132 40.5173 113.954 40.368C113.786 40.2093 113.562 40.0927 113.282 40.018C113.002 39.934 112.69 39.864 112.344 39.808C111.999 39.752 111.654 39.6867 111.308 39.612C110.972 39.5373 110.664 39.43 110.384 39.29C110.104 39.1407 109.876 38.94 109.698 38.688C109.53 38.436 109.446 38.1 109.446 37.68C109.446 37.2787 109.558 36.9193 109.782 36.602C110.006 36.2847 110.333 36.0373 110.762 35.86C111.201 35.6733 111.733 35.58 112.358 35.58C112.834 35.58 113.31 35.6453 113.786 35.776C114.262 35.8973 114.654 36.0607 114.962 36.266L114.528 37.064C114.202 36.84 113.852 36.6813 113.478 36.588C113.105 36.4853 112.732 36.434 112.358 36.434C111.696 36.434 111.206 36.5507 110.888 36.784C110.58 37.008 110.426 37.2973 110.426 37.652C110.426 37.932 110.51 38.1513 110.678 38.31C110.856 38.4687 111.084 38.5947 111.364 38.688C111.654 38.772 111.966 38.842 112.302 38.898C112.648 38.954 112.988 39.024 113.324 39.108C113.67 39.1827 113.982 39.29 114.262 39.43C114.552 39.5607 114.78 39.752 114.948 40.004C115.126 40.2467 115.214 40.5687 115.214 40.97C115.214 41.3993 115.093 41.7727 114.85 42.09C114.617 42.398 114.272 42.6407 113.814 42.818C113.366 42.986 112.82 43.07 112.176 43.07ZM120.076 43.07C119.451 43.07 118.905 42.9533 118.438 42.72C117.972 42.4867 117.608 42.1367 117.346 41.67C117.094 41.2033 116.968 40.62 116.968 39.92V35.65H117.962V39.808C117.962 40.592 118.154 41.1847 118.536 41.586C118.928 41.978 119.474 42.174 120.174 42.174C120.688 42.174 121.131 42.0713 121.504 41.866C121.887 41.6513 122.176 41.3433 122.372 40.942C122.578 40.5407 122.68 40.06 122.68 39.5V35.65H123.674V43H122.722V40.984L122.876 41.348C122.643 41.8893 122.279 42.314 121.784 42.622C121.299 42.9207 120.73 43.07 120.076 43.07ZM126.445 43V35.65H127.397V37.652L127.299 37.302C127.504 36.742 127.849 36.3173 128.335 36.028C128.82 35.7293 129.422 35.58 130.141 35.58V36.546C130.103 36.546 130.066 36.546 130.029 36.546C129.991 36.5367 129.954 36.532 129.917 36.532C129.142 36.532 128.535 36.77 128.097 37.246C127.658 37.7127 127.439 38.38 127.439 39.248V43H126.445ZM135.008 43.07C134.243 43.07 133.571 42.9113 132.992 42.594C132.413 42.2673 131.961 41.824 131.634 41.264C131.307 40.6947 131.144 40.046 131.144 39.318C131.144 38.59 131.298 37.946 131.606 37.386C131.923 36.826 132.353 36.3873 132.894 36.07C133.445 35.7433 134.061 35.58 134.742 35.58C135.433 35.58 136.044 35.7387 136.576 36.056C137.117 36.364 137.542 36.8027 137.85 37.372C138.158 37.932 138.312 38.5807 138.312 39.318C138.312 39.3647 138.307 39.416 138.298 39.472C138.298 39.5187 138.298 39.57 138.298 39.626H131.9V38.884H137.766L137.374 39.178C137.374 38.646 137.257 38.1747 137.024 37.764C136.8 37.344 136.492 37.0173 136.1 36.784C135.708 36.5507 135.255 36.434 134.742 36.434C134.238 36.434 133.785 36.5507 133.384 36.784C132.983 37.0173 132.67 37.344 132.446 37.764C132.222 38.184 132.11 38.6647 132.11 39.206V39.36C132.11 39.92 132.231 40.4147 132.474 40.844C132.726 41.264 133.071 41.5953 133.51 41.838C133.958 42.0713 134.467 42.188 135.036 42.188C135.484 42.188 135.899 42.1087 136.282 41.95C136.674 41.7913 137.01 41.5487 137.29 41.222L137.85 41.866C137.523 42.258 137.113 42.5567 136.618 42.762C136.133 42.9673 135.596 43.07 135.008 43.07ZM144.055 45.786C143.71 45.786 143.379 45.73 143.061 45.618C142.753 45.506 142.487 45.338 142.263 45.114L142.725 44.372C142.912 44.5493 143.113 44.6847 143.327 44.778C143.551 44.8807 143.799 44.932 144.069 44.932C144.396 44.932 144.676 44.8387 144.909 44.652C145.152 44.4747 145.381 44.1573 145.595 43.7L146.071 42.622L146.183 42.468L149.207 35.65H150.187L146.505 43.882C146.3 44.358 146.071 44.736 145.819 45.016C145.577 45.296 145.311 45.492 145.021 45.604C144.732 45.7253 144.41 45.786 144.055 45.786ZM146.015 43.21L142.627 35.65H143.663L146.659 42.398L146.015 43.21ZM154.378 43.07C153.669 43.07 153.029 42.9113 152.46 42.594C151.9 42.2673 151.457 41.824 151.13 41.264C150.803 40.6947 150.64 40.046 150.64 39.318C150.64 38.5807 150.803 37.932 151.13 37.372C151.457 36.812 151.9 36.3733 152.46 36.056C153.02 35.7387 153.659 35.58 154.378 35.58C155.106 35.58 155.75 35.7387 156.31 36.056C156.879 36.3733 157.323 36.812 157.64 37.372C157.967 37.932 158.13 38.5807 158.13 39.318C158.13 40.046 157.967 40.6947 157.64 41.264C157.323 41.824 156.879 42.2673 156.31 42.594C155.741 42.9113 155.097 43.07 154.378 43.07ZM154.378 42.188C154.91 42.188 155.381 42.0713 155.792 41.838C156.203 41.5953 156.525 41.2593 156.758 40.83C157.001 40.3913 157.122 39.8873 157.122 39.318C157.122 38.7393 157.001 38.2353 156.758 37.806C156.525 37.3767 156.203 37.0453 155.792 36.812C155.381 36.5693 154.915 36.448 154.392 36.448C153.869 36.448 153.403 36.5693 152.992 36.812C152.581 37.0453 152.255 37.3767 152.012 37.806C151.769 38.2353 151.648 38.7393 151.648 39.318C151.648 39.8873 151.769 40.3913 152.012 40.83C152.255 41.2593 152.581 41.5953 152.992 41.838C153.403 42.0713 153.865 42.188 154.378 42.188ZM163.197 43.07C162.572 43.07 162.026 42.9533 161.559 42.72C161.093 42.4867 160.729 42.1367 160.467 41.67C160.215 41.2033 160.089 40.62 160.089 39.92V35.65H161.083V39.808C161.083 40.592 161.275 41.1847 161.657 41.586C162.049 41.978 162.595 42.174 163.295 42.174C163.809 42.174 164.252 42.0713 164.625 41.866C165.008 41.6513 165.297 41.3433 165.493 40.942C165.699 40.5407 165.801 40.06 165.801 39.5V35.65H166.795V43H165.843V40.984L165.997 41.348C165.764 41.8893 165.4 42.314 164.905 42.622C164.42 42.9207 163.851 43.07 163.197 43.07ZM169.566 43V35.65H170.518V37.652L170.42 37.302C170.625 36.742 170.97 36.3173 171.456 36.028C171.941 35.7293 172.543 35.58 173.262 35.58V36.546C173.224 36.546 173.187 36.546 173.15 36.546C173.112 36.5367 173.075 36.532 173.038 36.532C172.263 36.532 171.656 36.77 171.218 37.246C170.779 37.7127 170.56 38.38 170.56 39.248V43H169.566ZM188.033 35.58C188.63 35.58 189.148 35.6967 189.587 35.93C190.035 36.154 190.38 36.4993 190.623 36.966C190.875 37.4327 191.001 38.0207 191.001 38.73V43H190.007V38.828C190.007 38.0533 189.82 37.47 189.447 37.078C189.083 36.6767 188.565 36.476 187.893 36.476C187.389 36.476 186.95 36.5833 186.577 36.798C186.213 37.0033 185.928 37.3067 185.723 37.708C185.527 38.1 185.429 38.576 185.429 39.136V43H184.435V38.828C184.435 38.0533 184.248 37.47 183.875 37.078C183.502 36.6767 182.979 36.476 182.307 36.476C181.812 36.476 181.378 36.5833 181.005 36.798C180.632 37.0033 180.342 37.3067 180.137 37.708C179.941 38.1 179.843 38.576 179.843 39.136V43H178.849V35.65H179.801V37.638L179.647 37.288C179.871 36.756 180.23 36.3407 180.725 36.042C181.229 35.734 181.822 35.58 182.503 35.58C183.222 35.58 183.833 35.762 184.337 36.126C184.841 36.4807 185.168 37.0173 185.317 37.736L184.925 37.582C185.14 36.9847 185.518 36.504 186.059 36.14C186.61 35.7667 187.268 35.58 188.033 35.58ZM196.693 43.07C195.983 43.07 195.344 42.9113 194.775 42.594C194.215 42.2673 193.771 41.824 193.445 41.264C193.118 40.6947 192.955 40.046 192.955 39.318C192.955 38.5807 193.118 37.932 193.445 37.372C193.771 36.812 194.215 36.3733 194.775 36.056C195.335 35.7387 195.974 35.58 196.693 35.58C197.421 35.58 198.065 35.7387 198.625 36.056C199.194 36.3733 199.637 36.812 199.955 37.372C200.281 37.932 200.445 38.5807 200.445 39.318C200.445 40.046 200.281 40.6947 199.955 41.264C199.637 41.824 199.194 42.2673 198.625 42.594C198.055 42.9113 197.411 43.07 196.693 43.07ZM196.693 42.188C197.225 42.188 197.696 42.0713 198.107 41.838C198.517 41.5953 198.839 41.2593 199.073 40.83C199.315 40.3913 199.437 39.8873 199.437 39.318C199.437 38.7393 199.315 38.2353 199.073 37.806C198.839 37.3767 198.517 37.0453 198.107 36.812C197.696 36.5693 197.229 36.448 196.707 36.448C196.184 36.448 195.717 36.5693 195.307 36.812C194.896 37.0453 194.569 37.3767 194.327 37.806C194.084 38.2353 193.963 38.7393 193.963 39.318C193.963 39.8873 194.084 40.3913 194.327 40.83C194.569 41.2593 194.896 41.5953 195.307 41.838C195.717 42.0713 196.179 42.188 196.693 42.188ZM206.226 35.58C206.823 35.58 207.346 35.6967 207.794 35.93C208.251 36.154 208.606 36.4993 208.858 36.966C209.119 37.4327 209.25 38.0207 209.25 38.73V43H208.256V38.828C208.256 38.0533 208.06 37.47 207.668 37.078C207.285 36.6767 206.744 36.476 206.044 36.476C205.521 36.476 205.064 36.5833 204.672 36.798C204.289 37.0033 203.991 37.3067 203.776 37.708C203.571 38.1 203.468 38.576 203.468 39.136V43H202.474V35.65H203.426V37.666L203.272 37.288C203.505 36.756 203.879 36.3407 204.392 36.042C204.905 35.734 205.517 35.58 206.226 35.58ZM215.057 43.07C214.291 43.07 213.619 42.9113 213.041 42.594C212.462 42.2673 212.009 41.824 211.683 41.264C211.356 40.6947 211.193 40.046 211.193 39.318C211.193 38.59 211.347 37.946 211.655 37.386C211.972 36.826 212.401 36.3873 212.943 36.07C213.493 35.7433 214.109 35.58 214.791 35.58C215.481 35.58 216.093 35.7387 216.625 36.056C217.166 36.364 217.591 36.8027 217.899 37.372C218.207 37.932 218.361 38.5807 218.361 39.318C218.361 39.3647 218.356 39.416 218.347 39.472C218.347 39.5187 218.347 39.57 218.347 39.626H211.949V38.884H217.815L217.423 39.178C217.423 38.646 217.306 38.1747 217.073 37.764C216.849 37.344 216.541 37.0173 216.149 36.784C215.757 36.5507 215.304 36.434 214.791 36.434C214.287 36.434 213.834 36.5507 213.433 36.784C213.031 37.0173 212.719 37.344 212.495 37.764C212.271 38.184 212.159 38.6647 212.159 39.206V39.36C212.159 39.92 212.28 40.4147 212.523 40.844C212.775 41.264 213.12 41.5953 213.559 41.838C214.007 42.0713 214.515 42.188 215.085 42.188C215.533 42.188 215.948 42.1087 216.331 41.95C216.723 41.7913 217.059 41.5487 217.339 41.222L217.899 41.866C217.572 42.258 217.161 42.5567 216.667 42.762C216.181 42.9673 215.645 43.07 215.057 43.07ZM220.303 45.786C219.958 45.786 219.627 45.73 219.309 45.618C219.001 45.506 218.735 45.338 218.511 45.114L218.973 44.372C219.16 44.5493 219.361 44.6847 219.575 44.778C219.799 44.8807 220.047 44.932 220.317 44.932C220.644 44.932 220.924 44.8387 221.157 44.652C221.4 44.4747 221.629 44.1573 221.843 43.7L222.319 42.622L222.431 42.468L225.455 35.65H226.435L222.753 43.882C222.548 44.358 222.319 44.736 222.067 45.016C221.825 45.296 221.559 45.492 221.269 45.604C220.98 45.7253 220.658 45.786 220.303 45.786ZM222.263 43.21L218.875 35.65H219.911L222.907 42.398L222.263 43.21ZM231.499 43V35.65H232.493V43H231.499ZM232.003 34.026C231.798 34.026 231.625 33.956 231.485 33.816C231.345 33.676 231.275 33.508 231.275 33.312C231.275 33.116 231.345 32.9527 231.485 32.822C231.625 32.682 231.798 32.612 232.003 32.612C232.209 32.612 232.381 32.6773 232.521 32.808C232.661 32.9387 232.731 33.102 232.731 33.298C232.731 33.5033 232.661 33.676 232.521 33.816C232.391 33.956 232.218 34.026 232.003 34.026ZM237.233 43.07C236.626 43.07 236.052 42.986 235.511 42.818C234.97 42.6407 234.545 42.4213 234.237 42.16L234.685 41.376C234.984 41.6 235.366 41.796 235.833 41.964C236.3 42.1227 236.79 42.202 237.303 42.202C238.003 42.202 238.507 42.0947 238.815 41.88C239.123 41.656 239.277 41.362 239.277 40.998C239.277 40.7273 239.188 40.5173 239.011 40.368C238.843 40.2093 238.619 40.0927 238.339 40.018C238.059 39.934 237.746 39.864 237.401 39.808C237.056 39.752 236.71 39.6867 236.365 39.612C236.029 39.5373 235.721 39.43 235.441 39.29C235.161 39.1407 234.932 38.94 234.755 38.688C234.587 38.436 234.503 38.1 234.503 37.68C234.503 37.2787 234.615 36.9193 234.839 36.602C235.063 36.2847 235.39 36.0373 235.819 35.86C236.258 35.6733 236.79 35.58 237.415 35.58C237.891 35.58 238.367 35.6453 238.843 35.776C239.319 35.8973 239.711 36.0607 240.019 36.266L239.585 37.064C239.258 36.84 238.908 36.6813 238.535 36.588C238.162 36.4853 237.788 36.434 237.415 36.434C236.752 36.434 236.262 36.5507 235.945 36.784C235.637 37.008 235.483 37.2973 235.483 37.652C235.483 37.932 235.567 38.1513 235.735 38.31C235.912 38.4687 236.141 38.5947 236.421 38.688C236.71 38.772 237.023 38.842 237.359 38.898C237.704 38.954 238.045 39.024 238.381 39.108C238.726 39.1827 239.039 39.29 239.319 39.43C239.608 39.5607 239.837 39.752 240.005 40.004C240.182 40.2467 240.271 40.5687 240.271 40.97C240.271 41.3993 240.15 41.7727 239.907 42.09C239.674 42.398 239.328 42.6407 238.871 42.818C238.423 42.986 237.877 43.07 237.233 43.07ZM247.733 43.07C247.126 43.07 246.552 42.986 246.011 42.818C245.47 42.6407 245.045 42.4213 244.737 42.16L245.185 41.376C245.484 41.6 245.866 41.796 246.333 41.964C246.8 42.1227 247.29 42.202 247.803 42.202C248.503 42.202 249.007 42.0947 249.315 41.88C249.623 41.656 249.777 41.362 249.777 40.998C249.777 40.7273 249.688 40.5173 249.511 40.368C249.343 40.2093 249.119 40.0927 248.839 40.018C248.559 39.934 248.246 39.864 247.901 39.808C247.556 39.752 247.21 39.6867 246.865 39.612C246.529 39.5373 246.221 39.43 245.941 39.29C245.661 39.1407 245.432 38.94 245.255 38.688C245.087 38.436 245.003 38.1 245.003 37.68C245.003 37.2787 245.115 36.9193 245.339 36.602C245.563 36.2847 245.89 36.0373 246.319 35.86C246.758 35.6733 247.29 35.58 247.915 35.58C248.391 35.58 248.867 35.6453 249.343 35.776C249.819 35.8973 250.211 36.0607 250.519 36.266L250.085 37.064C249.758 36.84 249.408 36.6813 249.035 36.588C248.662 36.4853 248.288 36.434 247.915 36.434C247.252 36.434 246.762 36.5507 246.445 36.784C246.137 37.008 245.983 37.2973 245.983 37.652C245.983 37.932 246.067 38.1513 246.235 38.31C246.412 38.4687 246.641 38.5947 246.921 38.688C247.21 38.772 247.523 38.842 247.859 38.898C248.204 38.954 248.545 39.024 248.881 39.108C249.226 39.1827 249.539 39.29 249.819 39.43C250.108 39.5607 250.337 39.752 250.505 40.004C250.682 40.2467 250.771 40.5687 250.771 40.97C250.771 41.3993 250.65 41.7727 250.407 42.09C250.174 42.398 249.828 42.6407 249.371 42.818C248.923 42.986 248.377 43.07 247.733 43.07ZM257.201 43V41.376L257.159 41.11V38.394C257.159 37.7687 256.982 37.288 256.627 36.952C256.282 36.616 255.764 36.448 255.073 36.448C254.597 36.448 254.144 36.5273 253.715 36.686C253.286 36.8447 252.922 37.0547 252.623 37.316L252.175 36.574C252.548 36.2567 252.996 36.014 253.519 35.846C254.042 35.6687 254.592 35.58 255.171 35.58C256.123 35.58 256.856 35.818 257.369 36.294C257.892 36.7607 258.153 37.4747 258.153 38.436V43H257.201ZM254.667 43.07C254.116 43.07 253.636 42.9813 253.225 42.804C252.824 42.6173 252.516 42.3653 252.301 42.048C252.086 41.7213 251.979 41.348 251.979 40.928C251.979 40.5453 252.068 40.2 252.245 39.892C252.432 39.5747 252.73 39.3227 253.141 39.136C253.561 38.94 254.121 38.842 254.821 38.842H257.355V39.584H254.849C254.14 39.584 253.645 39.71 253.365 39.962C253.094 40.214 252.959 40.5267 252.959 40.9C252.959 41.32 253.122 41.656 253.449 41.908C253.776 42.16 254.233 42.286 254.821 42.286C255.381 42.286 255.862 42.16 256.263 41.908C256.674 41.6467 256.972 41.2733 257.159 40.788L257.383 41.474C257.196 41.9593 256.87 42.3467 256.403 42.636C255.946 42.9253 255.367 43.07 254.667 43.07ZM262.606 43L259.344 35.65H260.38L263.376 42.468H262.886L265.924 35.65H266.904L263.628 43H262.606ZM271.221 43.07C270.456 43.07 269.784 42.9113 269.205 42.594C268.626 42.2673 268.174 41.824 267.847 41.264C267.52 40.6947 267.357 40.046 267.357 39.318C267.357 38.59 267.511 37.946 267.819 37.386C268.136 36.826 268.566 36.3873 269.107 36.07C269.658 35.7433 270.274 35.58 270.955 35.58C271.646 35.58 272.257 35.7387 272.789 36.056C273.33 36.364 273.755 36.8027 274.063 37.372C274.371 37.932 274.525 38.5807 274.525 39.318C274.525 39.3647 274.52 39.416 274.511 39.472C274.511 39.5187 274.511 39.57 274.511 39.626H268.113V38.884H273.979L273.587 39.178C273.587 38.646 273.47 38.1747 273.237 37.764C273.013 37.344 272.705 37.0173 272.313 36.784C271.921 36.5507 271.468 36.434 270.955 36.434C270.451 36.434 269.998 36.5507 269.597 36.784C269.196 37.0173 268.883 37.344 268.659 37.764C268.435 38.184 268.323 38.6647 268.323 39.206V39.36C268.323 39.92 268.444 40.4147 268.687 40.844C268.939 41.264 269.284 41.5953 269.723 41.838C270.171 42.0713 270.68 42.188 271.249 42.188C271.697 42.188 272.112 42.1087 272.495 41.95C272.887 41.7913 273.223 41.5487 273.503 41.222L274.063 41.866C273.736 42.258 273.326 42.5567 272.831 42.762C272.346 42.9673 271.809 43.07 271.221 43.07Z" fill="#999999"/>
</svg>
