<svg width="252" height="44" viewBox="0 0 252 44" fill="none" xmlns="http://www.w3.org/2000/svg">
<path d="M13.9629 33.0869C12.8934 33.0869 12.0234 33.9569 12.0234 35.0264C12.0234 36.0959 12.8934 36.9659 13.9629 36.9659C15.0324 36.9659 15.9024 36.0959 15.9024 35.0264C15.9024 33.9569 15.0324 33.0869 13.9629 33.0869Z" fill="#272343"/>
<path d="M54.045 33.0869C52.9755 33.0869 52.1055 33.9569 52.1055 35.0264C52.1055 36.0959 52.9755 36.9659 54.045 36.9659C55.1145 36.9659 55.9845 36.0959 55.9845 35.0264C55.9845 33.9569 55.1145 33.0869 54.045 33.0869Z" fill="#272343"/>
<path d="M61.9886 20.6537L54.7706 18.2477L51.397 8.9705C50.9759 7.81237 49.865 7.03425 48.6326 7.03425H39.9516V4.96562C39.9516 3.89612 39.0816 3.02612 38.0121 3.02612H1.9395C0.87 3.02612 0 3.89625 0 4.96575V32.0202C0 33.0897 0.87 33.9597 1.9395 33.9597H8.11375C8.05075 34.306 8.01612 34.6621 8.01612 35.0262C8.01612 38.3057 10.6842 40.9739 13.9637 40.9739C17.2432 40.9739 19.9114 38.3057 19.9114 35.0262C19.9114 34.662 19.8767 34.306 19.8137 33.9597H48.1946C48.1316 34.306 48.097 34.6621 48.097 35.0262C48.097 38.3057 50.7651 40.9739 54.0446 40.9739C57.3241 40.9739 59.9922 38.3057 59.9922 35.0262C59.9922 34.563 59.9372 34.1125 59.8366 33.6795L61.8205 32.6876C63.1647 32.0152 64 30.6636 64 29.1602V23.4444C64 22.1764 63.1917 21.0549 61.9886 20.6537ZM1.875 4.96575C1.875 4.93012 1.90387 4.90112 1.9395 4.90112H38.0121C38.0477 4.90112 38.0766 4.93 38.0766 4.96562V25.0705H1.875V4.96575ZM13.9636 39.0989C11.718 39.0989 9.891 37.2719 9.891 35.0262C9.891 32.7806 11.718 30.9536 13.9636 30.9536C16.2092 30.9536 18.0362 32.7806 18.0362 35.0262C18.0364 37.2719 16.2094 39.0989 13.9636 39.0989ZM38.0766 32.0846H19.1297C18.1044 30.291 16.1735 29.0786 13.9636 29.0786C11.7537 29.0786 9.823 30.291 8.79762 32.0846H1.9395C1.90387 32.0846 1.875 32.0557 1.875 32.0201V26.9455H38.0766V32.0846ZM50.8372 12.9174L52.706 18.0565H50.693L48.8242 12.9174H50.8372ZM39.9516 8.90925H48.6326C49.0795 8.90925 49.4823 9.19137 49.635 9.61125L50.1554 11.0422H39.9516V8.90925ZM39.9516 12.9174H46.8291L48.6979 18.0565H39.9516V12.9174ZM54.0444 39.0989C51.7988 39.0989 49.9717 37.2719 49.9717 35.0262C49.9717 32.7806 51.7988 30.9536 54.0444 30.9536C56.29 30.9536 58.117 32.7806 58.117 35.0262C58.117 37.2719 56.29 39.0989 54.0444 39.0989ZM62.125 25.0704H61.0585C60.5407 25.0704 60.121 25.4901 60.121 26.0079C60.121 26.5256 60.5407 26.9454 61.0585 26.9454H62.125V29.1601C62.125 29.9489 61.6869 30.6577 60.9816 31.0105L59.1258 31.9384C58.0808 30.225 56.194 29.0786 54.0444 29.0786C51.8345 29.0786 49.9038 30.291 48.8784 32.0846H39.9516V26.9455H57.0505C57.5682 26.9455 57.988 26.5257 57.988 26.008C57.988 25.4902 57.5682 25.0705 57.0505 25.0705H39.9516V19.9314H53.8923L61.3957 22.4325C61.832 22.5779 62.125 22.9845 62.125 23.4442V25.0704Z" fill="#272343"/>
<path d="M31.4626 14.1717L24.4485 10.1637C23.9991 9.90683 23.4264 10.0631 23.1694 10.5126C22.9125 10.9622 23.0686 11.5348 23.5183 11.7917L27.4673 14.0483H8.95313C8.43538 14.0483 8.01562 14.4681 8.01562 14.9858C8.01562 15.5036 8.43538 15.9232 8.95313 15.9232H27.4673L23.5183 18.1798C23.0688 18.4367 22.9125 19.0093 23.1694 19.459C23.3424 19.7617 23.6588 19.9315 23.9843 19.9315C24.142 19.9315 24.3019 19.8916 24.4485 19.8077L31.4626 15.7997C31.7546 15.6328 31.935 15.3222 31.935 14.9857C31.935 14.6492 31.7548 14.3387 31.4626 14.1717Z" fill="#272343"/>
<path d="M83.51 9.858H90.008V11.406H83.51V9.858ZM83.69 16.5H81.89V3.9H90.782V5.466H83.69V16.5ZM92.888 16.5V6.96H94.544V9.552L94.382 8.904C94.646 8.244 95.09 7.74 95.714 7.392C96.338 7.044 97.106 6.87 98.018 6.87V8.544C97.946 8.532 97.874 8.526 97.802 8.526C97.742 8.526 97.682 8.526 97.622 8.526C96.698 8.526 95.966 8.802 95.426 9.354C94.886 9.906 94.616 10.704 94.616 11.748V16.5H92.888ZM104.308 16.608C103.288 16.608 102.388 16.398 101.608 15.978C100.84 15.558 100.24 14.982 99.8079 14.25C99.3879 13.518 99.1779 12.678 99.1779 11.73C99.1779 10.782 99.3819 9.942 99.7899 9.21C100.21 8.478 100.78 7.908 101.5 7.5C102.232 7.08 103.054 6.87 103.966 6.87C104.89 6.87 105.706 7.074 106.414 7.482C107.122 7.89 107.674 8.466 108.07 9.21C108.478 9.942 108.682 10.8 108.682 11.784C108.682 11.856 108.676 11.94 108.664 12.036C108.664 12.132 108.658 12.222 108.646 12.306H100.528V11.064H107.746L107.044 11.496C107.056 10.884 106.93 10.338 106.666 9.858C106.402 9.378 106.036 9.006 105.568 8.742C105.112 8.466 104.578 8.328 103.966 8.328C103.366 8.328 102.832 8.466 102.364 8.742C101.896 9.006 101.53 9.384 101.266 9.876C101.002 10.356 100.87 10.908 100.87 11.532V11.82C100.87 12.456 101.014 13.026 101.302 13.53C101.602 14.022 102.016 14.406 102.544 14.682C103.072 14.958 103.678 15.096 104.362 15.096C104.926 15.096 105.436 15 105.892 14.808C106.36 14.616 106.768 14.328 107.116 13.944L108.07 15.06C107.638 15.564 107.098 15.948 106.45 16.212C105.814 16.476 105.1 16.608 104.308 16.608ZM115.329 16.608C114.309 16.608 113.409 16.398 112.629 15.978C111.861 15.558 111.261 14.982 110.829 14.25C110.409 13.518 110.199 12.678 110.199 11.73C110.199 10.782 110.403 9.942 110.811 9.21C111.231 8.478 111.801 7.908 112.521 7.5C113.253 7.08 114.075 6.87 114.987 6.87C115.911 6.87 116.727 7.074 117.435 7.482C118.143 7.89 118.695 8.466 119.091 9.21C119.499 9.942 119.703 10.8 119.703 11.784C119.703 11.856 119.697 11.94 119.685 12.036C119.685 12.132 119.679 12.222 119.667 12.306H111.549V11.064H118.767L118.065 11.496C118.077 10.884 117.951 10.338 117.687 9.858C117.423 9.378 117.057 9.006 116.589 8.742C116.133 8.466 115.599 8.328 114.987 8.328C114.387 8.328 113.853 8.466 113.385 8.742C112.917 9.006 112.551 9.384 112.287 9.876C112.023 10.356 111.891 10.908 111.891 11.532V11.82C111.891 12.456 112.035 13.026 112.323 13.53C112.623 14.022 113.037 14.406 113.565 14.682C114.093 14.958 114.699 15.096 115.383 15.096C115.947 15.096 116.457 15 116.913 14.808C117.381 14.616 117.789 14.328 118.137 13.944L119.091 15.06C118.659 15.564 118.119 15.948 117.471 16.212C116.835 16.476 116.121 16.608 115.329 16.608ZM127.189 16.5V3.9H132.499C133.843 3.9 135.025 4.164 136.045 4.692C137.077 5.22 137.875 5.958 138.439 6.906C139.015 7.854 139.303 8.952 139.303 10.2C139.303 11.448 139.015 12.546 138.439 13.494C137.875 14.442 137.077 15.18 136.045 15.708C135.025 16.236 133.843 16.5 132.499 16.5H127.189ZM128.989 14.934H132.391C133.435 14.934 134.335 14.736 135.091 14.34C135.859 13.944 136.453 13.392 136.873 12.684C137.293 11.964 137.503 11.136 137.503 10.2C137.503 9.252 137.293 8.424 136.873 7.716C136.453 7.008 135.859 6.456 135.091 6.06C134.335 5.664 133.435 5.466 132.391 5.466H128.989V14.934ZM146.056 16.608C145.036 16.608 144.136 16.398 143.356 15.978C142.588 15.558 141.988 14.982 141.556 14.25C141.136 13.518 140.926 12.678 140.926 11.73C140.926 10.782 141.13 9.942 141.538 9.21C141.958 8.478 142.528 7.908 143.248 7.5C143.98 7.08 144.802 6.87 145.714 6.87C146.638 6.87 147.454 7.074 148.162 7.482C148.87 7.89 149.422 8.466 149.818 9.21C150.226 9.942 150.43 10.8 150.43 11.784C150.43 11.856 150.424 11.94 150.412 12.036C150.412 12.132 150.406 12.222 150.394 12.306H142.276V11.064H149.494L148.792 11.496C148.804 10.884 148.678 10.338 148.414 9.858C148.15 9.378 147.784 9.006 147.316 8.742C146.86 8.466 146.326 8.328 145.714 8.328C145.114 8.328 144.58 8.466 144.112 8.742C143.644 9.006 143.278 9.384 143.014 9.876C142.75 10.356 142.618 10.908 142.618 11.532V11.82C142.618 12.456 142.762 13.026 143.05 13.53C143.35 14.022 143.764 14.406 144.292 14.682C144.82 14.958 145.426 15.096 146.11 15.096C146.674 15.096 147.184 15 147.64 14.808C148.108 14.616 148.516 14.328 148.864 13.944L149.818 15.06C149.386 15.564 148.846 15.948 148.198 16.212C147.562 16.476 146.848 16.608 146.056 16.608ZM152.829 16.5V3.144H154.557V16.5H152.829ZM157.857 16.5V6.96H159.585V16.5H157.857ZM158.721 5.124C158.385 5.124 158.103 5.016 157.875 4.8C157.659 4.584 157.551 4.32 157.551 4.008C157.551 3.684 157.659 3.414 157.875 3.198C158.103 2.982 158.385 2.874 158.721 2.874C159.057 2.874 159.333 2.982 159.549 3.198C159.777 3.402 159.891 3.66 159.891 3.972C159.891 4.296 159.783 4.572 159.567 4.8C159.351 5.016 159.069 5.124 158.721 5.124ZM165.386 16.5L161.21 6.96H163.01L166.718 15.6H165.854L169.634 6.96H171.326L167.15 16.5H165.386ZM176.923 16.608C175.903 16.608 175.003 16.398 174.223 15.978C173.455 15.558 172.855 14.982 172.423 14.25C172.003 13.518 171.793 12.678 171.793 11.73C171.793 10.782 171.997 9.942 172.405 9.21C172.825 8.478 173.395 7.908 174.115 7.5C174.847 7.08 175.669 6.87 176.581 6.87C177.505 6.87 178.321 7.074 179.029 7.482C179.737 7.89 180.289 8.466 180.685 9.21C181.093 9.942 181.297 10.8 181.297 11.784C181.297 11.856 181.291 11.94 181.279 12.036C181.279 12.132 181.273 12.222 181.261 12.306H173.143V11.064H180.361L179.659 11.496C179.671 10.884 179.545 10.338 179.281 9.858C179.017 9.378 178.651 9.006 178.183 8.742C177.727 8.466 177.193 8.328 176.581 8.328C175.981 8.328 175.447 8.466 174.979 8.742C174.511 9.006 174.145 9.384 173.881 9.876C173.617 10.356 173.485 10.908 173.485 11.532V11.82C173.485 12.456 173.629 13.026 173.917 13.53C174.217 14.022 174.631 14.406 175.159 14.682C175.687 14.958 176.293 15.096 176.977 15.096C177.541 15.096 178.051 15 178.507 14.808C178.975 14.616 179.383 14.328 179.731 13.944L180.685 15.06C180.253 15.564 179.713 15.948 179.065 16.212C178.429 16.476 177.715 16.608 176.923 16.608ZM183.697 16.5V6.96H185.353V9.552L185.191 8.904C185.455 8.244 185.899 7.74 186.523 7.392C187.147 7.044 187.915 6.87 188.827 6.87V8.544C188.755 8.532 188.683 8.526 188.611 8.526C188.551 8.526 188.491 8.526 188.431 8.526C187.507 8.526 186.775 8.802 186.235 9.354C185.695 9.906 185.425 10.704 185.425 11.748V16.5H183.697ZM191.757 20.1C191.301 20.1 190.857 20.022 190.425 19.866C189.993 19.722 189.621 19.506 189.309 19.218L190.047 17.922C190.287 18.15 190.551 18.324 190.839 18.444C191.127 18.564 191.433 18.624 191.757 18.624C192.177 18.624 192.525 18.516 192.801 18.3C193.077 18.084 193.335 17.7 193.575 17.148L194.169 15.834L194.349 15.618L198.093 6.96H199.785L195.159 17.454C194.883 18.126 194.571 18.654 194.223 19.038C193.887 19.422 193.515 19.692 193.107 19.848C192.699 20.016 192.249 20.1 191.757 20.1ZM194.025 16.806L189.669 6.96H191.469L195.177 15.456L194.025 16.806Z" fill="#272343"/>
<path d="M82.61 40.5V30.45L83.09 30.96H80.135V30H83.69V40.5H82.61ZM90.3849 40.59C89.5749 40.59 88.8549 40.38 88.2249 39.96C87.5949 39.53 87.0999 38.92 86.7399 38.13C86.3799 37.33 86.1999 36.37 86.1999 35.25C86.1999 34.13 86.3799 33.175 86.7399 32.385C87.0999 31.585 87.5949 30.975 88.2249 30.555C88.8549 30.125 89.5749 29.91 90.3849 29.91C91.1949 29.91 91.9149 30.125 92.5449 30.555C93.1749 30.975 93.6699 31.585 94.0299 32.385C94.3999 33.175 94.5849 34.13 94.5849 35.25C94.5849 36.37 94.3999 37.33 94.0299 38.13C93.6699 38.92 93.1749 39.53 92.5449 39.96C91.9149 40.38 91.1949 40.59 90.3849 40.59ZM90.3849 39.6C91.0049 39.6 91.5449 39.435 92.0049 39.105C92.4649 38.765 92.8249 38.275 93.0849 37.635C93.3449 36.985 93.4749 36.19 93.4749 35.25C93.4749 34.31 93.3449 33.52 93.0849 32.88C92.8249 32.23 92.4649 31.74 92.0049 31.41C91.5449 31.07 91.0049 30.9 90.3849 30.9C89.7849 30.9 89.2499 31.07 88.7799 31.41C88.3099 31.74 87.9449 32.23 87.6849 32.88C87.4249 33.52 87.2949 34.31 87.2949 35.25C87.2949 36.19 87.4249 36.985 87.6849 37.635C87.9449 38.275 88.3099 38.765 88.7799 39.105C89.2499 39.435 89.7849 39.6 90.3849 39.6ZM100.317 40.59C99.5066 40.59 98.7866 40.38 98.1566 39.96C97.5266 39.53 97.0316 38.92 96.6716 38.13C96.3116 37.33 96.1316 36.37 96.1316 35.25C96.1316 34.13 96.3116 33.175 96.6716 32.385C97.0316 31.585 97.5266 30.975 98.1566 30.555C98.7866 30.125 99.5066 29.91 100.317 29.91C101.127 29.91 101.847 30.125 102.477 30.555C103.107 30.975 103.602 31.585 103.962 32.385C104.332 33.175 104.517 34.13 104.517 35.25C104.517 36.37 104.332 37.33 103.962 38.13C103.602 38.92 103.107 39.53 102.477 39.96C101.847 40.38 101.127 40.59 100.317 40.59ZM100.317 39.6C100.937 39.6 101.477 39.435 101.937 39.105C102.397 38.765 102.757 38.275 103.017 37.635C103.277 36.985 103.407 36.19 103.407 35.25C103.407 34.31 103.277 33.52 103.017 32.88C102.757 32.23 102.397 31.74 101.937 31.41C101.477 31.07 100.937 30.9 100.317 30.9C99.7166 30.9 99.1816 31.07 98.7116 31.41C98.2416 31.74 97.8766 32.23 97.6166 32.88C97.3566 33.52 97.2266 34.31 97.2266 35.25C97.2266 36.19 97.3566 36.985 97.6166 37.635C97.8766 38.275 98.2416 38.765 98.7116 39.105C99.1816 39.435 99.7166 39.6 100.317 39.6ZM107.473 40.5L114.643 30H115.528L108.358 40.5H107.473ZM108.283 35.625C107.813 35.625 107.398 35.51 107.038 35.28C106.678 35.04 106.398 34.705 106.198 34.275C106.008 33.845 105.913 33.345 105.913 32.775C105.913 32.205 106.008 31.705 106.198 31.275C106.398 30.845 106.678 30.515 107.038 30.285C107.398 30.045 107.813 29.925 108.283 29.925C108.753 29.925 109.163 30.045 109.513 30.285C109.873 30.515 110.153 30.845 110.353 31.275C110.553 31.705 110.653 32.205 110.653 32.775C110.653 33.345 110.553 33.845 110.353 34.275C110.153 34.705 109.873 35.04 109.513 35.28C109.163 35.51 108.753 35.625 108.283 35.625ZM108.283 34.95C108.773 34.95 109.163 34.76 109.453 34.38C109.753 33.99 109.903 33.455 109.903 32.775C109.903 32.095 109.753 31.565 109.453 31.185C109.163 30.795 108.773 30.6 108.283 30.6C107.783 30.6 107.388 30.795 107.098 31.185C106.808 31.565 106.663 32.095 106.663 32.775C106.663 33.455 106.808 33.99 107.098 34.38C107.388 34.76 107.783 34.95 108.283 34.95ZM114.718 40.575C114.258 40.575 113.848 40.46 113.488 40.23C113.128 39.99 112.848 39.655 112.648 39.225C112.448 38.795 112.348 38.295 112.348 37.725C112.348 37.155 112.448 36.655 112.648 36.225C112.848 35.795 113.128 35.465 113.488 35.235C113.848 34.995 114.258 34.875 114.718 34.875C115.198 34.875 115.613 34.995 115.963 35.235C116.323 35.465 116.598 35.795 116.788 36.225C116.988 36.655 117.088 37.155 117.088 37.725C117.088 38.295 116.988 38.795 116.788 39.225C116.598 39.655 116.323 39.99 115.963 40.23C115.613 40.46 115.198 40.575 114.718 40.575ZM114.718 39.9C115.208 39.9 115.598 39.71 115.888 39.33C116.188 38.94 116.338 38.405 116.338 37.725C116.338 37.045 116.188 36.515 115.888 36.135C115.598 35.745 115.208 35.55 114.718 35.55C114.228 35.55 113.833 35.745 113.533 36.135C113.243 36.515 113.098 37.045 113.098 37.725C113.098 38.405 113.243 38.94 113.533 39.33C113.833 39.71 114.228 39.9 114.718 39.9ZM124.346 35.085H129.896V36.045H124.346V35.085ZM124.466 40.5H123.356V30H130.556V30.96H124.466V40.5ZM132.476 40.5V32.625H133.496V34.77L133.391 34.395C133.611 33.795 133.981 33.34 134.501 33.03C135.021 32.71 135.666 32.55 136.436 32.55V33.585C136.396 33.585 136.356 33.585 136.316 33.585C136.276 33.575 136.236 33.57 136.196 33.57C135.366 33.57 134.716 33.825 134.246 34.335C133.776 34.835 133.541 35.55 133.541 36.48V40.5H132.476ZM141.651 40.575C140.831 40.575 140.111 40.405 139.491 40.065C138.871 39.715 138.386 39.24 138.036 38.64C137.686 38.03 137.511 37.335 137.511 36.555C137.511 35.775 137.676 35.085 138.006 34.485C138.346 33.885 138.806 33.415 139.386 33.075C139.976 32.725 140.636 32.55 141.366 32.55C142.106 32.55 142.761 32.72 143.331 33.06C143.911 33.39 144.366 33.86 144.696 34.47C145.026 35.07 145.191 35.765 145.191 36.555C145.191 36.605 145.186 36.66 145.176 36.72C145.176 36.77 145.176 36.825 145.176 36.885H138.321V36.09H144.606L144.186 36.405C144.186 35.835 144.061 35.33 143.811 34.89C143.571 34.44 143.241 34.09 142.821 33.84C142.401 33.59 141.916 33.465 141.366 33.465C140.826 33.465 140.341 33.59 139.911 33.84C139.481 34.09 139.146 34.44 138.906 34.89C138.666 35.34 138.546 35.855 138.546 36.435V36.6C138.546 37.2 138.676 37.73 138.936 38.19C139.206 38.64 139.576 38.995 140.046 39.255C140.526 39.505 141.071 39.63 141.681 39.63C142.161 39.63 142.606 39.545 143.016 39.375C143.436 39.205 143.796 38.945 144.096 38.595L144.696 39.285C144.346 39.705 143.906 40.025 143.376 40.245C142.856 40.465 142.281 40.575 141.651 40.575ZM150.704 40.575C149.884 40.575 149.164 40.405 148.544 40.065C147.924 39.715 147.439 39.24 147.089 38.64C146.739 38.03 146.564 37.335 146.564 36.555C146.564 35.775 146.729 35.085 147.059 34.485C147.399 33.885 147.859 33.415 148.439 33.075C149.029 32.725 149.689 32.55 150.419 32.55C151.159 32.55 151.814 32.72 152.384 33.06C152.964 33.39 153.419 33.86 153.749 34.47C154.079 35.07 154.244 35.765 154.244 36.555C154.244 36.605 154.239 36.66 154.229 36.72C154.229 36.77 154.229 36.825 154.229 36.885H147.374V36.09H153.659L153.239 36.405C153.239 35.835 153.114 35.33 152.864 34.89C152.624 34.44 152.294 34.09 151.874 33.84C151.454 33.59 150.969 33.465 150.419 33.465C149.879 33.465 149.394 33.59 148.964 33.84C148.534 34.09 148.199 34.44 147.959 34.89C147.719 35.34 147.599 35.855 147.599 36.435V36.6C147.599 37.2 147.729 37.73 147.989 38.19C148.259 38.64 148.629 38.995 149.099 39.255C149.579 39.505 150.124 39.63 150.734 39.63C151.214 39.63 151.659 39.545 152.069 39.375C152.489 39.205 152.849 38.945 153.149 38.595L153.749 39.285C153.399 39.705 152.959 40.025 152.429 40.245C151.909 40.465 151.334 40.575 150.704 40.575ZM160.518 40.5V31.635C160.518 30.935 160.723 30.37 161.133 29.94C161.543 29.51 162.133 29.295 162.903 29.295C163.203 29.295 163.493 29.335 163.773 29.415C164.053 29.495 164.288 29.62 164.478 29.79L164.118 30.585C163.968 30.455 163.793 30.36 163.593 30.3C163.393 30.23 163.178 30.195 162.948 30.195C162.498 30.195 162.153 30.32 161.913 30.57C161.673 30.82 161.553 31.19 161.553 31.68V32.88L161.583 33.375V40.5H160.518ZM159.108 33.51V32.625H163.983V33.51H159.108ZM168.499 40.575C167.739 40.575 167.054 40.405 166.444 40.065C165.844 39.715 165.369 39.24 165.019 38.64C164.669 38.03 164.494 37.335 164.494 36.555C164.494 35.765 164.669 35.07 165.019 34.47C165.369 33.87 165.844 33.4 166.444 33.06C167.044 32.72 167.729 32.55 168.499 32.55C169.279 32.55 169.969 32.72 170.569 33.06C171.179 33.4 171.654 33.87 171.994 34.47C172.344 35.07 172.519 35.765 172.519 36.555C172.519 37.335 172.344 38.03 171.994 38.64C171.654 39.24 171.179 39.715 170.569 40.065C169.959 40.405 169.269 40.575 168.499 40.575ZM168.499 39.63C169.069 39.63 169.574 39.505 170.014 39.255C170.454 38.995 170.799 38.635 171.049 38.175C171.309 37.705 171.439 37.165 171.439 36.555C171.439 35.935 171.309 35.395 171.049 34.935C170.799 34.475 170.454 34.12 170.014 33.87C169.574 33.61 169.074 33.48 168.514 33.48C167.954 33.48 167.454 33.61 167.014 33.87C166.574 34.12 166.224 34.475 165.964 34.935C165.704 35.395 165.574 35.935 165.574 36.555C165.574 37.165 165.704 37.705 165.964 38.175C166.224 38.635 166.574 38.995 167.014 39.255C167.454 39.505 167.949 39.63 168.499 39.63ZM174.693 40.5V32.625H175.713V34.77L175.608 34.395C175.828 33.795 176.198 33.34 176.718 33.03C177.238 32.71 177.883 32.55 178.653 32.55V33.585C178.613 33.585 178.573 33.585 178.533 33.585C178.493 33.575 178.453 33.57 178.413 33.57C177.583 33.57 176.933 33.825 176.463 34.335C175.993 34.835 175.758 35.55 175.758 36.48V40.5H174.693ZM189.574 40.5V38.76L189.529 38.475V35.565C189.529 34.895 189.339 34.38 188.959 34.02C188.589 33.66 188.034 33.48 187.294 33.48C186.784 33.48 186.299 33.565 185.839 33.735C185.379 33.905 184.989 34.13 184.669 34.41L184.189 33.615C184.589 33.275 185.069 33.015 185.629 32.835C186.189 32.645 186.779 32.55 187.399 32.55C188.419 32.55 189.204 32.805 189.754 33.315C190.314 33.815 190.594 34.58 190.594 35.61V40.5H189.574ZM186.859 40.575C186.269 40.575 185.754 40.48 185.314 40.29C184.884 40.09 184.554 39.82 184.324 39.48C184.094 39.13 183.979 38.73 183.979 38.28C183.979 37.87 184.074 37.5 184.264 37.17C184.464 36.83 184.784 36.56 185.224 36.36C185.674 36.15 186.274 36.045 187.024 36.045H189.739V36.84H187.054C186.294 36.84 185.764 36.975 185.464 37.245C185.174 37.515 185.029 37.85 185.029 38.25C185.029 38.7 185.204 39.06 185.554 39.33C185.904 39.6 186.394 39.735 187.024 39.735C187.624 39.735 188.139 39.6 188.569 39.33C189.009 39.05 189.329 38.65 189.529 38.13L189.769 38.865C189.569 39.385 189.219 39.8 188.719 40.11C188.229 40.42 187.609 40.575 186.859 40.575ZM193.487 40.5V29.37H194.552V40.5H193.487ZM197.515 40.5V29.37H198.58V40.5H197.515ZM208.679 40.575C207.919 40.575 207.234 40.405 206.624 40.065C206.024 39.715 205.549 39.24 205.199 38.64C204.849 38.03 204.674 37.335 204.674 36.555C204.674 35.765 204.849 35.07 205.199 34.47C205.549 33.87 206.024 33.4 206.624 33.06C207.224 32.72 207.909 32.55 208.679 32.55C209.459 32.55 210.149 32.72 210.749 33.06C211.359 33.4 211.834 33.87 212.174 34.47C212.524 35.07 212.699 35.765 212.699 36.555C212.699 37.335 212.524 38.03 212.174 38.64C211.834 39.24 211.359 39.715 210.749 40.065C210.139 40.405 209.449 40.575 208.679 40.575ZM208.679 39.63C209.249 39.63 209.754 39.505 210.194 39.255C210.634 38.995 210.979 38.635 211.229 38.175C211.489 37.705 211.619 37.165 211.619 36.555C211.619 35.935 211.489 35.395 211.229 34.935C210.979 34.475 210.634 34.12 210.194 33.87C209.754 33.61 209.254 33.48 208.694 33.48C208.134 33.48 207.634 33.61 207.194 33.87C206.754 34.12 206.404 34.475 206.144 34.935C205.884 35.395 205.754 35.935 205.754 36.555C205.754 37.165 205.884 37.705 206.144 38.175C206.404 38.635 206.754 38.995 207.194 39.255C207.634 39.505 208.129 39.63 208.679 39.63ZM214.874 40.5V32.625H215.894V34.77L215.789 34.395C216.009 33.795 216.379 33.34 216.899 33.03C217.419 32.71 218.064 32.55 218.834 32.55V33.585C218.794 33.585 218.754 33.585 218.714 33.585C218.674 33.575 218.634 33.57 218.594 33.57C217.764 33.57 217.114 33.825 216.644 34.335C216.174 34.835 215.939 35.55 215.939 36.48V40.5H214.874ZM223.839 40.575C223.089 40.575 222.414 40.405 221.814 40.065C221.224 39.725 220.759 39.255 220.419 38.655C220.079 38.045 219.909 37.345 219.909 36.555C219.909 35.755 220.079 35.055 220.419 34.455C220.759 33.855 221.224 33.39 221.814 33.06C222.414 32.72 223.089 32.55 223.839 32.55C224.529 32.55 225.144 32.705 225.684 33.015C226.234 33.325 226.669 33.78 226.989 34.38C227.319 34.97 227.484 35.695 227.484 36.555C227.484 37.405 227.324 38.13 227.004 38.73C226.684 39.33 226.249 39.79 225.699 40.11C225.159 40.42 224.539 40.575 223.839 40.575ZM223.914 39.63C224.474 39.63 224.974 39.505 225.414 39.255C225.864 38.995 226.214 38.635 226.464 38.175C226.724 37.705 226.854 37.165 226.854 36.555C226.854 35.935 226.724 35.395 226.464 34.935C226.214 34.475 225.864 34.12 225.414 33.87C224.974 33.61 224.474 33.48 223.914 33.48C223.364 33.48 222.869 33.61 222.429 33.87C221.989 34.12 221.639 34.475 221.379 34.935C221.119 35.395 220.989 35.935 220.989 36.555C220.989 37.165 221.119 37.705 221.379 38.175C221.639 38.635 221.989 38.995 222.429 39.255C222.869 39.505 223.364 39.63 223.914 39.63ZM226.884 40.5V38.13L226.989 36.54L226.839 34.95V29.37H227.904V40.5H226.884ZM234.215 40.575C233.395 40.575 232.675 40.405 232.055 40.065C231.435 39.715 230.95 39.24 230.6 38.64C230.25 38.03 230.075 37.335 230.075 36.555C230.075 35.775 230.24 35.085 230.57 34.485C230.91 33.885 231.37 33.415 231.95 33.075C232.54 32.725 233.2 32.55 233.93 32.55C234.67 32.55 235.325 32.72 235.895 33.06C236.475 33.39 236.93 33.86 237.26 34.47C237.59 35.07 237.755 35.765 237.755 36.555C237.755 36.605 237.75 36.66 237.74 36.72C237.74 36.77 237.74 36.825 237.74 36.885H230.885V36.09H237.17L236.75 36.405C236.75 35.835 236.625 35.33 236.375 34.89C236.135 34.44 235.805 34.09 235.385 33.84C234.965 33.59 234.48 33.465 233.93 33.465C233.39 33.465 232.905 33.59 232.475 33.84C232.045 34.09 231.71 34.44 231.47 34.89C231.23 35.34 231.11 35.855 231.11 36.435V36.6C231.11 37.2 231.24 37.73 231.5 38.19C231.77 38.64 232.14 38.995 232.61 39.255C233.09 39.505 233.635 39.63 234.245 39.63C234.725 39.63 235.17 39.545 235.58 39.375C236 39.205 236.36 38.945 236.66 38.595L237.26 39.285C236.91 39.705 236.47 40.025 235.94 40.245C235.42 40.465 234.845 40.575 234.215 40.575ZM239.923 40.5V32.625H240.943V34.77L240.838 34.395C241.058 33.795 241.428 33.34 241.948 33.03C242.468 32.71 243.113 32.55 243.883 32.55V33.585C243.843 33.585 243.803 33.585 243.763 33.585C243.723 33.575 243.683 33.57 243.643 33.57C242.812 33.57 242.163 33.825 241.693 34.335C241.223 34.835 240.988 35.55 240.988 36.48V40.5H239.923ZM248.029 40.575C247.379 40.575 246.764 40.485 246.184 40.305C245.604 40.115 245.149 39.88 244.819 39.6L245.299 38.76C245.619 39 246.029 39.21 246.529 39.39C247.029 39.56 247.554 39.645 248.104 39.645C248.854 39.645 249.394 39.53 249.724 39.3C250.054 39.06 250.219 38.745 250.219 38.355C250.219 38.065 250.124 37.84 249.934 37.68C249.754 37.51 249.514 37.385 249.214 37.305C248.914 37.215 248.579 37.14 248.209 37.08C247.839 37.02 247.469 36.95 247.099 36.87C246.739 36.79 246.409 36.675 246.109 36.525C245.809 36.365 245.564 36.15 245.374 35.88C245.194 35.61 245.104 35.25 245.104 34.8C245.104 34.37 245.224 33.985 245.464 33.645C245.704 33.305 246.054 33.04 246.514 32.85C246.984 32.65 247.554 32.55 248.224 32.55C248.734 32.55 249.244 32.62 249.754 32.76C250.264 32.89 250.684 33.065 251.014 33.285L250.549 34.14C250.199 33.9 249.824 33.73 249.424 33.63C249.024 33.52 248.624 33.465 248.224 33.465C247.514 33.465 246.989 33.59 246.649 33.84C246.319 34.08 246.154 34.39 246.154 34.77C246.154 35.07 246.244 35.305 246.424 35.475C246.614 35.645 246.859 35.78 247.159 35.88C247.469 35.97 247.804 36.045 248.164 36.105C248.534 36.165 248.899 36.24 249.259 36.33C249.629 36.41 249.964 36.525 250.264 36.675C250.574 36.815 250.819 37.02 250.999 37.29C251.189 37.55 251.284 37.895 251.284 38.325C251.284 38.785 251.154 39.185 250.894 39.525C250.644 39.855 250.274 40.115 249.784 40.305C249.304 40.485 248.719 40.575 248.029 40.575Z" fill="#9A9CAA"/>
</svg>
