<svg width="24" height="24" viewBox="0 0 24 24" fill="none" xmlns="http://www.w3.org/2000/svg">
<path d="M20.3991 6.68949L20.4034 6.69708L20.4079 6.70451C20.6066 7.02936 20.7565 7.37869 20.8534 7.74225L20.854 7.7443C20.9569 8.12342 21.0057 8.51385 20.9995 8.90511L20.9993 8.9051L20.9994 8.91642C21.0043 9.65785 20.8006 10.3882 20.4078 11.0309L20.4077 11.0309L20.4012 11.0421C20.209 11.3758 19.9642 11.6844 19.6774 11.9545L19.6774 11.9544L19.6744 11.9574L12 19.3077L4.32563 11.9574L4.32564 11.9574L4.32424 11.9561C4.03553 11.6816 3.78623 11.3726 3.58241 11.0372C3.39389 10.7094 3.24721 10.3617 3.14528 10.0013C3.04887 9.64621 3.00059 9.28043 3.00059 8.91313H3.00066L3.00053 8.90516C2.99429 8.51387 3.04318 8.12341 3.14601 7.74425L3.14604 7.74426L3.14748 7.73869C3.3394 6.99734 3.74471 6.31934 4.32067 5.78259L4.32069 5.78261L4.32503 5.77848C4.74878 5.37397 5.25166 5.0511 5.80623 4.82876C6.92218 4.39054 8.17446 4.39041 9.29048 4.82838C9.80736 5.03824 10.2821 5.33051 10.6945 5.69193L10.7407 5.745L10.7556 5.76216L10.7721 5.7779L11.6541 6.62274L12 6.95398L12.3458 6.62274L13.2279 5.7779L13.2444 5.76216L13.2593 5.745L13.3055 5.69193C13.7179 5.33051 14.1926 5.03824 14.7095 4.82838C15.8255 4.39041 17.0778 4.39054 18.1938 4.82876C18.7483 5.0511 19.2512 5.37397 19.675 5.77848L19.6749 5.77852L19.6808 5.784C19.9681 6.04945 20.2102 6.35498 20.3991 6.68949Z" stroke="#787878"/>
</svg>
