<svg width="295" height="50" viewBox="0 0 295 50" fill="none" xmlns="http://www.w3.org/2000/svg">
<g clip-path="url(#clip0_393_6554)">
<path d="M49.2179 6.95611C49.2008 6.63932 48.9817 6.36949 48.675 6.28785L25.1695 0.0246826C25.0458 -0.00822752 24.9157 -0.00822752 24.7921 0.0246826L1.32318 6.28795C1.01712 6.36969 0.798176 6.63883 0.780598 6.95514C0.764289 7.24811 0.413606 14.2331 3.16038 23.0639C4.77473 28.2539 7.13137 32.9926 10.165 37.1484C13.9597 42.3471 18.8269 46.6391 24.6311 49.9058C24.7426 49.9685 24.8664 50 24.9903 50C25.1083 50 25.2264 49.9715 25.3339 49.9144C31.1479 46.8262 36.0232 42.643 39.8241 37.481C42.8611 33.3563 45.2204 28.6037 46.8364 23.3552C49.5846 14.4291 49.2342 7.25719 49.2179 6.95611ZM45.421 22.9736C43.8507 28.0558 41.5645 32.6529 38.6258 36.6376C35.1982 41.2852 30.8639 45.1106 25.7318 48.0236V44.2556C32.385 40.0553 37.4028 34.1094 40.6464 26.5751C43.3172 20.3717 44.1875 14.4831 44.4473 10.6354C44.4709 10.2858 44.2437 9.96841 43.905 9.87828L42.4114 9.48033C42.0207 9.37623 41.6192 9.60855 41.515 9.99957C41.4109 10.3904 41.6432 10.7918 42.0342 10.896L42.9412 11.1376C42.6407 14.8677 41.7543 20.2971 39.3008 25.9958C36.1938 33.2129 31.403 38.9148 25.0572 42.9508C24.4202 42.5296 23.7937 42.09 23.1901 41.6406C22.8658 41.399 22.4068 41.4661 22.1651 41.7906C21.9235 42.115 21.9906 42.574 22.3151 42.8156C22.9459 43.2853 23.6011 43.7433 24.2667 44.1828V47.9997C19.1322 44.9282 14.7968 41.0013 11.3681 36.3118C8.43029 32.2938 6.14494 27.7075 4.57541 22.6806C2.31634 15.4447 2.20589 9.34488 2.22933 7.56236L24.2667 1.68112V5.02672L6.10383 9.87398C5.76438 9.96461 5.53703 10.2835 5.56203 10.6339C5.75119 13.281 6.28361 17.3995 7.74641 21.9882C10.1647 29.5743 14.2262 35.9031 19.8181 40.7989C19.957 40.9206 20.129 40.9803 20.3004 40.9803C20.5042 40.9803 20.7069 40.8957 20.8519 40.7303C21.1184 40.4259 21.0876 39.9631 20.7832 39.6967C15.3949 34.9793 11.4783 28.8716 9.1422 21.5434C7.8299 17.4267 7.28947 13.7003 7.07063 11.1325L24.982 6.35241L38.8682 10.0525C39.2591 10.1565 39.6605 9.92427 39.7646 9.53326C39.8687 9.14244 39.6364 8.74097 39.2454 8.63687L25.7317 5.036V1.6906L47.7689 7.56266C47.7931 9.37564 47.6874 15.6388 45.421 22.9736Z" fill="#272343"/>
<path d="M36.0206 17.1149C35.5867 16.6803 35.0094 16.4412 34.3952 16.4412C33.7808 16.4412 33.2036 16.6803 32.7701 17.1145L23.4345 26.4497L18.3378 21.3535C17.9041 20.9191 17.3268 20.6798 16.7125 20.6798C16.0981 20.6798 15.521 20.919 15.0876 21.353C14.6534 21.7871 14.4141 22.3642 14.4141 22.9783C14.4141 23.5923 14.6532 24.1694 15.0874 24.6033L21.809 31.3249C22.2429 31.7593 22.82 31.9986 23.4344 31.9986C24.0487 31.9986 24.6259 31.7594 25.0595 31.3252L36.02 20.3647C36.4543 19.9308 36.6935 19.3536 36.6935 18.7395C36.6935 18.1254 36.4544 17.5483 36.0206 17.1149ZM34.9843 19.3286L24.0232 30.2896C23.8662 30.4468 23.6571 30.5334 23.4344 30.5334C23.2116 30.5334 23.0025 30.4468 22.8452 30.2893L16.1231 23.5671C15.9658 23.4099 15.8791 23.2008 15.8791 22.9782C15.8791 22.7555 15.9658 22.5465 16.1236 22.3886C16.2807 22.2314 16.4898 22.1448 16.7125 22.1448C16.9351 22.1448 17.1441 22.2314 17.3017 22.3889L22.9166 28.0034C23.2026 28.2895 23.6665 28.2894 23.9524 28.0034L33.8064 18.1499C33.9635 17.9926 34.1726 17.906 34.3953 17.906C34.6179 17.906 34.8269 17.9926 34.9845 18.1503C35.1419 18.3076 35.2286 18.5167 35.2286 18.7393C35.2286 18.9619 35.1418 19.1711 34.9843 19.3286Z" fill="#272343"/>
</g>
<path d="M71.562 19.644C70.602 19.644 69.684 19.5 68.808 19.212C67.932 18.912 67.242 18.528 66.738 18.06L67.404 16.656C67.884 17.076 68.496 17.424 69.24 17.7C69.984 17.976 70.758 18.114 71.562 18.114C72.294 18.114 72.888 18.03 73.344 17.862C73.8 17.694 74.136 17.466 74.352 17.178C74.568 16.878 74.676 16.542 74.676 16.17C74.676 15.738 74.532 15.39 74.244 15.126C73.968 14.862 73.602 14.652 73.146 14.496C72.702 14.328 72.21 14.184 71.67 14.064C71.13 13.944 70.584 13.806 70.032 13.65C69.492 13.482 68.994 13.272 68.538 13.02C68.094 12.768 67.734 12.432 67.458 12.012C67.182 11.58 67.044 11.028 67.044 10.356C67.044 9.708 67.212 9.114 67.548 8.574C67.896 8.022 68.424 7.584 69.132 7.26C69.852 6.924 70.764 6.756 71.868 6.756C72.6 6.756 73.326 6.852 74.046 7.044C74.766 7.236 75.39 7.512 75.918 7.872L75.324 9.312C74.784 8.952 74.214 8.694 73.614 8.538C73.014 8.37 72.432 8.286 71.868 8.286C71.16 8.286 70.578 8.376 70.122 8.556C69.666 8.736 69.33 8.976 69.114 9.276C68.91 9.576 68.808 9.912 68.808 10.284C68.808 10.728 68.946 11.082 69.222 11.346C69.51 11.61 69.876 11.82 70.32 11.976C70.776 12.132 71.274 12.276 71.814 12.408C72.354 12.528 72.894 12.666 73.434 12.822C73.986 12.978 74.484 13.182 74.928 13.434C75.384 13.686 75.75 14.022 76.026 14.442C76.302 14.862 76.44 15.402 76.44 16.062C76.44 16.698 76.266 17.292 75.918 17.844C75.57 18.384 75.03 18.822 74.298 19.158C73.578 19.482 72.666 19.644 71.562 19.644ZM83.0657 19.608C82.0457 19.608 81.1457 19.398 80.3657 18.978C79.5977 18.558 78.9977 17.982 78.5657 17.25C78.1457 16.518 77.9357 15.678 77.9357 14.73C77.9357 13.782 78.1397 12.942 78.5477 12.21C78.9677 11.478 79.5377 10.908 80.2577 10.5C80.9897 10.08 81.8117 9.87 82.7237 9.87C83.6477 9.87 84.4637 10.074 85.1717 10.482C85.8797 10.89 86.4317 11.466 86.8277 12.21C87.2357 12.942 87.4397 13.8 87.4397 14.784C87.4397 14.856 87.4337 14.94 87.4217 15.036C87.4217 15.132 87.4157 15.222 87.4037 15.306H79.2857V14.064H86.5037L85.8017 14.496C85.8137 13.884 85.6877 13.338 85.4237 12.858C85.1597 12.378 84.7937 12.006 84.3257 11.742C83.8697 11.466 83.3357 11.328 82.7237 11.328C82.1237 11.328 81.5897 11.466 81.1217 11.742C80.6537 12.006 80.2877 12.384 80.0237 12.876C79.7597 13.356 79.6277 13.908 79.6277 14.532V14.82C79.6277 15.456 79.7717 16.026 80.0597 16.53C80.3597 17.022 80.7737 17.406 81.3017 17.682C81.8297 17.958 82.4357 18.096 83.1197 18.096C83.6837 18.096 84.1937 18 84.6497 17.808C85.1177 17.616 85.5257 17.328 85.8737 16.944L86.8277 18.06C86.3957 18.564 85.8557 18.948 85.2077 19.212C84.5717 19.476 83.8577 19.608 83.0657 19.608ZM93.9972 19.608C93.0252 19.608 92.1552 19.398 91.3872 18.978C90.6312 18.558 90.0372 17.982 89.6052 17.25C89.1732 16.518 88.9572 15.678 88.9572 14.73C88.9572 13.782 89.1732 12.942 89.6052 12.21C90.0372 11.478 90.6312 10.908 91.3872 10.5C92.1552 10.08 93.0252 9.87 93.9972 9.87C94.8612 9.87 95.6292 10.044 96.3012 10.392C96.9852 10.728 97.5132 11.232 97.8852 11.904L96.5712 12.75C96.2592 12.282 95.8752 11.94 95.4192 11.724C94.9752 11.496 94.4952 11.382 93.9792 11.382C93.3552 11.382 92.7972 11.52 92.3052 11.796C91.8132 12.072 91.4232 12.462 91.1352 12.966C90.8472 13.458 90.7032 14.046 90.7032 14.73C90.7032 15.414 90.8472 16.008 91.1352 16.512C91.4232 17.016 91.8132 17.406 92.3052 17.682C92.7972 17.958 93.3552 18.096 93.9792 18.096C94.4952 18.096 94.9752 17.988 95.4192 17.772C95.8752 17.544 96.2592 17.196 96.5712 16.728L97.8852 17.556C97.5132 18.216 96.9852 18.726 96.3012 19.086C95.6292 19.434 94.8612 19.608 93.9972 19.608ZM104.136 19.608C103.32 19.608 102.6 19.458 101.976 19.158C101.364 18.858 100.884 18.402 100.536 17.79C100.2 17.166 100.032 16.386 100.032 15.45V9.96H101.76V15.252C101.76 16.188 101.982 16.89 102.426 17.358C102.882 17.826 103.518 18.06 104.334 18.06C104.934 18.06 105.456 17.94 105.9 17.7C106.344 17.448 106.686 17.088 106.926 16.62C107.166 16.14 107.286 15.564 107.286 14.892V9.96H109.014V19.5H107.376V16.926L107.646 17.61C107.334 18.246 106.866 18.738 106.242 19.086C105.618 19.434 104.916 19.608 104.136 19.608ZM112.304 19.5V9.96H113.96V12.552L113.798 11.904C114.062 11.244 114.506 10.74 115.13 10.392C115.754 10.044 116.522 9.87 117.434 9.87V11.544C117.362 11.532 117.29 11.526 117.218 11.526C117.158 11.526 117.098 11.526 117.038 11.526C116.114 11.526 115.382 11.802 114.842 12.354C114.302 12.906 114.032 13.704 114.032 14.748V19.5H112.304ZM123.724 19.608C122.704 19.608 121.804 19.398 121.024 18.978C120.256 18.558 119.656 17.982 119.224 17.25C118.804 16.518 118.594 15.678 118.594 14.73C118.594 13.782 118.798 12.942 119.206 12.21C119.626 11.478 120.196 10.908 120.916 10.5C121.648 10.08 122.47 9.87 123.382 9.87C124.306 9.87 125.122 10.074 125.83 10.482C126.538 10.89 127.09 11.466 127.486 12.21C127.894 12.942 128.098 13.8 128.098 14.784C128.098 14.856 128.092 14.94 128.08 15.036C128.08 15.132 128.074 15.222 128.062 15.306H119.944V14.064H127.162L126.46 14.496C126.472 13.884 126.346 13.338 126.082 12.858C125.818 12.378 125.452 12.006 124.984 11.742C124.528 11.466 123.994 11.328 123.382 11.328C122.782 11.328 122.248 11.466 121.78 11.742C121.312 12.006 120.946 12.384 120.682 12.876C120.418 13.356 120.286 13.908 120.286 14.532V14.82C120.286 15.456 120.43 16.026 120.718 16.53C121.018 17.022 121.432 17.406 121.96 17.682C122.488 17.958 123.094 18.096 123.778 18.096C124.342 18.096 124.852 18 125.308 17.808C125.776 17.616 126.184 17.328 126.532 16.944L127.486 18.06C127.054 18.564 126.514 18.948 125.866 19.212C125.23 19.476 124.516 19.608 123.724 19.608ZM135.583 19.5V6.9H140.497C141.601 6.9 142.543 7.074 143.323 7.422C144.103 7.77 144.703 8.274 145.123 8.934C145.543 9.594 145.753 10.38 145.753 11.292C145.753 12.204 145.543 12.99 145.123 13.65C144.703 14.298 144.103 14.802 143.323 15.162C142.543 15.51 141.601 15.684 140.497 15.684H136.573L137.383 14.838V19.5H135.583ZM137.383 15.018L136.573 14.118H140.443C141.595 14.118 142.465 13.872 143.053 13.38C143.653 12.888 143.953 12.192 143.953 11.292C143.953 10.392 143.653 9.696 143.053 9.204C142.465 8.712 141.595 8.466 140.443 8.466H136.573L137.383 7.566V15.018ZM153.98 19.5V17.484L153.89 17.106V13.668C153.89 12.936 153.674 12.372 153.242 11.976C152.822 11.568 152.186 11.364 151.334 11.364C150.77 11.364 150.218 11.46 149.678 11.652C149.138 11.832 148.682 12.078 148.31 12.39L147.59 11.094C148.082 10.698 148.67 10.398 149.354 10.194C150.05 9.978 150.776 9.87 151.532 9.87C152.84 9.87 153.848 10.188 154.556 10.824C155.264 11.46 155.618 12.432 155.618 13.74V19.5H153.98ZM150.848 19.608C150.14 19.608 149.516 19.488 148.976 19.248C148.448 19.008 148.04 18.678 147.752 18.258C147.464 17.826 147.32 17.34 147.32 16.8C147.32 16.284 147.44 15.816 147.68 15.396C147.932 14.976 148.334 14.64 148.886 14.388C149.45 14.136 150.206 14.01 151.154 14.01H154.178V15.252H151.226C150.362 15.252 149.78 15.396 149.48 15.684C149.18 15.972 149.03 16.32 149.03 16.728C149.03 17.196 149.216 17.574 149.588 17.862C149.96 18.138 150.476 18.276 151.136 18.276C151.784 18.276 152.348 18.132 152.828 17.844C153.32 17.556 153.674 17.136 153.89 16.584L154.232 17.772C154.004 18.336 153.602 18.786 153.026 19.122C152.45 19.446 151.724 19.608 150.848 19.608ZM159.054 23.1C158.598 23.1 158.154 23.022 157.722 22.866C157.29 22.722 156.918 22.506 156.606 22.218L157.344 20.922C157.584 21.15 157.848 21.324 158.136 21.444C158.424 21.564 158.73 21.624 159.054 21.624C159.474 21.624 159.822 21.516 160.098 21.3C160.374 21.084 160.632 20.7 160.872 20.148L161.466 18.834L161.646 18.618L165.39 9.96H167.082L162.456 20.454C162.18 21.126 161.868 21.654 161.52 22.038C161.184 22.422 160.812 22.692 160.404 22.848C159.996 23.016 159.546 23.1 159.054 23.1ZM161.322 19.806L156.966 9.96H158.766L162.474 18.456L161.322 19.806ZM180.629 9.87C181.397 9.87 182.075 10.02 182.663 10.32C183.251 10.62 183.707 11.076 184.031 11.688C184.367 12.3 184.535 13.074 184.535 14.01V19.5H182.807V14.208C182.807 13.284 182.591 12.588 182.159 12.12C181.727 11.652 181.121 11.418 180.341 11.418C179.765 11.418 179.261 11.538 178.829 11.778C178.397 12.018 178.061 12.372 177.821 12.84C177.593 13.308 177.479 13.89 177.479 14.586V19.5H175.751V14.208C175.751 13.284 175.535 12.588 175.103 12.12C174.683 11.652 174.077 11.418 173.285 11.418C172.721 11.418 172.223 11.538 171.791 11.778C171.359 12.018 171.023 12.372 170.783 12.84C170.543 13.308 170.423 13.89 170.423 14.586V19.5H168.695V9.96H170.351V12.498L170.081 11.85C170.381 11.226 170.843 10.74 171.467 10.392C172.091 10.044 172.817 9.87 173.645 9.87C174.557 9.87 175.343 10.098 176.003 10.554C176.663 10.998 177.095 11.676 177.299 12.588L176.597 12.3C176.885 11.568 177.389 10.98 178.109 10.536C178.829 10.092 179.669 9.87 180.629 9.87ZM191.962 19.608C190.942 19.608 190.042 19.398 189.262 18.978C188.494 18.558 187.894 17.982 187.462 17.25C187.042 16.518 186.832 15.678 186.832 14.73C186.832 13.782 187.036 12.942 187.444 12.21C187.864 11.478 188.434 10.908 189.154 10.5C189.886 10.08 190.708 9.87 191.62 9.87C192.544 9.87 193.36 10.074 194.068 10.482C194.776 10.89 195.328 11.466 195.724 12.21C196.132 12.942 196.336 13.8 196.336 14.784C196.336 14.856 196.33 14.94 196.318 15.036C196.318 15.132 196.312 15.222 196.3 15.306H188.182V14.064H195.4L194.698 14.496C194.71 13.884 194.584 13.338 194.32 12.858C194.056 12.378 193.69 12.006 193.222 11.742C192.766 11.466 192.232 11.328 191.62 11.328C191.02 11.328 190.486 11.466 190.018 11.742C189.55 12.006 189.184 12.384 188.92 12.876C188.656 13.356 188.524 13.908 188.524 14.532V14.82C188.524 15.456 188.668 16.026 188.956 16.53C189.256 17.022 189.67 17.406 190.198 17.682C190.726 17.958 191.332 18.096 192.016 18.096C192.58 18.096 193.09 18 193.546 17.808C194.014 17.616 194.422 17.328 194.77 16.944L195.724 18.06C195.292 18.564 194.752 18.948 194.104 19.212C193.468 19.476 192.754 19.608 191.962 19.608ZM203.83 9.87C204.61 9.87 205.294 10.02 205.882 10.32C206.482 10.62 206.95 11.076 207.286 11.688C207.622 12.3 207.79 13.074 207.79 14.01V19.5H206.062V14.208C206.062 13.284 205.834 12.588 205.378 12.12C204.934 11.652 204.304 11.418 203.488 11.418C202.876 11.418 202.342 11.538 201.886 11.778C201.43 12.018 201.076 12.372 200.824 12.84C200.584 13.308 200.464 13.89 200.464 14.586V19.5H198.736V9.96H200.392V12.534L200.122 11.85C200.434 11.226 200.914 10.74 201.562 10.392C202.21 10.044 202.966 9.87 203.83 9.87ZM214.264 19.608C213.304 19.608 212.56 19.35 212.032 18.834C211.504 18.318 211.24 17.58 211.24 16.62V7.872H212.968V16.548C212.968 17.064 213.094 17.46 213.346 17.736C213.61 18.012 213.982 18.15 214.462 18.15C215.002 18.15 215.452 18 215.812 17.7L216.352 18.942C216.088 19.17 215.77 19.338 215.398 19.446C215.038 19.554 214.66 19.608 214.264 19.608ZM209.62 11.382V9.96H215.704V11.382H209.62Z" fill="#272343"/>
<path d="M68.61 43.5V33.45L69.09 33.96H66.135V33H69.69V43.5H68.61ZM76.3849 43.59C75.5749 43.59 74.8549 43.38 74.2249 42.96C73.5949 42.53 73.0999 41.92 72.7399 41.13C72.3799 40.33 72.1999 39.37 72.1999 38.25C72.1999 37.13 72.3799 36.175 72.7399 35.385C73.0999 34.585 73.5949 33.975 74.2249 33.555C74.8549 33.125 75.5749 32.91 76.3849 32.91C77.1949 32.91 77.9149 33.125 78.5449 33.555C79.1749 33.975 79.6699 34.585 80.0299 35.385C80.3999 36.175 80.5849 37.13 80.5849 38.25C80.5849 39.37 80.3999 40.33 80.0299 41.13C79.6699 41.92 79.1749 42.53 78.5449 42.96C77.9149 43.38 77.1949 43.59 76.3849 43.59ZM76.3849 42.6C77.0049 42.6 77.5449 42.435 78.0049 42.105C78.4649 41.765 78.8249 41.275 79.0849 40.635C79.3449 39.985 79.4749 39.19 79.4749 38.25C79.4749 37.31 79.3449 36.52 79.0849 35.88C78.8249 35.23 78.4649 34.74 78.0049 34.41C77.5449 34.07 77.0049 33.9 76.3849 33.9C75.7849 33.9 75.2499 34.07 74.7799 34.41C74.3099 34.74 73.9449 35.23 73.6849 35.88C73.4249 36.52 73.2949 37.31 73.2949 38.25C73.2949 39.19 73.4249 39.985 73.6849 40.635C73.9449 41.275 74.3099 41.765 74.7799 42.105C75.2499 42.435 75.7849 42.6 76.3849 42.6ZM86.3166 43.59C85.5066 43.59 84.7866 43.38 84.1566 42.96C83.5266 42.53 83.0316 41.92 82.6716 41.13C82.3116 40.33 82.1316 39.37 82.1316 38.25C82.1316 37.13 82.3116 36.175 82.6716 35.385C83.0316 34.585 83.5266 33.975 84.1566 33.555C84.7866 33.125 85.5066 32.91 86.3166 32.91C87.1266 32.91 87.8466 33.125 88.4766 33.555C89.1066 33.975 89.6016 34.585 89.9616 35.385C90.3316 36.175 90.5166 37.13 90.5166 38.25C90.5166 39.37 90.3316 40.33 89.9616 41.13C89.6016 41.92 89.1066 42.53 88.4766 42.96C87.8466 43.38 87.1266 43.59 86.3166 43.59ZM86.3166 42.6C86.9366 42.6 87.4766 42.435 87.9366 42.105C88.3966 41.765 88.7566 41.275 89.0166 40.635C89.2766 39.985 89.4066 39.19 89.4066 38.25C89.4066 37.31 89.2766 36.52 89.0166 35.88C88.7566 35.23 88.3966 34.74 87.9366 34.41C87.4766 34.07 86.9366 33.9 86.3166 33.9C85.7166 33.9 85.1816 34.07 84.7116 34.41C84.2416 34.74 83.8766 35.23 83.6166 35.88C83.3566 36.52 83.2266 37.31 83.2266 38.25C83.2266 39.19 83.3566 39.985 83.6166 40.635C83.8766 41.275 84.2416 41.765 84.7116 42.105C85.1816 42.435 85.7166 42.6 86.3166 42.6ZM93.4732 43.5L100.643 33H101.528L94.3582 43.5H93.4732ZM94.2832 38.625C93.8132 38.625 93.3982 38.51 93.0382 38.28C92.6782 38.04 92.3982 37.705 92.1982 37.275C92.0082 36.845 91.9132 36.345 91.9132 35.775C91.9132 35.205 92.0082 34.705 92.1982 34.275C92.3982 33.845 92.6782 33.515 93.0382 33.285C93.3982 33.045 93.8132 32.925 94.2832 32.925C94.7532 32.925 95.1632 33.045 95.5132 33.285C95.8732 33.515 96.1532 33.845 96.3532 34.275C96.5532 34.705 96.6532 35.205 96.6532 35.775C96.6532 36.345 96.5532 36.845 96.3532 37.275C96.1532 37.705 95.8732 38.04 95.5132 38.28C95.1632 38.51 94.7532 38.625 94.2832 38.625ZM94.2832 37.95C94.7732 37.95 95.1632 37.76 95.4532 37.38C95.7532 36.99 95.9032 36.455 95.9032 35.775C95.9032 35.095 95.7532 34.565 95.4532 34.185C95.1632 33.795 94.7732 33.6 94.2832 33.6C93.7832 33.6 93.3882 33.795 93.0982 34.185C92.8082 34.565 92.6632 35.095 92.6632 35.775C92.6632 36.455 92.8082 36.99 93.0982 37.38C93.3882 37.76 93.7832 37.95 94.2832 37.95ZM100.718 43.575C100.258 43.575 99.8482 43.46 99.4882 43.23C99.1282 42.99 98.8482 42.655 98.6482 42.225C98.4482 41.795 98.3482 41.295 98.3482 40.725C98.3482 40.155 98.4482 39.655 98.6482 39.225C98.8482 38.795 99.1282 38.465 99.4882 38.235C99.8482 37.995 100.258 37.875 100.718 37.875C101.198 37.875 101.613 37.995 101.963 38.235C102.323 38.465 102.598 38.795 102.788 39.225C102.988 39.655 103.088 40.155 103.088 40.725C103.088 41.295 102.988 41.795 102.788 42.225C102.598 42.655 102.323 42.99 101.963 43.23C101.613 43.46 101.198 43.575 100.718 43.575ZM100.718 42.9C101.208 42.9 101.598 42.71 101.888 42.33C102.188 41.94 102.338 41.405 102.338 40.725C102.338 40.045 102.188 39.515 101.888 39.135C101.598 38.745 101.208 38.55 100.718 38.55C100.228 38.55 99.8332 38.745 99.5332 39.135C99.2432 39.515 99.0982 40.045 99.0982 40.725C99.0982 41.405 99.2432 41.94 99.5332 42.33C99.8332 42.71 100.228 42.9 100.718 42.9ZM112.251 43.59C111.471 43.59 110.721 43.465 110.001 43.215C109.291 42.955 108.741 42.625 108.351 42.225L108.786 41.37C109.156 41.73 109.651 42.035 110.271 42.285C110.901 42.525 111.561 42.645 112.251 42.645C112.911 42.645 113.446 42.565 113.856 42.405C114.276 42.235 114.581 42.01 114.771 41.73C114.971 41.45 115.071 41.14 115.071 40.8C115.071 40.39 114.951 40.06 114.711 39.81C114.481 39.56 114.176 39.365 113.796 39.225C113.416 39.075 112.996 38.945 112.536 38.835C112.076 38.725 111.616 38.61 111.156 38.49C110.696 38.36 110.271 38.19 109.881 37.98C109.501 37.77 109.191 37.495 108.951 37.155C108.721 36.805 108.606 36.35 108.606 35.79C108.606 35.27 108.741 34.795 109.011 34.365C109.291 33.925 109.716 33.575 110.286 33.315C110.856 33.045 111.586 32.91 112.476 32.91C113.066 32.91 113.651 32.995 114.231 33.165C114.811 33.325 115.311 33.55 115.731 33.84L115.356 34.725C114.906 34.425 114.426 34.205 113.916 34.065C113.416 33.925 112.931 33.855 112.461 33.855C111.831 33.855 111.311 33.94 110.901 34.11C110.491 34.28 110.186 34.51 109.986 34.8C109.796 35.08 109.701 35.4 109.701 35.76C109.701 36.17 109.816 36.5 110.046 36.75C110.286 37 110.596 37.195 110.976 37.335C111.366 37.475 111.791 37.6 112.251 37.71C112.711 37.82 113.166 37.94 113.616 38.07C114.076 38.2 114.496 38.37 114.876 38.58C115.266 38.78 115.576 39.05 115.806 39.39C116.046 39.73 116.166 40.175 116.166 40.725C116.166 41.235 116.026 41.71 115.746 42.15C115.466 42.58 115.036 42.93 114.456 43.2C113.886 43.46 113.151 43.59 112.251 43.59ZM121.704 43.575C120.884 43.575 120.164 43.405 119.544 43.065C118.924 42.715 118.439 42.24 118.089 41.64C117.739 41.03 117.564 40.335 117.564 39.555C117.564 38.775 117.729 38.085 118.059 37.485C118.399 36.885 118.859 36.415 119.439 36.075C120.029 35.725 120.689 35.55 121.419 35.55C122.159 35.55 122.814 35.72 123.384 36.06C123.964 36.39 124.419 36.86 124.749 37.47C125.079 38.07 125.244 38.765 125.244 39.555C125.244 39.605 125.239 39.66 125.229 39.72C125.229 39.77 125.229 39.825 125.229 39.885H118.374V39.09H124.659L124.239 39.405C124.239 38.835 124.114 38.33 123.864 37.89C123.624 37.44 123.294 37.09 122.874 36.84C122.454 36.59 121.969 36.465 121.419 36.465C120.879 36.465 120.394 36.59 119.964 36.84C119.534 37.09 119.199 37.44 118.959 37.89C118.719 38.34 118.599 38.855 118.599 39.435V39.6C118.599 40.2 118.729 40.73 118.989 41.19C119.259 41.64 119.629 41.995 120.099 42.255C120.579 42.505 121.124 42.63 121.734 42.63C122.214 42.63 122.659 42.545 123.069 42.375C123.489 42.205 123.849 41.945 124.149 41.595L124.749 42.285C124.399 42.705 123.959 43.025 123.429 43.245C122.909 43.465 122.334 43.575 121.704 43.575ZM130.682 43.575C129.902 43.575 129.202 43.405 128.582 43.065C127.972 42.715 127.492 42.24 127.142 41.64C126.792 41.03 126.617 40.335 126.617 39.555C126.617 38.765 126.792 38.07 127.142 37.47C127.492 36.87 127.972 36.4 128.582 36.06C129.202 35.72 129.902 35.55 130.682 35.55C131.352 35.55 131.957 35.68 132.497 35.94C133.037 36.2 133.462 36.59 133.772 37.11L132.977 37.65C132.707 37.25 132.372 36.955 131.972 36.765C131.572 36.575 131.137 36.48 130.667 36.48C130.107 36.48 129.602 36.61 129.152 36.87C128.702 37.12 128.347 37.475 128.087 37.935C127.827 38.395 127.697 38.935 127.697 39.555C127.697 40.175 127.827 40.715 128.087 41.175C128.347 41.635 128.702 41.995 129.152 42.255C129.602 42.505 130.107 42.63 130.667 42.63C131.137 42.63 131.572 42.535 131.972 42.345C132.372 42.155 132.707 41.865 132.977 41.475L133.772 42.015C133.462 42.525 133.037 42.915 132.497 43.185C131.957 43.445 131.352 43.575 130.682 43.575ZM139.119 43.575C138.449 43.575 137.864 43.45 137.364 43.2C136.864 42.95 136.474 42.575 136.194 42.075C135.924 41.575 135.789 40.95 135.789 40.2V35.625H136.854V40.08C136.854 40.92 137.059 41.555 137.469 41.985C137.889 42.405 138.474 42.615 139.224 42.615C139.774 42.615 140.249 42.505 140.649 42.285C141.059 42.055 141.369 41.725 141.579 41.295C141.799 40.865 141.909 40.35 141.909 39.75V35.625H142.974V43.5H141.954V41.34L142.119 41.73C141.869 42.31 141.479 42.765 140.949 43.095C140.429 43.415 139.819 43.575 139.119 43.575ZM145.942 43.5V35.625H146.962V37.77L146.857 37.395C147.077 36.795 147.447 36.34 147.967 36.03C148.487 35.71 149.132 35.55 149.902 35.55V36.585C149.862 36.585 149.822 36.585 149.782 36.585C149.742 36.575 149.702 36.57 149.662 36.57C148.832 36.57 148.182 36.825 147.712 37.335C147.242 37.835 147.007 38.55 147.007 39.48V43.5H145.942ZM155.117 43.575C154.297 43.575 153.577 43.405 152.957 43.065C152.337 42.715 151.852 42.24 151.502 41.64C151.152 41.03 150.977 40.335 150.977 39.555C150.977 38.775 151.142 38.085 151.472 37.485C151.812 36.885 152.272 36.415 152.852 36.075C153.442 35.725 154.102 35.55 154.832 35.55C155.572 35.55 156.227 35.72 156.797 36.06C157.377 36.39 157.832 36.86 158.162 37.47C158.492 38.07 158.657 38.765 158.657 39.555C158.657 39.605 158.652 39.66 158.642 39.72C158.642 39.77 158.642 39.825 158.642 39.885H151.787V39.09H158.072L157.652 39.405C157.652 38.835 157.527 38.33 157.277 37.89C157.037 37.44 156.707 37.09 156.287 36.84C155.867 36.59 155.382 36.465 154.832 36.465C154.292 36.465 153.807 36.59 153.377 36.84C152.947 37.09 152.612 37.44 152.372 37.89C152.132 38.34 152.012 38.855 152.012 39.435V39.6C152.012 40.2 152.142 40.73 152.402 41.19C152.672 41.64 153.042 41.995 153.512 42.255C153.992 42.505 154.537 42.63 155.147 42.63C155.627 42.63 156.072 42.545 156.482 42.375C156.902 42.205 157.262 41.945 157.562 41.595L158.162 42.285C157.812 42.705 157.372 43.025 156.842 43.245C156.322 43.465 155.747 43.575 155.117 43.575ZM164.976 43.5V33H168.906C169.796 33 170.561 33.145 171.201 33.435C171.841 33.715 172.331 34.125 172.671 34.665C173.021 35.195 173.196 35.84 173.196 36.6C173.196 37.34 173.021 37.98 172.671 38.52C172.331 39.05 171.841 39.46 171.201 39.75C170.561 40.04 169.796 40.185 168.906 40.185H165.591L166.086 39.66V43.5H164.976ZM166.086 39.75L165.591 39.21H168.876C169.926 39.21 170.721 38.985 171.261 38.535C171.811 38.075 172.086 37.43 172.086 36.6C172.086 35.76 171.811 35.11 171.261 34.65C170.721 34.19 169.926 33.96 168.876 33.96H165.591L166.086 33.435V39.75ZM180.233 43.5V41.76L180.188 41.475V38.565C180.188 37.895 179.998 37.38 179.618 37.02C179.248 36.66 178.693 36.48 177.953 36.48C177.443 36.48 176.958 36.565 176.498 36.735C176.038 36.905 175.648 37.13 175.328 37.41L174.848 36.615C175.248 36.275 175.728 36.015 176.288 35.835C176.848 35.645 177.438 35.55 178.058 35.55C179.078 35.55 179.863 35.805 180.413 36.315C180.973 36.815 181.253 37.58 181.253 38.61V43.5H180.233ZM177.518 43.575C176.928 43.575 176.413 43.48 175.973 43.29C175.543 43.09 175.213 42.82 174.983 42.48C174.753 42.13 174.638 41.73 174.638 41.28C174.638 40.87 174.733 40.5 174.923 40.17C175.123 39.83 175.443 39.56 175.883 39.36C176.333 39.15 176.933 39.045 177.683 39.045H180.398V39.84H177.713C176.953 39.84 176.423 39.975 176.123 40.245C175.833 40.515 175.688 40.85 175.688 41.25C175.688 41.7 175.863 42.06 176.213 42.33C176.563 42.6 177.053 42.735 177.683 42.735C178.283 42.735 178.798 42.6 179.228 42.33C179.668 42.05 179.988 41.65 180.188 41.13L180.428 41.865C180.228 42.385 179.878 42.8 179.378 43.11C178.888 43.42 178.268 43.575 177.518 43.575ZM184.059 46.485C183.689 46.485 183.334 46.425 182.994 46.305C182.664 46.185 182.379 46.005 182.139 45.765L182.634 44.97C182.834 45.16 183.049 45.305 183.279 45.405C183.519 45.515 183.784 45.57 184.074 45.57C184.424 45.57 184.724 45.47 184.974 45.27C185.234 45.08 185.479 44.74 185.709 44.25L186.219 43.095L186.339 42.93L189.579 35.625H190.629L186.684 44.445C186.464 44.955 186.219 45.36 185.949 45.66C185.689 45.96 185.404 46.17 185.094 46.29C184.784 46.42 184.439 46.485 184.059 46.485ZM186.159 43.725L182.529 35.625H183.639L186.849 42.855L186.159 43.725ZM201.969 35.55C202.609 35.55 203.164 35.675 203.634 35.925C204.114 36.165 204.484 36.535 204.744 37.035C205.014 37.535 205.149 38.165 205.149 38.925V43.5H204.084V39.03C204.084 38.2 203.884 37.575 203.484 37.155C203.094 36.725 202.539 36.51 201.819 36.51C201.279 36.51 200.809 36.625 200.409 36.855C200.019 37.075 199.714 37.4 199.494 37.83C199.284 38.25 199.179 38.76 199.179 39.36V43.5H198.114V39.03C198.114 38.2 197.914 37.575 197.514 37.155C197.114 36.725 196.554 36.51 195.834 36.51C195.304 36.51 194.839 36.625 194.439 36.855C194.039 37.075 193.729 37.4 193.509 37.83C193.299 38.25 193.194 38.76 193.194 39.36V43.5H192.129V35.625H193.149V37.755L192.984 37.38C193.224 36.81 193.609 36.365 194.139 36.045C194.679 35.715 195.314 35.55 196.044 35.55C196.814 35.55 197.469 35.745 198.009 36.135C198.549 36.515 198.899 37.09 199.059 37.86L198.639 37.695C198.869 37.055 199.274 36.54 199.854 36.15C200.444 35.75 201.149 35.55 201.969 35.55ZM211.382 43.575C210.562 43.575 209.842 43.405 209.222 43.065C208.602 42.715 208.117 42.24 207.767 41.64C207.417 41.03 207.242 40.335 207.242 39.555C207.242 38.775 207.407 38.085 207.737 37.485C208.077 36.885 208.537 36.415 209.117 36.075C209.707 35.725 210.367 35.55 211.097 35.55C211.837 35.55 212.492 35.72 213.062 36.06C213.642 36.39 214.097 36.86 214.427 37.47C214.757 38.07 214.922 38.765 214.922 39.555C214.922 39.605 214.917 39.66 214.907 39.72C214.907 39.77 214.907 39.825 214.907 39.885H208.052V39.09H214.337L213.917 39.405C213.917 38.835 213.792 38.33 213.542 37.89C213.302 37.44 212.972 37.09 212.552 36.84C212.132 36.59 211.647 36.465 211.097 36.465C210.557 36.465 210.072 36.59 209.642 36.84C209.212 37.09 208.877 37.44 208.637 37.89C208.397 38.34 208.277 38.855 208.277 39.435V39.6C208.277 40.2 208.407 40.73 208.667 41.19C208.937 41.64 209.307 41.995 209.777 42.255C210.257 42.505 210.802 42.63 211.412 42.63C211.892 42.63 212.337 42.545 212.747 42.375C213.167 42.205 213.527 41.945 213.827 41.595L214.427 42.285C214.077 42.705 213.637 43.025 213.107 43.245C212.587 43.465 212.012 43.575 211.382 43.575ZM221.109 35.55C221.749 35.55 222.309 35.675 222.789 35.925C223.279 36.165 223.659 36.535 223.929 37.035C224.209 37.535 224.349 38.165 224.349 38.925V43.5H223.284V39.03C223.284 38.2 223.074 37.575 222.654 37.155C222.244 36.725 221.664 36.51 220.914 36.51C220.354 36.51 219.864 36.625 219.444 36.855C219.034 37.075 218.714 37.4 218.484 37.83C218.264 38.25 218.154 38.76 218.154 39.36V43.5H217.089V35.625H218.109V37.785L217.944 37.38C218.194 36.81 218.594 36.365 219.144 36.045C219.694 35.715 220.349 35.55 221.109 35.55ZM229.716 43.575C228.976 43.575 228.406 43.375 228.006 42.975C227.606 42.575 227.406 42.01 227.406 41.28V33.885H228.471V41.22C228.471 41.68 228.586 42.035 228.816 42.285C229.056 42.535 229.396 42.66 229.836 42.66C230.306 42.66 230.696 42.525 231.006 42.255L231.381 43.02C231.171 43.21 230.916 43.35 230.616 43.44C230.326 43.53 230.026 43.575 229.716 43.575ZM225.996 36.51V35.625H230.871V36.51H225.996ZM237.471 43.5V33H238.386L243.186 41.19H242.706L247.461 33H248.376V43.5H247.311V34.665H247.566L243.186 42.165H242.661L238.251 34.665H238.536V43.5H237.471ZM254.917 43.575C254.097 43.575 253.377 43.405 252.757 43.065C252.137 42.715 251.652 42.24 251.302 41.64C250.952 41.03 250.777 40.335 250.777 39.555C250.777 38.775 250.942 38.085 251.272 37.485C251.612 36.885 252.072 36.415 252.652 36.075C253.242 35.725 253.902 35.55 254.632 35.55C255.372 35.55 256.027 35.72 256.597 36.06C257.177 36.39 257.632 36.86 257.962 37.47C258.292 38.07 258.457 38.765 258.457 39.555C258.457 39.605 258.452 39.66 258.442 39.72C258.442 39.77 258.442 39.825 258.442 39.885H251.587V39.09H257.872L257.452 39.405C257.452 38.835 257.327 38.33 257.077 37.89C256.837 37.44 256.507 37.09 256.087 36.84C255.667 36.59 255.182 36.465 254.632 36.465C254.092 36.465 253.607 36.59 253.177 36.84C252.747 37.09 252.412 37.44 252.172 37.89C251.932 38.34 251.812 38.855 251.812 39.435V39.6C251.812 40.2 251.942 40.73 252.202 41.19C252.472 41.64 252.842 41.995 253.312 42.255C253.792 42.505 254.337 42.63 254.947 42.63C255.427 42.63 255.872 42.545 256.282 42.375C256.702 42.205 257.062 41.945 257.362 41.595L257.962 42.285C257.612 42.705 257.172 43.025 256.642 43.245C256.122 43.465 255.547 43.575 254.917 43.575ZM263.115 43.575C262.375 43.575 261.805 43.375 261.405 42.975C261.005 42.575 260.805 42.01 260.805 41.28V33.885H261.87V41.22C261.87 41.68 261.985 42.035 262.215 42.285C262.455 42.535 262.795 42.66 263.235 42.66C263.705 42.66 264.095 42.525 264.405 42.255L264.78 43.02C264.57 43.21 264.315 43.35 264.015 43.44C263.725 43.53 263.425 43.575 263.115 43.575ZM259.395 36.51V35.625H264.27V36.51H259.395ZM270.738 35.55C271.378 35.55 271.938 35.675 272.418 35.925C272.908 36.165 273.288 36.535 273.558 37.035C273.838 37.535 273.978 38.165 273.978 38.925V43.5H272.913V39.03C272.913 38.2 272.703 37.575 272.283 37.155C271.873 36.725 271.293 36.51 270.543 36.51C269.983 36.51 269.493 36.625 269.073 36.855C268.663 37.075 268.343 37.4 268.113 37.83C267.893 38.25 267.783 38.76 267.783 39.36V43.5H266.718V32.37H267.783V37.785L267.573 37.38C267.823 36.81 268.223 36.365 268.773 36.045C269.323 35.715 269.978 35.55 270.738 35.55ZM280.065 43.575C279.305 43.575 278.62 43.405 278.01 43.065C277.41 42.715 276.935 42.24 276.585 41.64C276.235 41.03 276.06 40.335 276.06 39.555C276.06 38.765 276.235 38.07 276.585 37.47C276.935 36.87 277.41 36.4 278.01 36.06C278.61 35.72 279.295 35.55 280.065 35.55C280.845 35.55 281.535 35.72 282.135 36.06C282.745 36.4 283.22 36.87 283.56 37.47C283.91 38.07 284.085 38.765 284.085 39.555C284.085 40.335 283.91 41.03 283.56 41.64C283.22 42.24 282.745 42.715 282.135 43.065C281.525 43.405 280.835 43.575 280.065 43.575ZM280.065 42.63C280.635 42.63 281.14 42.505 281.58 42.255C282.02 41.995 282.365 41.635 282.615 41.175C282.875 40.705 283.005 40.165 283.005 39.555C283.005 38.935 282.875 38.395 282.615 37.935C282.365 37.475 282.02 37.12 281.58 36.87C281.14 36.61 280.64 36.48 280.08 36.48C279.52 36.48 279.02 36.61 278.58 36.87C278.14 37.12 277.79 37.475 277.53 37.935C277.27 38.395 277.14 38.935 277.14 39.555C277.14 40.165 277.27 40.705 277.53 41.175C277.79 41.635 278.14 41.995 278.58 42.255C279.02 42.505 279.515 42.63 280.065 42.63ZM289.394 43.575C288.644 43.575 287.969 43.405 287.369 43.065C286.779 42.725 286.314 42.255 285.974 41.655C285.634 41.045 285.464 40.345 285.464 39.555C285.464 38.755 285.634 38.055 285.974 37.455C286.314 36.855 286.779 36.39 287.369 36.06C287.969 35.72 288.644 35.55 289.394 35.55C290.084 35.55 290.699 35.705 291.239 36.015C291.789 36.325 292.224 36.78 292.544 37.38C292.874 37.97 293.039 38.695 293.039 39.555C293.039 40.405 292.879 41.13 292.559 41.73C292.239 42.33 291.804 42.79 291.254 43.11C290.714 43.42 290.094 43.575 289.394 43.575ZM289.469 42.63C290.029 42.63 290.529 42.505 290.969 42.255C291.419 41.995 291.769 41.635 292.019 41.175C292.279 40.705 292.409 40.165 292.409 39.555C292.409 38.935 292.279 38.395 292.019 37.935C291.769 37.475 291.419 37.12 290.969 36.87C290.529 36.61 290.029 36.48 289.469 36.48C288.919 36.48 288.424 36.61 287.984 36.87C287.544 37.12 287.194 37.475 286.934 37.935C286.674 38.395 286.544 38.935 286.544 39.555C286.544 40.165 286.674 40.705 286.934 41.175C287.194 41.635 287.544 41.995 287.984 42.255C288.424 42.505 288.919 42.63 289.469 42.63ZM292.439 43.5V41.13L292.544 39.54L292.394 37.95V32.37H293.459V43.5H292.439Z" fill="#9A9CAA"/>
<defs>
<clipPath id="clip0_393_6554">
<rect width="50" height="50" fill="white"/>
</clipPath>
</defs>
</svg>
