<svg width="314" height="48" viewBox="0 0 314 48" fill="none" xmlns="http://www.w3.org/2000/svg">
<path d="M39.2425 31.5651C38.0696 31.5651 36.9554 32.0245 36.1148 32.8553C35.2743 33.6958 34.8051 34.7905 34.8051 35.9634C34.8051 37.1363 35.2645 38.231 36.1148 39.0715C36.9652 39.9023 38.0696 40.3617 39.2425 40.3617C41.6469 40.3617 43.6017 38.3874 43.6017 35.9634C43.6017 33.5395 41.6469 31.5651 39.2425 31.5651ZM39.2425 38.4069C37.8937 38.4069 36.7599 37.2927 36.7599 35.9634C36.7599 34.6341 37.8937 33.5199 39.2425 33.5199C40.5718 33.5199 41.6469 34.6146 41.6469 35.9634C41.6469 37.3122 40.5718 38.4069 39.2425 38.4069ZM40.3763 16.9139C40.2004 16.7478 39.9658 16.6598 39.7214 16.6598H34.7074C34.1698 16.6598 33.73 17.0996 33.73 17.6372V25.6519C33.73 26.1894 34.1698 26.6293 34.7074 26.6293H42.6634C43.201 26.6293 43.6408 26.1894 43.6408 25.6519V20.2859C43.6408 20.0123 43.5235 19.7484 43.3183 19.5627L40.3763 16.9139ZM41.686 24.6745H35.6848V18.6048H39.3403L41.686 20.716V24.6745ZM15.3745 31.5651C14.2016 31.5651 13.0874 32.0245 12.2468 32.8553C11.4062 33.6958 10.9371 34.7905 10.9371 35.9634C10.9371 37.1363 11.3965 38.231 12.2468 39.0715C13.0971 39.9023 14.2016 40.3617 15.3745 40.3617C17.7789 40.3617 19.7337 38.3874 19.7337 35.9634C19.7337 33.5395 17.7789 31.5651 15.3745 31.5651ZM15.3745 38.4069C14.0257 38.4069 12.8919 37.2927 12.8919 35.9634C12.8919 34.6341 14.0257 33.5199 15.3745 33.5199C16.7037 33.5199 17.7789 34.6146 17.7789 35.9634C17.7789 37.3122 16.7037 38.4069 15.3745 38.4069ZM8.85522 32.7673H6.89065V30.1674C6.89065 29.6299 6.45082 29.19 5.91326 29.19C5.37569 29.19 4.93586 29.6299 4.93586 30.1674V33.7447C4.93586 34.2823 5.37569 34.7221 5.91326 34.7221H8.85522C9.39279 34.7221 9.83262 34.2823 9.83262 33.7447C9.83262 33.2071 9.39279 32.7673 8.85522 32.7673ZM13.8106 27.4405C13.8106 26.9029 13.3708 26.4631 12.8332 26.4631H0.977398C0.439829 26.4631 0 26.9029 0 27.4405C0 27.9781 0.439829 28.4179 0.977398 28.4179H12.8332C13.3708 28.4179 13.8106 27.9878 13.8106 27.4405ZM2.96151 23.9121L14.8173 23.9805C15.3549 23.9805 15.7947 23.5505 15.8045 23.0129C15.8143 22.4655 15.3745 22.0257 14.8369 22.0257L2.98106 21.9573C2.97129 21.9573 2.97129 21.9573 2.97129 21.9573C2.43372 21.9573 1.99389 22.3874 1.99389 22.9249C1.98412 23.4723 2.42395 23.9121 2.96151 23.9121ZM4.95541 19.4747H16.8112C17.3488 19.4747 17.7886 19.0349 17.7886 18.4973C17.7886 17.9597 17.3488 17.5199 16.8112 17.5199H4.95541C4.41784 17.5199 3.97801 17.9597 3.97801 18.4973C3.97801 19.0349 4.41784 19.4747 4.95541 19.4747ZM47.6384 18.1552L40.6402 12.3593C40.4643 12.2126 40.2492 12.1345 40.0147 12.1345H31.785V8.61583C31.785 8.07826 31.3451 7.63843 30.8076 7.63843H5.91326C5.37569 7.63843 4.93586 8.07826 4.93586 8.61583V15.7704C4.93586 16.3079 5.37569 16.7478 5.91326 16.7478C6.45082 16.7478 6.89065 16.3079 6.89065 15.7704V9.59322H29.8399V32.7673H21.8253C21.2877 32.7673 20.8479 33.2071 20.8479 33.7447C20.8479 34.2823 21.2877 34.7221 21.8253 34.7221H33.7593C34.2969 34.7221 34.7367 34.2823 34.7367 33.7447C34.7367 33.2071 34.2969 32.7673 33.7593 32.7673H31.7947V14.0893H39.6726L46.0452 19.3672L45.9768 32.7478H44.9603C44.4227 32.7478 43.9829 33.1876 43.9829 33.7252C43.9829 34.2627 44.4227 34.7026 44.9603 34.7026H46.9444C47.482 34.7026 47.9218 34.2725 47.9218 33.7349L48 18.9176C47.9902 18.6244 47.8632 18.3409 47.6384 18.1552Z" fill="#E09A88"/>
<path d="M67.408 8.952H72.992V10.712H67.408V8.952ZM67.584 15H65.504V3.8H73.68V5.544H67.584V15ZM75.3433 15V6.456H77.2473V8.808L77.0233 8.12C77.2793 7.544 77.6793 7.10667 78.2233 6.808C78.7779 6.50933 79.4659 6.36 80.2873 6.36V8.264C80.2019 8.24267 80.1219 8.232 80.0473 8.232C79.9726 8.22133 79.8979 8.216 79.8233 8.216C79.0659 8.216 78.4633 8.44 78.0153 8.888C77.5673 9.32533 77.3433 9.98133 77.3433 10.856V15H75.3433ZM85.9218 15.112C84.9724 15.112 84.1404 14.9253 83.4258 14.552C82.7218 14.168 82.1724 13.6453 81.7778 12.984C81.3938 12.3227 81.2018 11.5707 81.2018 10.728C81.2018 9.87467 81.3884 9.12267 81.7618 8.472C82.1458 7.81067 82.6684 7.29333 83.3298 6.92C84.0018 6.54667 84.7644 6.36 85.6178 6.36C86.4498 6.36 87.1911 6.54133 87.8418 6.904C88.4924 7.26667 89.0044 7.77867 89.3778 8.44C89.7511 9.10133 89.9378 9.88 89.9378 10.776C89.9378 10.8613 89.9324 10.9573 89.9218 11.064C89.9218 11.1707 89.9164 11.272 89.9058 11.368H82.7858V10.04H88.8498L88.0658 10.456C88.0764 9.96533 87.9751 9.53333 87.7618 9.16C87.5484 8.78667 87.2551 8.49333 86.8818 8.28C86.5191 8.06667 86.0978 7.96 85.6178 7.96C85.1271 7.96 84.6951 8.06667 84.3218 8.28C83.9591 8.49333 83.6711 8.792 83.4578 9.176C83.2551 9.54933 83.1538 9.992 83.1538 10.504V10.824C83.1538 11.336 83.2711 11.7893 83.5058 12.184C83.7404 12.5787 84.0711 12.8827 84.4978 13.096C84.9244 13.3093 85.4151 13.416 85.9698 13.416C86.4498 13.416 86.8818 13.3413 87.2658 13.192C87.6498 13.0427 87.9911 12.808 88.2898 12.488L89.3618 13.72C88.9778 14.168 88.4924 14.5147 87.9058 14.76C87.3298 14.9947 86.6684 15.112 85.9218 15.112ZM95.8749 15.112C94.9255 15.112 94.0935 14.9253 93.3789 14.552C92.6749 14.168 92.1255 13.6453 91.7309 12.984C91.3469 12.3227 91.1549 11.5707 91.1549 10.728C91.1549 9.87467 91.3415 9.12267 91.7149 8.472C92.0989 7.81067 92.6215 7.29333 93.2829 6.92C93.9549 6.54667 94.7175 6.36 95.5709 6.36C96.4029 6.36 97.1442 6.54133 97.7949 6.904C98.4455 7.26667 98.9575 7.77867 99.3309 8.44C99.7042 9.10133 99.8909 9.88 99.8909 10.776C99.8909 10.8613 99.8855 10.9573 99.8749 11.064C99.8749 11.1707 99.8695 11.272 99.8589 11.368H92.7389V10.04H98.8029L98.0189 10.456C98.0295 9.96533 97.9282 9.53333 97.7149 9.16C97.5015 8.78667 97.2082 8.49333 96.8349 8.28C96.4722 8.06667 96.0509 7.96 95.5709 7.96C95.0802 7.96 94.6482 8.06667 94.2749 8.28C93.9122 8.49333 93.6242 8.792 93.4109 9.176C93.2082 9.54933 93.1069 9.992 93.1069 10.504V10.824C93.1069 11.336 93.2242 11.7893 93.4589 12.184C93.6935 12.5787 94.0242 12.8827 94.4509 13.096C94.8775 13.3093 95.3682 13.416 95.9229 13.416C96.4029 13.416 96.8349 13.3413 97.2189 13.192C97.6029 13.0427 97.9442 12.808 98.2429 12.488L99.3149 13.72C98.9309 14.168 98.4455 14.5147 97.8589 14.76C97.2829 14.9947 96.6215 15.112 95.8749 15.112ZM106.426 15V3.8H111.322C112.538 3.8 113.605 4.03467 114.522 4.504C115.439 4.97333 116.154 5.624 116.666 6.456C117.178 7.288 117.434 8.26933 117.434 9.4C117.434 10.52 117.178 11.5013 116.666 12.344C116.154 13.176 115.439 13.8267 114.522 14.296C113.605 14.7653 112.538 15 111.322 15H106.426ZM108.506 13.24H111.226C112.069 13.24 112.794 13.08 113.402 12.76C114.021 12.44 114.495 11.992 114.826 11.416C115.167 10.84 115.338 10.168 115.338 9.4C115.338 8.62133 115.167 7.94933 114.826 7.384C114.495 6.808 114.021 6.36 113.402 6.04C112.794 5.72 112.069 5.56 111.226 5.56H108.506V13.24ZM123.469 15.112C122.519 15.112 121.687 14.9253 120.973 14.552C120.269 14.168 119.719 13.6453 119.325 12.984C118.941 12.3227 118.749 11.5707 118.749 10.728C118.749 9.87467 118.935 9.12267 119.309 8.472C119.693 7.81067 120.215 7.29333 120.877 6.92C121.549 6.54667 122.311 6.36 123.165 6.36C123.997 6.36 124.738 6.54133 125.389 6.904C126.039 7.26667 126.551 7.77867 126.925 8.44C127.298 9.10133 127.485 9.88 127.485 10.776C127.485 10.8613 127.479 10.9573 127.469 11.064C127.469 11.1707 127.463 11.272 127.453 11.368H120.333V10.04H126.397L125.613 10.456C125.623 9.96533 125.522 9.53333 125.309 9.16C125.095 8.78667 124.802 8.49333 124.429 8.28C124.066 8.06667 123.645 7.96 123.165 7.96C122.674 7.96 122.242 8.06667 121.869 8.28C121.506 8.49333 121.218 8.792 121.005 9.176C120.802 9.54933 120.701 9.992 120.701 10.504V10.824C120.701 11.336 120.818 11.7893 121.053 12.184C121.287 12.5787 121.618 12.8827 122.045 13.096C122.471 13.3093 122.962 13.416 123.517 13.416C123.997 13.416 124.429 13.3413 124.813 13.192C125.197 13.0427 125.538 12.808 125.837 12.488L126.909 13.72C126.525 14.168 126.039 14.5147 125.453 14.76C124.877 14.9947 124.215 15.112 123.469 15.112ZM129.406 15V3.128H131.406V15H129.406ZM134.031 15V6.456H136.031V15H134.031ZM135.039 5.048C134.665 5.048 134.356 4.93067 134.111 4.696C133.876 4.46133 133.759 4.17867 133.759 3.848C133.759 3.50667 133.876 3.224 134.111 3C134.356 2.76533 134.665 2.648 135.039 2.648C135.412 2.648 135.716 2.76 135.951 2.984C136.196 3.19733 136.319 3.46933 136.319 3.8C136.319 4.152 136.201 4.45067 135.967 4.696C135.732 4.93067 135.423 5.048 135.039 5.048ZM140.928 15L137.264 6.456H139.344L142.496 13.992H141.472L144.736 6.456H146.656L142.992 15H140.928ZM151.687 15.112C150.738 15.112 149.906 14.9253 149.191 14.552C148.487 14.168 147.938 13.6453 147.543 12.984C147.159 12.3227 146.967 11.5707 146.967 10.728C146.967 9.87467 147.154 9.12267 147.527 8.472C147.911 7.81067 148.434 7.29333 149.095 6.92C149.767 6.54667 150.53 6.36 151.383 6.36C152.215 6.36 152.957 6.54133 153.607 6.904C154.258 7.26667 154.77 7.77867 155.143 8.44C155.517 9.10133 155.703 9.88 155.703 10.776C155.703 10.8613 155.698 10.9573 155.687 11.064C155.687 11.1707 155.682 11.272 155.671 11.368H148.551V10.04H154.615L153.831 10.456C153.842 9.96533 153.741 9.53333 153.527 9.16C153.314 8.78667 153.021 8.49333 152.647 8.28C152.285 8.06667 151.863 7.96 151.383 7.96C150.893 7.96 150.461 8.06667 150.087 8.28C149.725 8.49333 149.437 8.792 149.223 9.176C149.021 9.54933 148.919 9.992 148.919 10.504V10.824C148.919 11.336 149.037 11.7893 149.271 12.184C149.506 12.5787 149.837 12.8827 150.263 13.096C150.69 13.3093 151.181 13.416 151.735 13.416C152.215 13.416 152.647 13.3413 153.031 13.192C153.415 13.0427 153.757 12.808 154.055 12.488L155.127 13.72C154.743 14.168 154.258 14.5147 153.671 14.76C153.095 14.9947 152.434 15.112 151.687 15.112ZM157.625 15V6.456H159.529V8.808L159.305 8.12C159.561 7.544 159.961 7.10667 160.505 6.808C161.059 6.50933 161.747 6.36 162.569 6.36V8.264C162.483 8.24267 162.403 8.232 162.329 8.232C162.254 8.22133 162.179 8.216 162.105 8.216C161.347 8.216 160.745 8.44 160.297 8.888C159.849 9.32533 159.625 9.98133 159.625 10.856V15H157.625ZM165.282 18.216C164.866 18.216 164.45 18.1467 164.034 18.008C163.618 17.8693 163.271 17.6773 162.994 17.432L163.794 15.96C163.996 16.1413 164.226 16.2853 164.482 16.392C164.738 16.4987 164.999 16.552 165.266 16.552C165.628 16.552 165.922 16.4613 166.146 16.28C166.37 16.0987 166.578 15.7947 166.77 15.368L167.266 14.248L167.426 14.008L170.658 6.456H172.578L168.578 15.688C168.311 16.328 168.012 16.8347 167.682 17.208C167.362 17.5813 166.999 17.8427 166.594 17.992C166.199 18.1413 165.762 18.216 165.282 18.216ZM167.042 15.304L163.186 6.456H165.266L168.402 13.832L167.042 15.304Z" fill="black"/>
<path d="M66.73 37.834H71.784V39.038H66.73V37.834ZM66.87 43H65.47V33.2H72.386V34.418H66.87V43ZM74.024 43V35.58H75.312V37.596L75.186 37.092C75.3913 36.5787 75.7367 36.1867 76.222 35.916C76.7073 35.6453 77.3047 35.51 78.014 35.51V36.812C77.958 36.8027 77.902 36.798 77.846 36.798C77.7993 36.798 77.7527 36.798 77.706 36.798C76.9873 36.798 76.418 37.0127 75.998 37.442C75.578 37.8713 75.368 38.492 75.368 39.304V43H74.024ZM82.9061 43.084C82.1128 43.084 81.4128 42.9207 80.8061 42.594C80.2088 42.2673 79.7421 41.8193 79.4061 41.25C79.0795 40.6807 78.9161 40.0273 78.9161 39.29C78.9161 38.5527 79.0748 37.8993 79.3921 37.33C79.7188 36.7607 80.1621 36.3173 80.7221 36C81.2915 35.6733 81.9308 35.51 82.6401 35.51C83.3588 35.51 83.9935 35.6687 84.5441 35.986C85.0948 36.3033 85.5241 36.7513 85.8321 37.33C86.1495 37.8993 86.3081 38.5667 86.3081 39.332C86.3081 39.388 86.3035 39.4533 86.2941 39.528C86.2941 39.6027 86.2895 39.6727 86.2801 39.738H79.9661V38.772H85.5801L85.0341 39.108C85.0435 38.632 84.9455 38.2073 84.7401 37.834C84.5348 37.4607 84.2501 37.1713 83.8861 36.966C83.5315 36.7513 83.1161 36.644 82.6401 36.644C82.1735 36.644 81.7581 36.7513 81.3941 36.966C81.0301 37.1713 80.7455 37.4653 80.5401 37.848C80.3348 38.2213 80.2321 38.6507 80.2321 39.136V39.36C80.2321 39.8547 80.3441 40.298 80.5681 40.69C80.8015 41.0727 81.1235 41.3713 81.5341 41.586C81.9448 41.8007 82.4161 41.908 82.9481 41.908C83.3868 41.908 83.7835 41.8333 84.1381 41.684C84.5021 41.5347 84.8195 41.3107 85.0901 41.012L85.8321 41.88C85.4961 42.272 85.0761 42.5707 84.5721 42.776C84.0775 42.9813 83.5221 43.084 82.9061 43.084ZM91.4784 43.084C90.6851 43.084 89.9851 42.9207 89.3784 42.594C88.7811 42.2673 88.3144 41.8193 87.9784 41.25C87.6517 40.6807 87.4884 40.0273 87.4884 39.29C87.4884 38.5527 87.6471 37.8993 87.9644 37.33C88.2911 36.7607 88.7344 36.3173 89.2944 36C89.8637 35.6733 90.5031 35.51 91.2124 35.51C91.9311 35.51 92.5657 35.6687 93.1164 35.986C93.6671 36.3033 94.0964 36.7513 94.4044 37.33C94.7217 37.8993 94.8804 38.5667 94.8804 39.332C94.8804 39.388 94.8757 39.4533 94.8664 39.528C94.8664 39.6027 94.8617 39.6727 94.8524 39.738H88.5384V38.772H94.1524L93.6064 39.108C93.6157 38.632 93.5177 38.2073 93.3124 37.834C93.1071 37.4607 92.8224 37.1713 92.4584 36.966C92.1037 36.7513 91.6884 36.644 91.2124 36.644C90.7457 36.644 90.3304 36.7513 89.9664 36.966C89.6024 37.1713 89.3177 37.4653 89.1124 37.848C88.9071 38.2213 88.8044 38.6507 88.8044 39.136V39.36C88.8044 39.8547 88.9164 40.298 89.1404 40.69C89.3737 41.0727 89.6957 41.3713 90.1064 41.586C90.5171 41.8007 90.9884 41.908 91.5204 41.908C91.9591 41.908 92.3557 41.8333 92.7104 41.684C93.0744 41.5347 93.3917 41.3107 93.6624 41.012L94.4044 41.88C94.0684 42.272 93.6484 42.5707 93.1444 42.776C92.6497 42.9813 92.0944 43.084 91.4784 43.084ZM102.634 43.084C102.018 43.084 101.43 43 100.87 42.832C100.32 42.664 99.8858 42.4587 99.5684 42.216L100.128 41.152C100.446 41.3667 100.838 41.5487 101.304 41.698C101.771 41.8473 102.247 41.922 102.732 41.922C103.358 41.922 103.806 41.8333 104.076 41.656C104.356 41.4787 104.496 41.2313 104.496 40.914C104.496 40.6807 104.412 40.4987 104.244 40.368C104.076 40.2373 103.852 40.1393 103.572 40.074C103.302 40.0087 102.998 39.9527 102.662 39.906C102.326 39.85 101.99 39.7847 101.654 39.71C101.318 39.626 101.01 39.514 100.73 39.374C100.45 39.2247 100.226 39.024 100.058 38.772C99.8904 38.5107 99.8064 38.1653 99.8064 37.736C99.8064 37.288 99.9324 36.896 100.184 36.56C100.436 36.224 100.791 35.9673 101.248 35.79C101.715 35.6033 102.266 35.51 102.9 35.51C103.386 35.51 103.876 35.5707 104.37 35.692C104.874 35.804 105.285 35.9673 105.602 36.182L105.028 37.246C104.692 37.022 104.342 36.868 103.978 36.784C103.614 36.7 103.25 36.658 102.886 36.658C102.298 36.658 101.86 36.756 101.57 36.952C101.281 37.1387 101.136 37.3813 101.136 37.68C101.136 37.932 101.22 38.128 101.388 38.268C101.566 38.3987 101.79 38.5013 102.06 38.576C102.34 38.6507 102.648 38.716 102.984 38.772C103.32 38.8187 103.656 38.884 103.992 38.968C104.328 39.0427 104.632 39.15 104.902 39.29C105.182 39.43 105.406 39.626 105.574 39.878C105.752 40.13 105.84 40.466 105.84 40.886C105.84 41.334 105.71 41.7213 105.448 42.048C105.187 42.3747 104.818 42.6313 104.342 42.818C103.866 42.9953 103.297 43.084 102.634 43.084ZM111.482 35.51C112.089 35.51 112.621 35.6267 113.078 35.86C113.545 36.0933 113.909 36.448 114.17 36.924C114.431 37.4 114.562 38.002 114.562 38.73V43H113.218V38.884C113.218 38.1653 113.041 37.624 112.686 37.26C112.341 36.896 111.851 36.714 111.216 36.714C110.74 36.714 110.325 36.8073 109.97 36.994C109.615 37.1807 109.34 37.456 109.144 37.82C108.957 38.184 108.864 38.6367 108.864 39.178V43H107.52V32.612H108.864V37.582L108.598 37.05C108.841 36.5647 109.214 36.1867 109.718 35.916C110.222 35.6453 110.81 35.51 111.482 35.51ZM117.049 43V35.58H118.393V43H117.049ZM117.721 34.152C117.46 34.152 117.241 34.068 117.063 33.9C116.895 33.732 116.811 33.5267 116.811 33.284C116.811 33.032 116.895 32.822 117.063 32.654C117.241 32.486 117.46 32.402 117.721 32.402C117.983 32.402 118.197 32.486 118.365 32.654C118.543 32.8127 118.631 33.0133 118.631 33.256C118.631 33.508 118.547 33.7227 118.379 33.9C118.211 34.068 117.992 34.152 117.721 34.152ZM124.894 43.084C124.278 43.084 123.713 42.944 123.2 42.664C122.696 42.3747 122.29 41.95 121.982 41.39C121.683 40.83 121.534 40.13 121.534 39.29C121.534 38.45 121.678 37.75 121.968 37.19C122.266 36.63 122.668 36.21 123.172 35.93C123.685 35.65 124.259 35.51 124.894 35.51C125.622 35.51 126.266 35.6687 126.826 35.986C127.386 36.3033 127.829 36.7467 128.156 37.316C128.482 37.876 128.646 38.534 128.646 39.29C128.646 40.046 128.482 40.7087 128.156 41.278C127.829 41.8473 127.386 42.2907 126.826 42.608C126.266 42.9253 125.622 43.084 124.894 43.084ZM120.96 45.716V35.58H122.248V37.582L122.164 39.304L122.304 41.026V45.716H120.96ZM124.782 41.908C125.258 41.908 125.682 41.8007 126.056 41.586C126.438 41.3713 126.737 41.068 126.952 40.676C127.176 40.2747 127.288 39.8127 127.288 39.29C127.288 38.758 127.176 38.3007 126.952 37.918C126.737 37.526 126.438 37.2227 126.056 37.008C125.682 36.7933 125.258 36.686 124.782 36.686C124.315 36.686 123.89 36.7933 123.508 37.008C123.134 37.2227 122.836 37.526 122.612 37.918C122.397 38.3007 122.29 38.758 122.29 39.29C122.29 39.8127 122.397 40.2747 122.612 40.676C122.836 41.068 123.134 41.3713 123.508 41.586C123.89 41.8007 124.315 41.908 124.782 41.908ZM134.437 43.084C133.821 43.084 133.256 42.944 132.743 42.664C132.239 42.3747 131.833 41.95 131.525 41.39C131.226 40.83 131.077 40.13 131.077 39.29C131.077 38.45 131.221 37.75 131.511 37.19C131.809 36.63 132.211 36.21 132.715 35.93C133.228 35.65 133.802 35.51 134.437 35.51C135.165 35.51 135.809 35.6687 136.369 35.986C136.929 36.3033 137.372 36.7467 137.699 37.316C138.025 37.876 138.189 38.534 138.189 39.29C138.189 40.046 138.025 40.7087 137.699 41.278C137.372 41.8473 136.929 42.2907 136.369 42.608C135.809 42.9253 135.165 43.084 134.437 43.084ZM130.503 45.716V35.58H131.791V37.582L131.707 39.304L131.847 41.026V45.716H130.503ZM134.325 41.908C134.801 41.908 135.225 41.8007 135.599 41.586C135.981 41.3713 136.28 41.068 136.495 40.676C136.719 40.2747 136.831 39.8127 136.831 39.29C136.831 38.758 136.719 38.3007 136.495 37.918C136.28 37.526 135.981 37.2227 135.599 37.008C135.225 36.7933 134.801 36.686 134.325 36.686C133.858 36.686 133.433 36.7933 133.051 37.008C132.677 37.2227 132.379 37.526 132.155 37.918C131.94 38.3007 131.833 38.758 131.833 39.29C131.833 39.8127 131.94 40.2747 132.155 40.676C132.379 41.068 132.677 41.3713 133.051 41.586C133.433 41.8007 133.858 41.908 134.325 41.908ZM140.045 43V35.58H141.389V43H140.045ZM140.717 34.152C140.456 34.152 140.237 34.068 140.059 33.9C139.891 33.732 139.807 33.5267 139.807 33.284C139.807 33.032 139.891 32.822 140.059 32.654C140.237 32.486 140.456 32.402 140.717 32.402C140.979 32.402 141.193 32.486 141.361 32.654C141.539 32.8127 141.627 33.0133 141.627 33.256C141.627 33.508 141.543 33.7227 141.375 33.9C141.207 34.068 140.988 34.152 140.717 34.152ZM147.918 35.51C148.524 35.51 149.056 35.6267 149.514 35.86C149.98 36.0933 150.344 36.448 150.606 36.924C150.867 37.4 150.998 38.002 150.998 38.73V43H149.654V38.884C149.654 38.1653 149.476 37.624 149.122 37.26C148.776 36.896 148.286 36.714 147.652 36.714C147.176 36.714 146.76 36.8073 146.406 36.994C146.051 37.1807 145.776 37.456 145.58 37.82C145.393 38.184 145.3 38.6367 145.3 39.178V43H143.956V35.58H145.244V37.582L145.034 37.05C145.276 36.5647 145.65 36.1867 146.154 35.916C146.658 35.6453 147.246 35.51 147.918 35.51ZM156.733 45.8C156.052 45.8 155.389 45.702 154.745 45.506C154.11 45.3193 153.592 45.0487 153.191 44.694L153.835 43.658C154.18 43.9567 154.605 44.19 155.109 44.358C155.613 44.5353 156.14 44.624 156.691 44.624C157.568 44.624 158.212 44.4187 158.623 44.008C159.034 43.5973 159.239 42.972 159.239 42.132V40.564L159.379 39.094L159.309 37.61V35.58H160.583V41.992C160.583 43.2987 160.256 44.26 159.603 44.876C158.95 45.492 157.993 45.8 156.733 45.8ZM156.565 42.692C155.846 42.692 155.202 42.5427 154.633 42.244C154.073 41.936 153.625 41.5113 153.289 40.97C152.962 40.4287 152.799 39.8033 152.799 39.094C152.799 38.3753 152.962 37.75 153.289 37.218C153.625 36.6767 154.073 36.2567 154.633 35.958C155.202 35.6593 155.846 35.51 156.565 35.51C157.2 35.51 157.778 35.6407 158.301 35.902C158.824 36.154 159.239 36.546 159.547 37.078C159.864 37.61 160.023 38.282 160.023 39.094C160.023 39.8967 159.864 40.564 159.547 41.096C159.239 41.628 158.824 42.0293 158.301 42.3C157.778 42.5613 157.2 42.692 156.565 42.692ZM156.719 41.516C157.214 41.516 157.652 41.4133 158.035 41.208C158.418 41.0027 158.716 40.718 158.931 40.354C159.155 39.99 159.267 39.57 159.267 39.094C159.267 38.618 159.155 38.198 158.931 37.834C158.716 37.47 158.418 37.19 158.035 36.994C157.652 36.7887 157.214 36.686 156.719 36.686C156.224 36.686 155.781 36.7887 155.389 36.994C155.006 37.19 154.703 37.47 154.479 37.834C154.264 38.198 154.157 38.618 154.157 39.094C154.157 39.57 154.264 39.99 154.479 40.354C154.703 40.718 155.006 41.0027 155.389 41.208C155.781 41.4133 156.224 41.516 156.719 41.516ZM170.089 43.084C169.342 43.084 168.679 42.9207 168.101 42.594C167.522 42.2673 167.065 41.8193 166.729 41.25C166.393 40.6713 166.225 40.018 166.225 39.29C166.225 38.5527 166.393 37.8993 166.729 37.33C167.065 36.7607 167.522 36.3173 168.101 36C168.679 35.6733 169.342 35.51 170.089 35.51C170.826 35.51 171.484 35.6733 172.063 36C172.651 36.3173 173.108 36.7607 173.435 37.33C173.771 37.89 173.939 38.5433 173.939 39.29C173.939 40.0273 173.771 40.6807 173.435 41.25C173.108 41.8193 172.651 42.2673 172.063 42.594C171.484 42.9207 170.826 43.084 170.089 43.084ZM170.089 41.908C170.565 41.908 170.989 41.8007 171.363 41.586C171.745 41.3713 172.044 41.068 172.259 40.676C172.473 40.2747 172.581 39.8127 172.581 39.29C172.581 38.758 172.473 38.3007 172.259 37.918C172.044 37.526 171.745 37.2227 171.363 37.008C170.989 36.7933 170.565 36.686 170.089 36.686C169.613 36.686 169.188 36.7933 168.815 37.008C168.441 37.2227 168.143 37.526 167.919 37.918C167.695 38.3007 167.583 38.758 167.583 39.29C167.583 39.8127 167.695 40.2747 167.919 40.676C168.143 41.068 168.441 41.3713 168.815 41.586C169.188 41.8007 169.613 41.908 170.089 41.908ZM179.759 35.51C180.366 35.51 180.898 35.6267 181.355 35.86C181.822 36.0933 182.186 36.448 182.447 36.924C182.709 37.4 182.839 38.002 182.839 38.73V43H181.495V38.884C181.495 38.1653 181.318 37.624 180.963 37.26C180.618 36.896 180.128 36.714 179.493 36.714C179.017 36.714 178.602 36.8073 178.247 36.994C177.893 37.1807 177.617 37.456 177.421 37.82C177.235 38.184 177.141 38.6367 177.141 39.178V43H175.797V35.58H177.085V37.582L176.875 37.05C177.118 36.5647 177.491 36.1867 177.995 35.916C178.499 35.6453 179.087 35.51 179.759 35.51ZM193.693 43V41.432L193.623 41.138V38.464C193.623 37.8947 193.455 37.456 193.119 37.148C192.792 36.8307 192.297 36.672 191.635 36.672C191.196 36.672 190.767 36.7467 190.347 36.896C189.927 37.036 189.572 37.2273 189.283 37.47L188.723 36.462C189.105 36.154 189.563 35.9207 190.095 35.762C190.636 35.594 191.201 35.51 191.789 35.51C192.806 35.51 193.59 35.7573 194.141 36.252C194.691 36.7467 194.967 37.5027 194.967 38.52V43H193.693ZM191.257 43.084C190.706 43.084 190.221 42.9907 189.801 42.804C189.39 42.6173 189.073 42.3607 188.849 42.034C188.625 41.698 188.513 41.32 188.513 40.9C188.513 40.4987 188.606 40.1347 188.793 39.808C188.989 39.4813 189.301 39.22 189.731 39.024C190.169 38.828 190.757 38.73 191.495 38.73H193.847V39.696H191.551C190.879 39.696 190.426 39.808 190.193 40.032C189.959 40.256 189.843 40.5267 189.843 40.844C189.843 41.208 189.987 41.502 190.277 41.726C190.566 41.9407 190.967 42.048 191.481 42.048C191.985 42.048 192.423 41.936 192.797 41.712C193.179 41.488 193.455 41.1613 193.623 40.732L193.889 41.656C193.711 42.0947 193.399 42.4447 192.951 42.706C192.503 42.958 191.938 43.084 191.257 43.084ZM197.454 43V32.612H198.798V43H197.454ZM201.364 43V32.612H202.708V43H201.364ZM209.356 45.8C209.001 45.8 208.656 45.7393 208.32 45.618C207.984 45.506 207.694 45.338 207.452 45.114L208.026 44.106C208.212 44.2833 208.418 44.4187 208.642 44.512C208.866 44.6053 209.104 44.652 209.356 44.652C209.682 44.652 209.953 44.568 210.168 44.4C210.382 44.232 210.583 43.9333 210.77 43.504L211.232 42.482L211.372 42.314L214.284 35.58H215.6L212.002 43.742C211.787 44.2647 211.544 44.6753 211.274 44.974C211.012 45.2727 210.723 45.4827 210.406 45.604C210.088 45.7347 209.738 45.8 209.356 45.8ZM211.12 43.238L207.732 35.58H209.132L212.016 42.188L211.12 43.238ZM219.827 43.084C219.08 43.084 218.418 42.9207 217.839 42.594C217.26 42.2673 216.803 41.8193 216.467 41.25C216.131 40.6713 215.963 40.018 215.963 39.29C215.963 38.5527 216.131 37.8993 216.467 37.33C216.803 36.7607 217.26 36.3173 217.839 36C218.418 35.6733 219.08 35.51 219.827 35.51C220.564 35.51 221.222 35.6733 221.801 36C222.389 36.3173 222.846 36.7607 223.173 37.33C223.509 37.89 223.677 38.5433 223.677 39.29C223.677 40.0273 223.509 40.6807 223.173 41.25C222.846 41.8193 222.389 42.2673 221.801 42.594C221.222 42.9207 220.564 43.084 219.827 43.084ZM219.827 41.908C220.303 41.908 220.728 41.8007 221.101 41.586C221.484 41.3713 221.782 41.068 221.997 40.676C222.212 40.2747 222.319 39.8127 222.319 39.29C222.319 38.758 222.212 38.3007 221.997 37.918C221.782 37.526 221.484 37.2227 221.101 37.008C220.728 36.7933 220.303 36.686 219.827 36.686C219.351 36.686 218.926 36.7933 218.553 37.008C218.18 37.2227 217.881 37.526 217.657 37.918C217.433 38.3007 217.321 38.758 217.321 39.29C217.321 39.8127 217.433 40.2747 217.657 40.676C217.881 41.068 218.18 41.3713 218.553 41.586C218.926 41.8007 219.351 41.908 219.827 41.908ZM228.658 43.084C228.023 43.084 227.463 42.9673 226.978 42.734C226.502 42.5007 226.128 42.146 225.858 41.67C225.596 41.1847 225.466 40.578 225.466 39.85V35.58H226.81V39.696C226.81 40.424 226.982 40.97 227.328 41.334C227.682 41.698 228.177 41.88 228.812 41.88C229.278 41.88 229.684 41.7867 230.03 41.6C230.375 41.404 230.641 41.124 230.828 40.76C231.014 40.3867 231.108 39.9387 231.108 39.416V35.58H232.452V43H231.178V40.998L231.388 41.53C231.145 42.0247 230.781 42.4073 230.296 42.678C229.81 42.9487 229.264 43.084 228.658 43.084ZM235.01 43V35.58H236.298V37.596L236.172 37.092C236.378 36.5787 236.723 36.1867 237.208 35.916C237.694 35.6453 238.291 35.51 239 35.51V36.812C238.944 36.8027 238.888 36.798 238.832 36.798C238.786 36.798 238.739 36.798 238.692 36.798C237.974 36.798 237.404 37.0127 236.984 37.442C236.564 37.8713 236.354 38.492 236.354 39.304V43H235.01ZM247.69 43.084C246.944 43.084 246.281 42.9207 245.702 42.594C245.124 42.2673 244.666 41.8193 244.33 41.25C243.994 40.6713 243.826 40.018 243.826 39.29C243.826 38.5527 243.994 37.8993 244.33 37.33C244.666 36.7607 245.124 36.3173 245.702 36C246.281 35.6733 246.944 35.51 247.69 35.51C248.428 35.51 249.086 35.6733 249.664 36C250.252 36.3173 250.71 36.7607 251.036 37.33C251.372 37.89 251.54 38.5433 251.54 39.29C251.54 40.0273 251.372 40.6807 251.036 41.25C250.71 41.8193 250.252 42.2673 249.664 42.594C249.086 42.9207 248.428 43.084 247.69 43.084ZM247.69 41.908C248.166 41.908 248.591 41.8007 248.964 41.586C249.347 41.3713 249.646 41.068 249.86 40.676C250.075 40.2747 250.182 39.8127 250.182 39.29C250.182 38.758 250.075 38.3007 249.86 37.918C249.646 37.526 249.347 37.2227 248.964 37.008C248.591 36.7933 248.166 36.686 247.69 36.686C247.214 36.686 246.79 36.7933 246.416 37.008C246.043 37.2227 245.744 37.526 245.52 37.918C245.296 38.3007 245.184 38.758 245.184 39.29C245.184 39.8127 245.296 40.2747 245.52 40.676C245.744 41.068 246.043 41.3713 246.416 41.586C246.79 41.8007 247.214 41.908 247.69 41.908ZM253.399 43V35.58H254.687V37.596L254.561 37.092C254.766 36.5787 255.112 36.1867 255.597 35.916C256.082 35.6453 256.68 35.51 257.389 35.51V36.812C257.333 36.8027 257.277 36.798 257.221 36.798C257.174 36.798 257.128 36.798 257.081 36.798C256.362 36.798 255.793 37.0127 255.373 37.442C254.953 37.8713 254.743 38.492 254.743 39.304V43H253.399ZM262.043 43.084C261.324 43.084 260.68 42.9253 260.111 42.608C259.551 42.2907 259.108 41.8473 258.781 41.278C258.454 40.7087 258.291 40.046 258.291 39.29C258.291 38.534 258.454 37.876 258.781 37.316C259.108 36.7467 259.551 36.3033 260.111 35.986C260.68 35.6687 261.324 35.51 262.043 35.51C262.668 35.51 263.233 35.65 263.737 35.93C264.241 36.21 264.642 36.63 264.941 37.19C265.249 37.75 265.403 38.45 265.403 39.29C265.403 40.13 265.254 40.83 264.955 41.39C264.666 41.95 264.269 42.3747 263.765 42.664C263.261 42.944 262.687 43.084 262.043 43.084ZM262.155 41.908C262.622 41.908 263.042 41.8007 263.415 41.586C263.798 41.3713 264.096 41.068 264.311 40.676C264.535 40.2747 264.647 39.8127 264.647 39.29C264.647 38.758 264.535 38.3007 264.311 37.918C264.096 37.526 263.798 37.2227 263.415 37.008C263.042 36.7933 262.622 36.686 262.155 36.686C261.679 36.686 261.254 36.7933 260.881 37.008C260.508 37.2227 260.209 37.526 259.985 37.918C259.761 38.3007 259.649 38.758 259.649 39.29C259.649 39.8127 259.761 40.2747 259.985 40.676C260.209 41.068 260.508 41.3713 260.881 41.586C261.254 41.8007 261.679 41.908 262.155 41.908ZM264.689 43V40.998L264.773 39.276L264.633 37.554V32.612H265.977V43H264.689ZM271.824 43.084C271.031 43.084 270.331 42.9207 269.724 42.594C269.127 42.2673 268.66 41.8193 268.324 41.25C267.997 40.6807 267.834 40.0273 267.834 39.29C267.834 38.5527 267.993 37.8993 268.31 37.33C268.637 36.7607 269.08 36.3173 269.64 36C270.209 35.6733 270.849 35.51 271.558 35.51C272.277 35.51 272.911 35.6687 273.462 35.986C274.013 36.3033 274.442 36.7513 274.75 37.33C275.067 37.8993 275.226 38.5667 275.226 39.332C275.226 39.388 275.221 39.4533 275.212 39.528C275.212 39.6027 275.207 39.6727 275.198 39.738H268.884V38.772H274.498L273.952 39.108C273.961 38.632 273.863 38.2073 273.658 37.834C273.453 37.4607 273.168 37.1713 272.804 36.966C272.449 36.7513 272.034 36.644 271.558 36.644C271.091 36.644 270.676 36.7513 270.312 36.966C269.948 37.1713 269.663 37.4653 269.458 37.848C269.253 38.2213 269.15 38.6507 269.15 39.136V39.36C269.15 39.8547 269.262 40.298 269.486 40.69C269.719 41.0727 270.041 41.3713 270.452 41.586C270.863 41.8007 271.334 41.908 271.866 41.908C272.305 41.908 272.701 41.8333 273.056 41.684C273.42 41.5347 273.737 41.3107 274.008 41.012L274.75 41.88C274.414 42.272 273.994 42.5707 273.49 42.776C272.995 42.9813 272.44 43.084 271.824 43.084ZM277.092 43V35.58H278.38V37.596L278.254 37.092C278.46 36.5787 278.805 36.1867 279.29 35.916C279.776 35.6453 280.373 35.51 281.082 35.51V36.812C281.026 36.8027 280.97 36.798 280.914 36.798C280.868 36.798 280.821 36.798 280.774 36.798C280.056 36.798 279.486 37.0127 279.066 37.442C278.646 37.8713 278.436 38.492 278.436 39.304V43H277.092Z" fill="#999999"/>
</svg>
