<svg width="24" height="24" viewBox="0 0 24 24" fill="none" xmlns="http://www.w3.org/2000/svg">
<path d="M22.72 4.94601L22.7241 4.95352L22.7284 4.96089C22.9871 5.40032 23.1826 5.87359 23.3092 6.3669L23.3098 6.36889C23.4437 6.88199 23.5075 7.41072 23.4993 7.94076L23.4992 7.94076L23.4993 7.95165C23.5056 8.95814 23.2394 9.94789 22.7283 10.8168L22.7282 10.8168L22.722 10.8279C22.4715 11.2798 22.1531 11.6966 21.7811 12.0606L21.7811 12.0606L21.7781 12.0636L12 21.7946L2.2219 12.0636L2.22054 12.0622C1.84651 11.6929 1.52295 11.2762 1.25816 10.823C1.01309 10.3806 0.822208 9.91068 0.68956 9.42317C0.563766 8.94197 0.500749 8.44625 0.500749 7.94848H0.500808L0.50069 7.94081C0.492557 7.41074 0.556313 6.88198 0.690244 6.36883L0.690274 6.36884L0.69162 6.36344C0.942156 5.35783 1.47042 4.44171 2.21702 3.71875L2.21705 3.71877L2.22131 3.71455C2.76977 3.17055 3.41933 2.73765 4.13395 2.44001C5.57117 1.85346 7.18274 1.85333 8.62004 2.43961C9.28845 2.7215 9.90322 3.11515 10.4378 3.60336L10.5024 3.68056L10.517 3.69795L10.5331 3.71396L11.6473 4.82281L12 5.17381L12.3527 4.82281L13.4669 3.71396L13.483 3.69795L13.4976 3.68056L13.5622 3.60336C14.0968 3.11515 14.7115 2.7215 15.38 2.4396C16.8173 1.85332 18.4288 1.85347 19.8661 2.44003C20.5807 2.73767 21.2302 3.17056 21.7787 3.71455L21.7786 3.7146L21.7845 3.7202C22.1578 4.07867 22.4733 4.49213 22.72 4.94601Z" stroke="#787878"/>
</svg>
