<svg width="224" height="46" viewBox="0 0 224 46" fill="none" xmlns="http://www.w3.org/2000/svg">
<g clip-path="url(#clip0_393_6493)">
<path d="M44.1759 10.1498L23.2901 0.0669785C23.1049 -0.0223262 22.8893 -0.0223262 22.7042 0.0669785L1.81835 10.1498C1.58547 10.2622 1.4375 10.498 1.4375 10.7566V35.2434C1.4375 35.502 1.58547 35.7378 1.81835 35.8502L22.7041 45.933C22.7967 45.9777 22.897 46 22.9971 46C23.0973 46 23.1975 45.9777 23.2901 45.933L44.1759 35.8502C44.4088 35.7378 44.5568 35.502 44.5568 35.2434V10.7567C44.5568 10.4979 44.4087 10.2623 44.1759 10.1498ZM22.9971 1.42209L42.333 10.7566L36.7279 13.4625C36.6925 13.4355 36.655 13.4105 36.6138 13.3906L17.4093 4.11965L22.9971 1.42209ZM15.8875 4.88153L35.1953 14.2025L31.2408 16.1115L11.941 6.79439L15.8875 4.88153ZM35.647 15.4808V22.5376L31.9533 24.3208V17.264L35.647 15.4808ZM43.2091 34.8206L23.671 44.2526V21.2623L28.3314 19.0124C28.6665 18.8506 28.8071 18.4478 28.6452 18.1126C28.4834 17.7776 28.0807 17.6369 27.7455 17.7988L22.9971 20.0912L21.1287 19.1891C20.7935 19.0272 20.3908 19.1679 20.229 19.503C20.0671 19.8381 20.2077 20.2409 20.5428 20.4028L22.3233 21.2623V44.2526L2.78516 34.8204V11.8301L17.6633 19.0127C17.7577 19.0583 17.8575 19.0799 17.9557 19.0799C18.2062 19.0799 18.4468 18.9396 18.563 18.6989C18.7248 18.3637 18.5843 17.9609 18.2492 17.7991L3.66122 10.7566L10.355 7.52509L30.5963 17.2968C30.5993 17.3009 30.6026 17.3046 30.6056 17.3086V25.3945C30.6056 25.6264 30.7249 25.8419 30.9213 25.9652C31.0303 26.0337 31.1548 26.0683 31.2796 26.0683C31.3795 26.0683 31.4796 26.0461 31.5724 26.0013L36.6138 23.5675C36.8467 23.4551 36.9947 23.2194 36.9947 22.9607V14.8303L43.2091 11.8302V34.8206Z" fill="#272343"/>
<path d="M8.34839 32.207L5.28337 30.7274C4.94807 30.5654 4.54539 30.7061 4.38359 31.0412C4.22178 31.3764 4.36229 31.7792 4.69741 31.941L7.76243 33.4206C7.85686 33.4663 7.95667 33.4879 8.05487 33.4879C8.30536 33.4879 8.54596 33.3475 8.66213 33.1068C8.82403 32.7716 8.68351 32.3689 8.34839 32.207Z" fill="#272343"/>
<path d="M11.1688 30.371L5.28722 27.5315C4.95201 27.3697 4.54924 27.5102 4.38744 27.8454C4.22572 28.1806 4.36623 28.5834 4.70135 28.7452L10.583 31.5847C10.6774 31.6302 10.7772 31.6519 10.8754 31.6519C11.1259 31.6519 11.3665 31.5115 11.4827 31.2708C11.6445 30.9355 11.504 30.5327 11.1688 30.371Z" fill="#272343"/>
</g>
<path d="M63.89 16V3.4H69.2C70.544 3.4 71.726 3.664 72.746 4.192C73.778 4.72 74.576 5.458 75.14 6.406C75.716 7.354 76.004 8.452 76.004 9.7C76.004 10.948 75.716 12.046 75.14 12.994C74.576 13.942 73.778 14.68 72.746 15.208C71.726 15.736 70.544 16 69.2 16H63.89ZM65.69 14.434H69.092C70.136 14.434 71.036 14.236 71.792 13.84C72.56 13.444 73.154 12.892 73.574 12.184C73.994 11.464 74.204 10.636 74.204 9.7C74.204 8.752 73.994 7.924 73.574 7.216C73.154 6.508 72.56 5.956 71.792 5.56C71.036 5.164 70.136 4.966 69.092 4.966H65.69V14.434ZM78.5091 16V6.46H80.2371V16H78.5091ZM79.3731 4.624C79.0371 4.624 78.7551 4.516 78.5271 4.3C78.3111 4.084 78.2031 3.82 78.2031 3.508C78.2031 3.184 78.3111 2.914 78.5271 2.698C78.7551 2.482 79.0371 2.374 79.3731 2.374C79.7091 2.374 79.9851 2.482 80.2011 2.698C80.4291 2.902 80.5431 3.16 80.5431 3.472C80.5431 3.796 80.4351 4.072 80.2191 4.3C80.0031 4.516 79.7211 4.624 79.3731 4.624ZM86.2724 16.108C85.4804 16.108 84.7244 16 84.0044 15.784C83.2964 15.568 82.7384 15.304 82.3304 14.992L83.0504 13.624C83.4584 13.9 83.9624 14.134 84.5624 14.326C85.1624 14.518 85.7744 14.614 86.3984 14.614C87.2024 14.614 87.7784 14.5 88.1264 14.272C88.4864 14.044 88.6664 13.726 88.6664 13.318C88.6664 13.018 88.5584 12.784 88.3424 12.616C88.1264 12.448 87.8384 12.322 87.4784 12.238C87.1304 12.154 86.7404 12.082 86.3084 12.022C85.8764 11.95 85.4444 11.866 85.0124 11.77C84.5804 11.662 84.1844 11.518 83.8244 11.338C83.4644 11.146 83.1764 10.888 82.9604 10.564C82.7444 10.228 82.6364 9.784 82.6364 9.232C82.6364 8.656 82.7984 8.152 83.1224 7.72C83.4464 7.288 83.9024 6.958 84.4904 6.73C85.0904 6.49 85.7984 6.37 86.6144 6.37C87.2384 6.37 87.8684 6.448 88.5044 6.604C89.1524 6.748 89.6804 6.958 90.0884 7.234L89.3504 8.602C88.9184 8.314 88.4684 8.116 88.0004 8.008C87.5324 7.9 87.0644 7.846 86.5964 7.846C85.8404 7.846 85.2764 7.972 84.9044 8.224C84.5324 8.464 84.3464 8.776 84.3464 9.16C84.3464 9.484 84.4544 9.736 84.6704 9.916C84.8984 10.084 85.1864 10.216 85.5344 10.312C85.8944 10.408 86.2904 10.492 86.7224 10.564C87.1544 10.624 87.5864 10.708 88.0184 10.816C88.4504 10.912 88.8404 11.05 89.1884 11.23C89.5484 11.41 89.8364 11.662 90.0524 11.986C90.2804 12.31 90.3944 12.742 90.3944 13.282C90.3944 13.858 90.2264 14.356 89.8904 14.776C89.5544 15.196 89.0804 15.526 88.4684 15.766C87.8564 15.994 87.1244 16.108 86.2724 16.108ZM96.712 16.108C95.74 16.108 94.87 15.898 94.102 15.478C93.346 15.058 92.752 14.482 92.32 13.75C91.888 13.018 91.672 12.178 91.672 11.23C91.672 10.282 91.888 9.442 92.32 8.71C92.752 7.978 93.346 7.408 94.102 7C94.87 6.58 95.74 6.37 96.712 6.37C97.576 6.37 98.344 6.544 99.016 6.892C99.7 7.228 100.228 7.732 100.6 8.404L99.286 9.25C98.974 8.782 98.59 8.44 98.134 8.224C97.69 7.996 97.21 7.882 96.694 7.882C96.07 7.882 95.512 8.02 95.02 8.296C94.528 8.572 94.138 8.962 93.85 9.466C93.562 9.958 93.418 10.546 93.418 11.23C93.418 11.914 93.562 12.508 93.85 13.012C94.138 13.516 94.528 13.906 95.02 14.182C95.512 14.458 96.07 14.596 96.694 14.596C97.21 14.596 97.69 14.488 98.134 14.272C98.59 14.044 98.974 13.696 99.286 13.228L100.6 14.056C100.228 14.716 99.7 15.226 99.016 15.586C98.344 15.934 97.576 16.108 96.712 16.108ZM106.783 16.108C105.823 16.108 104.971 15.898 104.227 15.478C103.483 15.058 102.895 14.482 102.463 13.75C102.031 13.006 101.815 12.166 101.815 11.23C101.815 10.282 102.031 9.442 102.463 8.71C102.895 7.978 103.483 7.408 104.227 7C104.971 6.58 105.823 6.37 106.783 6.37C107.731 6.37 108.577 6.58 109.321 7C110.077 7.408 110.665 7.978 111.085 8.71C111.517 9.43 111.733 10.27 111.733 11.23C111.733 12.178 111.517 13.018 111.085 13.75C110.665 14.482 110.077 15.058 109.321 15.478C108.577 15.898 107.731 16.108 106.783 16.108ZM106.783 14.596C107.395 14.596 107.941 14.458 108.421 14.182C108.913 13.906 109.297 13.516 109.573 13.012C109.849 12.496 109.987 11.902 109.987 11.23C109.987 10.546 109.849 9.958 109.573 9.466C109.297 8.962 108.913 8.572 108.421 8.296C107.941 8.02 107.395 7.882 106.783 7.882C106.171 7.882 105.625 8.02 105.145 8.296C104.665 8.572 104.281 8.962 103.993 9.466C103.705 9.958 103.561 10.546 103.561 11.23C103.561 11.902 103.705 12.496 103.993 13.012C104.281 13.516 104.665 13.906 105.145 14.182C105.625 14.458 106.171 14.596 106.783 14.596ZM118.136 16.108C117.32 16.108 116.6 15.958 115.976 15.658C115.364 15.358 114.884 14.902 114.536 14.29C114.2 13.666 114.032 12.886 114.032 11.95V6.46H115.76V11.752C115.76 12.688 115.982 13.39 116.426 13.858C116.882 14.326 117.518 14.56 118.334 14.56C118.934 14.56 119.456 14.44 119.9 14.2C120.344 13.948 120.686 13.588 120.926 13.12C121.166 12.64 121.286 12.064 121.286 11.392V6.46H123.014V16H121.376V13.426L121.646 14.11C121.334 14.746 120.866 15.238 120.242 15.586C119.618 15.934 118.916 16.108 118.136 16.108ZM131.398 6.37C132.178 6.37 132.862 6.52 133.45 6.82C134.05 7.12 134.518 7.576 134.854 8.188C135.19 8.8 135.358 9.574 135.358 10.51V16H133.63V10.708C133.63 9.784 133.402 9.088 132.946 8.62C132.502 8.152 131.872 7.918 131.056 7.918C130.444 7.918 129.91 8.038 129.454 8.278C128.998 8.518 128.644 8.872 128.392 9.34C128.152 9.808 128.032 10.39 128.032 11.086V16H126.304V6.46H127.96V9.034L127.69 8.35C128.002 7.726 128.482 7.24 129.13 6.892C129.778 6.544 130.534 6.37 131.398 6.37ZM141.832 16.108C140.872 16.108 140.128 15.85 139.6 15.334C139.072 14.818 138.808 14.08 138.808 13.12V4.372H140.536V13.048C140.536 13.564 140.662 13.96 140.914 14.236C141.178 14.512 141.55 14.65 142.03 14.65C142.57 14.65 143.02 14.5 143.38 14.2L143.92 15.442C143.656 15.67 143.338 15.838 142.966 15.946C142.606 16.054 142.228 16.108 141.832 16.108ZM137.188 7.882V6.46H143.272V7.882H137.188Z" fill="#272343"/>
<path d="M64.7 34.195H70.25V35.14H64.7V34.195ZM64.82 39.04H71.135V40H63.71V29.5H70.91V30.46H64.82V39.04ZM75.383 40L71.888 32.125H72.998L76.208 39.43H75.683L78.938 32.125H79.988L76.478 40H75.383ZM84.6132 40.075C83.7932 40.075 83.0732 39.905 82.4532 39.565C81.8332 39.215 81.3482 38.74 80.9982 38.14C80.6482 37.53 80.4732 36.835 80.4732 36.055C80.4732 35.275 80.6382 34.585 80.9682 33.985C81.3082 33.385 81.7682 32.915 82.3482 32.575C82.9382 32.225 83.5982 32.05 84.3282 32.05C85.0682 32.05 85.7232 32.22 86.2932 32.56C86.8732 32.89 87.3282 33.36 87.6582 33.97C87.9882 34.57 88.1532 35.265 88.1532 36.055C88.1532 36.105 88.1482 36.16 88.1382 36.22C88.1382 36.27 88.1382 36.325 88.1382 36.385H81.2832V35.59H87.5682L87.1482 35.905C87.1482 35.335 87.0232 34.83 86.7732 34.39C86.5332 33.94 86.2032 33.59 85.7832 33.34C85.3632 33.09 84.8782 32.965 84.3282 32.965C83.7882 32.965 83.3032 33.09 82.8732 33.34C82.4432 33.59 82.1082 33.94 81.8682 34.39C81.6282 34.84 81.5082 35.355 81.5082 35.935V36.1C81.5082 36.7 81.6382 37.23 81.8982 37.69C82.1682 38.14 82.5382 38.495 83.0082 38.755C83.4882 39.005 84.0332 39.13 84.6432 39.13C85.1232 39.13 85.5682 39.045 85.9782 38.875C86.3982 38.705 86.7582 38.445 87.0582 38.095L87.6582 38.785C87.3082 39.205 86.8682 39.525 86.3382 39.745C85.8182 39.965 85.2432 40.075 84.6132 40.075ZM90.3209 40V32.125H91.3409V34.27L91.2359 33.895C91.4559 33.295 91.8259 32.84 92.3459 32.53C92.8659 32.21 93.5109 32.05 94.2809 32.05V33.085C94.2409 33.085 94.2009 33.085 94.1609 33.085C94.1209 33.075 94.0809 33.07 94.0409 33.07C93.2109 33.07 92.5609 33.325 92.0909 33.835C91.6209 34.335 91.3859 35.05 91.3859 35.98V40H90.3209ZM96.6212 42.985C96.2512 42.985 95.8962 42.925 95.5562 42.805C95.2262 42.685 94.9412 42.505 94.7012 42.265L95.1962 41.47C95.3962 41.66 95.6112 41.805 95.8412 41.905C96.0812 42.015 96.3462 42.07 96.6362 42.07C96.9862 42.07 97.2862 41.97 97.5362 41.77C97.7962 41.58 98.0412 41.24 98.2712 40.75L98.7812 39.595L98.9012 39.43L102.141 32.125H103.191L99.2462 40.945C99.0262 41.455 98.7812 41.86 98.5112 42.16C98.2512 42.46 97.9662 42.67 97.6562 42.79C97.3462 42.92 97.0012 42.985 96.6212 42.985ZM98.7212 40.225L95.0912 32.125H96.2012L99.4112 39.355L98.7212 40.225ZM110.222 40L107.252 32.125H108.272L110.972 39.43H110.507L113.282 32.125H114.197L116.942 39.43H116.477L119.222 32.125H120.197L117.212 40H116.207L113.567 33.13H113.882L111.227 40H110.222ZM124.926 40.075C124.106 40.075 123.386 39.905 122.766 39.565C122.146 39.215 121.661 38.74 121.311 38.14C120.961 37.53 120.786 36.835 120.786 36.055C120.786 35.275 120.951 34.585 121.281 33.985C121.621 33.385 122.081 32.915 122.661 32.575C123.251 32.225 123.911 32.05 124.641 32.05C125.381 32.05 126.036 32.22 126.606 32.56C127.186 32.89 127.641 33.36 127.971 33.97C128.301 34.57 128.466 35.265 128.466 36.055C128.466 36.105 128.461 36.16 128.451 36.22C128.451 36.27 128.451 36.325 128.451 36.385H121.596V35.59H127.881L127.461 35.905C127.461 35.335 127.336 34.83 127.086 34.39C126.846 33.94 126.516 33.59 126.096 33.34C125.676 33.09 125.191 32.965 124.641 32.965C124.101 32.965 123.616 33.09 123.186 33.34C122.756 33.59 122.421 33.94 122.181 34.39C121.941 34.84 121.821 35.355 121.821 35.935V36.1C121.821 36.7 121.951 37.23 122.211 37.69C122.481 38.14 122.851 38.495 123.321 38.755C123.801 39.005 124.346 39.13 124.956 39.13C125.436 39.13 125.881 39.045 126.291 38.875C126.711 38.705 127.071 38.445 127.371 38.095L127.971 38.785C127.621 39.205 127.181 39.525 126.651 39.745C126.131 39.965 125.556 40.075 124.926 40.075ZM133.978 40.075C133.158 40.075 132.438 39.905 131.818 39.565C131.198 39.215 130.713 38.74 130.363 38.14C130.013 37.53 129.838 36.835 129.838 36.055C129.838 35.275 130.003 34.585 130.333 33.985C130.673 33.385 131.133 32.915 131.713 32.575C132.303 32.225 132.963 32.05 133.693 32.05C134.433 32.05 135.088 32.22 135.658 32.56C136.238 32.89 136.693 33.36 137.023 33.97C137.353 34.57 137.518 35.265 137.518 36.055C137.518 36.105 137.513 36.16 137.503 36.22C137.503 36.27 137.503 36.325 137.503 36.385H130.648V35.59H136.933L136.513 35.905C136.513 35.335 136.388 34.83 136.138 34.39C135.898 33.94 135.568 33.59 135.148 33.34C134.728 33.09 134.243 32.965 133.693 32.965C133.153 32.965 132.668 33.09 132.238 33.34C131.808 33.59 131.473 33.94 131.233 34.39C130.993 34.84 130.873 35.355 130.873 35.935V36.1C130.873 36.7 131.003 37.23 131.263 37.69C131.533 38.14 131.903 38.495 132.373 38.755C132.853 39.005 133.398 39.13 134.008 39.13C134.488 39.13 134.933 39.045 135.343 38.875C135.763 38.705 136.123 38.445 136.423 38.095L137.023 38.785C136.673 39.205 136.233 39.525 135.703 39.745C135.183 39.965 134.608 40.075 133.978 40.075ZM140.526 37.96L140.556 36.595L145.461 32.125H146.766L143.301 35.44L142.701 35.95L140.526 37.96ZM139.686 40V28.87H140.751V40H139.686ZM145.791 40L142.506 35.905L143.196 35.08L147.096 40H145.791ZM156.641 32.05C157.281 32.05 157.841 32.175 158.321 32.425C158.811 32.665 159.191 33.035 159.461 33.535C159.741 34.035 159.881 34.665 159.881 35.425V40H158.816V35.53C158.816 34.7 158.606 34.075 158.186 33.655C157.776 33.225 157.196 33.01 156.446 33.01C155.886 33.01 155.396 33.125 154.976 33.355C154.566 33.575 154.246 33.9 154.016 34.33C153.796 34.75 153.686 35.26 153.686 35.86V40H152.621V32.125H153.641V34.285L153.476 33.88C153.726 33.31 154.126 32.865 154.676 32.545C155.226 32.215 155.881 32.05 156.641 32.05ZM166.102 40.075C165.282 40.075 164.562 39.905 163.942 39.565C163.322 39.215 162.837 38.74 162.487 38.14C162.137 37.53 161.962 36.835 161.962 36.055C161.962 35.275 162.127 34.585 162.457 33.985C162.797 33.385 163.257 32.915 163.837 32.575C164.427 32.225 165.087 32.05 165.817 32.05C166.557 32.05 167.212 32.22 167.782 32.56C168.362 32.89 168.817 33.36 169.147 33.97C169.477 34.57 169.642 35.265 169.642 36.055C169.642 36.105 169.637 36.16 169.627 36.22C169.627 36.27 169.627 36.325 169.627 36.385H162.772V35.59H169.057L168.637 35.905C168.637 35.335 168.512 34.83 168.262 34.39C168.022 33.94 167.692 33.59 167.272 33.34C166.852 33.09 166.367 32.965 165.817 32.965C165.277 32.965 164.792 33.09 164.362 33.34C163.932 33.59 163.597 33.94 163.357 34.39C163.117 34.84 162.997 35.355 162.997 35.935V36.1C162.997 36.7 163.127 37.23 163.387 37.69C163.657 38.14 164.027 38.495 164.497 38.755C164.977 39.005 165.522 39.13 166.132 39.13C166.612 39.13 167.057 39.045 167.467 38.875C167.887 38.705 168.247 38.445 168.547 38.095L169.147 38.785C168.797 39.205 168.357 39.525 167.827 39.745C167.307 39.965 166.732 40.075 166.102 40.075ZM173.269 40L170.299 32.125H171.319L174.019 39.43H173.554L176.329 32.125H177.244L179.989 39.43H179.524L182.269 32.125H183.244L180.259 40H179.254L176.614 33.13H176.929L174.274 40H173.269ZM190.888 40.075C190.238 40.075 189.623 39.985 189.043 39.805C188.463 39.615 188.008 39.38 187.678 39.1L188.158 38.26C188.478 38.5 188.888 38.71 189.388 38.89C189.888 39.06 190.413 39.145 190.963 39.145C191.713 39.145 192.253 39.03 192.583 38.8C192.913 38.56 193.078 38.245 193.078 37.855C193.078 37.565 192.983 37.34 192.793 37.18C192.613 37.01 192.373 36.885 192.073 36.805C191.773 36.715 191.438 36.64 191.068 36.58C190.698 36.52 190.328 36.45 189.958 36.37C189.598 36.29 189.268 36.175 188.968 36.025C188.668 35.865 188.423 35.65 188.233 35.38C188.053 35.11 187.963 34.75 187.963 34.3C187.963 33.87 188.083 33.485 188.323 33.145C188.563 32.805 188.913 32.54 189.373 32.35C189.843 32.15 190.413 32.05 191.083 32.05C191.593 32.05 192.103 32.12 192.613 32.26C193.123 32.39 193.543 32.565 193.873 32.785L193.408 33.64C193.058 33.4 192.683 33.23 192.283 33.13C191.883 33.02 191.483 32.965 191.083 32.965C190.373 32.965 189.848 33.09 189.508 33.34C189.178 33.58 189.013 33.89 189.013 34.27C189.013 34.57 189.103 34.805 189.283 34.975C189.473 35.145 189.718 35.28 190.018 35.38C190.328 35.47 190.663 35.545 191.023 35.605C191.393 35.665 191.758 35.74 192.118 35.83C192.488 35.91 192.823 36.025 193.123 36.175C193.433 36.315 193.678 36.52 193.858 36.79C194.048 37.05 194.143 37.395 194.143 37.825C194.143 38.285 194.013 38.685 193.753 39.025C193.503 39.355 193.133 39.615 192.643 39.805C192.163 39.985 191.578 40.075 190.888 40.075ZM201.032 40V38.26L200.987 37.975V35.065C200.987 34.395 200.797 33.88 200.417 33.52C200.047 33.16 199.492 32.98 198.752 32.98C198.242 32.98 197.757 33.065 197.297 33.235C196.837 33.405 196.447 33.63 196.127 33.91L195.647 33.115C196.047 32.775 196.527 32.515 197.087 32.335C197.647 32.145 198.237 32.05 198.857 32.05C199.877 32.05 200.662 32.305 201.212 32.815C201.772 33.315 202.052 34.08 202.052 35.11V40H201.032ZM198.317 40.075C197.727 40.075 197.212 39.98 196.772 39.79C196.342 39.59 196.012 39.32 195.782 38.98C195.552 38.63 195.437 38.23 195.437 37.78C195.437 37.37 195.532 37 195.722 36.67C195.922 36.33 196.242 36.06 196.682 35.86C197.132 35.65 197.732 35.545 198.482 35.545H201.197V36.34H198.512C197.752 36.34 197.222 36.475 196.922 36.745C196.632 37.015 196.487 37.35 196.487 37.75C196.487 38.2 196.662 38.56 197.012 38.83C197.362 39.1 197.852 39.235 198.482 39.235C199.082 39.235 199.597 39.1 200.027 38.83C200.467 38.55 200.787 38.15 200.987 37.63L201.227 38.365C201.027 38.885 200.677 39.3 200.177 39.61C199.687 39.92 199.067 40.075 198.317 40.075ZM204.945 40V28.87H206.01V40H204.945ZM212.318 40.075C211.498 40.075 210.778 39.905 210.158 39.565C209.538 39.215 209.053 38.74 208.703 38.14C208.353 37.53 208.178 36.835 208.178 36.055C208.178 35.275 208.343 34.585 208.673 33.985C209.013 33.385 209.473 32.915 210.053 32.575C210.643 32.225 211.303 32.05 212.033 32.05C212.773 32.05 213.428 32.22 213.998 32.56C214.578 32.89 215.033 33.36 215.363 33.97C215.693 34.57 215.858 35.265 215.858 36.055C215.858 36.105 215.853 36.16 215.843 36.22C215.843 36.27 215.843 36.325 215.843 36.385H208.988V35.59H215.273L214.853 35.905C214.853 35.335 214.728 34.83 214.478 34.39C214.238 33.94 213.908 33.59 213.488 33.34C213.068 33.09 212.583 32.965 212.033 32.965C211.493 32.965 211.008 33.09 210.578 33.34C210.148 33.59 209.813 33.94 209.573 34.39C209.333 34.84 209.213 35.355 209.213 35.935V36.1C209.213 36.7 209.343 37.23 209.603 37.69C209.873 38.14 210.243 38.495 210.713 38.755C211.193 39.005 211.738 39.13 212.348 39.13C212.828 39.13 213.273 39.045 213.683 38.875C214.103 38.705 214.463 38.445 214.763 38.095L215.363 38.785C215.013 39.205 214.573 39.525 214.043 39.745C213.523 39.965 212.948 40.075 212.318 40.075ZM220.141 40.075C219.491 40.075 218.876 39.985 218.296 39.805C217.716 39.615 217.261 39.38 216.931 39.1L217.411 38.26C217.731 38.5 218.141 38.71 218.641 38.89C219.141 39.06 219.666 39.145 220.216 39.145C220.966 39.145 221.506 39.03 221.836 38.8C222.166 38.56 222.331 38.245 222.331 37.855C222.331 37.565 222.236 37.34 222.046 37.18C221.866 37.01 221.626 36.885 221.326 36.805C221.026 36.715 220.691 36.64 220.321 36.58C219.951 36.52 219.581 36.45 219.211 36.37C218.851 36.29 218.521 36.175 218.221 36.025C217.921 35.865 217.676 35.65 217.486 35.38C217.306 35.11 217.216 34.75 217.216 34.3C217.216 33.87 217.336 33.485 217.576 33.145C217.816 32.805 218.166 32.54 218.626 32.35C219.096 32.15 219.666 32.05 220.336 32.05C220.846 32.05 221.356 32.12 221.866 32.26C222.376 32.39 222.796 32.565 223.126 32.785L222.661 33.64C222.311 33.4 221.936 33.23 221.536 33.13C221.136 33.02 220.736 32.965 220.336 32.965C219.626 32.965 219.101 33.09 218.761 33.34C218.431 33.58 218.266 33.89 218.266 34.27C218.266 34.57 218.356 34.805 218.536 34.975C218.726 35.145 218.971 35.28 219.271 35.38C219.581 35.47 219.916 35.545 220.276 35.605C220.646 35.665 221.011 35.74 221.371 35.83C221.741 35.91 222.076 36.025 222.376 36.175C222.686 36.315 222.931 36.52 223.111 36.79C223.301 37.05 223.396 37.395 223.396 37.825C223.396 38.285 223.266 38.685 223.006 39.025C222.756 39.355 222.386 39.615 221.896 39.805C221.416 39.985 220.831 40.075 220.141 40.075Z" fill="#9A9CAA"/>
<defs>
<clipPath id="clip0_393_6493">
<rect width="46" height="46" fill="white"/>
</clipPath>
</defs>
</svg>
