<svg width="314" height="48" viewBox="0 0 314 48" fill="none" xmlns="http://www.w3.org/2000/svg">
<g clip-path="url(#clip0_471_12031)">
<path d="M46.0729 12.6374C46.0729 12.474 46.0324 12.3107 45.9513 12.1564C45.7892 11.8478 45.4752 11.6391 45.1307 11.5756L24.4942 2.60891C24.1598 2.4637 23.7647 2.4637 23.4304 2.60891L2.59124 11.6572C2.18601 11.8297 1.92261 12.1927 1.90234 12.6011V12.6102C1.90234 12.6192 1.90234 12.6283 1.90234 12.6465V35.3535C1.90234 35.771 2.16575 36.1522 2.59124 36.3337L23.4304 45.382C23.4405 45.382 23.4405 45.382 23.4507 45.3911C23.4811 45.4002 23.5115 45.4092 23.5419 45.4274C23.552 45.4274 23.5621 45.4365 23.5824 45.4365C23.6128 45.4455 23.6432 45.4546 23.6736 45.4637C23.6837 45.4637 23.6938 45.4728 23.7039 45.4728C23.7343 45.4818 23.7749 45.4819 23.8053 45.4909C23.8154 45.4909 23.8255 45.4909 23.8356 45.4909C23.8762 45.4909 23.9268 45.5 23.9673 45.5C24.0079 45.5 24.0585 45.5 24.099 45.4909C24.1092 45.4909 24.1193 45.4909 24.1294 45.4909C24.1598 45.4909 24.2004 45.4818 24.2308 45.4728C24.2409 45.4728 24.251 45.4637 24.2611 45.4637C24.2915 45.4546 24.3219 45.4455 24.3523 45.4365C24.3625 45.4365 24.3726 45.4274 24.3928 45.4274C24.4232 45.4183 24.4536 45.4092 24.484 45.3911C24.4942 45.3911 24.4942 45.3911 24.5043 45.382L45.4042 36.3065C45.8196 36.125 46.0931 35.7438 46.0931 35.3263V12.6646C46.0729 12.6556 46.0729 12.6465 46.0729 12.6374ZM23.9572 4.79612L42.0307 12.6465L35.3747 15.5416L17.3012 7.69122L23.9572 4.79612ZM23.9572 20.4968L5.88377 12.6465L14.5153 8.89827L32.5887 16.7486L23.9572 20.4968ZM4.33375 14.3981L22.7415 22.3936V42.6594L4.33375 34.6638V14.3981ZM25.1729 42.6594V22.3936L33.8145 18.6363V23.9365C33.8145 24.5355 34.3616 25.0255 35.0302 25.0255C35.6989 25.0255 36.2459 24.5355 36.2459 23.9365V17.5745L43.6415 14.3618V34.6275L25.1729 42.6594Z" fill="#E09A88"/>
</g>
<path d="M65.504 15V3.8H67.216L72.112 11.976H71.216L76.032 3.8H77.744L77.76 15H75.792L75.776 6.888H76.192L72.096 13.72H71.168L67.008 6.888H67.488V15H65.504ZM84.4333 15.112C83.5586 15.112 82.7799 14.9253 82.0973 14.552C81.4146 14.168 80.8759 13.6453 80.4813 12.984C80.0866 12.3227 79.8893 11.5707 79.8893 10.728C79.8893 9.87467 80.0866 9.12267 80.4813 8.472C80.8759 7.81067 81.4146 7.29333 82.0973 6.92C82.7799 6.54667 83.5586 6.36 84.4333 6.36C85.3186 6.36 86.1026 6.54667 86.7853 6.92C87.4786 7.29333 88.0173 7.80533 88.4013 8.456C88.7959 9.10667 88.9933 9.864 88.9933 10.728C88.9933 11.5707 88.7959 12.3227 88.4013 12.984C88.0173 13.6453 87.4786 14.168 86.7853 14.552C86.1026 14.9253 85.3186 15.112 84.4333 15.112ZM84.4333 13.4C84.9239 13.4 85.3613 13.2933 85.7453 13.08C86.1293 12.8667 86.4279 12.5573 86.6413 12.152C86.8653 11.7467 86.9773 11.272 86.9773 10.728C86.9773 10.1733 86.8653 9.69867 86.6413 9.304C86.4279 8.89867 86.1293 8.58933 85.7453 8.376C85.3613 8.16267 84.9293 8.056 84.4493 8.056C83.9586 8.056 83.5213 8.16267 83.1373 8.376C82.7639 8.58933 82.4653 8.89867 82.2413 9.304C82.0173 9.69867 81.9053 10.1733 81.9053 10.728C81.9053 11.272 82.0173 11.7467 82.2413 12.152C82.4653 12.5573 82.7639 12.8667 83.1373 13.08C83.5213 13.2933 83.9533 13.4 84.4333 13.4ZM95.7538 6.36C96.4364 6.36 97.0444 6.49333 97.5778 6.76C98.1218 7.02667 98.5484 7.43733 98.8578 7.992C99.1671 8.536 99.3218 9.24 99.3218 10.104V15H97.3218V10.36C97.3218 9.60267 97.1404 9.03733 96.7778 8.664C96.4258 8.29067 95.9298 8.104 95.2898 8.104C94.8204 8.104 94.4044 8.2 94.0418 8.392C93.6791 8.584 93.3964 8.872 93.1938 9.256C93.0018 9.62933 92.9058 10.104 92.9058 10.68V15H90.9058V6.456H92.8098V8.76L92.4738 8.056C92.7724 7.512 93.2044 7.096 93.7698 6.808C94.3458 6.50933 95.0071 6.36 95.7538 6.36ZM105.891 15.112C104.941 15.112 104.109 14.9253 103.395 14.552C102.691 14.168 102.141 13.6453 101.747 12.984C101.363 12.3227 101.171 11.5707 101.171 10.728C101.171 9.87467 101.357 9.12267 101.731 8.472C102.115 7.81067 102.637 7.29333 103.299 6.92C103.971 6.54667 104.733 6.36 105.587 6.36C106.419 6.36 107.16 6.54133 107.811 6.904C108.461 7.26667 108.973 7.77867 109.347 8.44C109.72 9.10133 109.907 9.88 109.907 10.776C109.907 10.8613 109.901 10.9573 109.891 11.064C109.891 11.1707 109.885 11.272 109.875 11.368H102.755V10.04H108.819L108.035 10.456C108.045 9.96533 107.944 9.53333 107.731 9.16C107.517 8.78667 107.224 8.49333 106.851 8.28C106.488 8.06667 106.067 7.96 105.587 7.96C105.096 7.96 104.664 8.06667 104.291 8.28C103.928 8.49333 103.64 8.792 103.427 9.176C103.224 9.54933 103.123 9.992 103.123 10.504V10.824C103.123 11.336 103.24 11.7893 103.475 12.184C103.709 12.5787 104.04 12.8827 104.467 13.096C104.893 13.3093 105.384 13.416 105.939 13.416C106.419 13.416 106.851 13.3413 107.235 13.192C107.619 13.0427 107.96 12.808 108.259 12.488L109.331 13.72C108.947 14.168 108.461 14.5147 107.875 14.76C107.299 14.9947 106.637 15.112 105.891 15.112ZM112.375 18.216C111.959 18.216 111.543 18.1467 111.127 18.008C110.711 17.8693 110.365 17.6773 110.087 17.432L110.887 15.96C111.09 16.1413 111.319 16.2853 111.575 16.392C111.831 16.4987 112.093 16.552 112.359 16.552C112.722 16.552 113.015 16.4613 113.239 16.28C113.463 16.0987 113.671 15.7947 113.863 15.368L114.359 14.248L114.519 14.008L117.751 6.456H119.671L115.671 15.688C115.405 16.328 115.106 16.8347 114.775 17.208C114.455 17.5813 114.093 17.8427 113.687 17.992C113.293 18.1413 112.855 18.216 112.375 18.216ZM114.135 15.304L110.279 6.456H112.359L115.495 13.832L114.135 15.304ZM120.255 11.384V9.72H124.655V11.384H120.255ZM127.035 15V3.8H132.283C133.627 3.8 134.651 4.06667 135.355 4.6C136.059 5.12267 136.411 5.82667 136.411 6.712C136.411 7.30933 136.273 7.82133 135.995 8.248C135.718 8.664 135.345 8.98933 134.875 9.224C134.417 9.448 133.915 9.56 133.371 9.56L133.659 8.984C134.289 8.984 134.854 9.10133 135.355 9.336C135.857 9.56 136.251 9.89067 136.539 10.328C136.838 10.7653 136.987 11.3093 136.987 11.96C136.987 12.92 136.619 13.6667 135.883 14.2C135.147 14.7333 134.054 15 132.603 15H127.035ZM129.115 13.368H132.475C133.254 13.368 133.851 13.24 134.267 12.984C134.683 12.728 134.891 12.3173 134.891 11.752C134.891 11.1973 134.683 10.792 134.267 10.536C133.851 10.2693 133.254 10.136 132.475 10.136H128.955V8.52H132.059C132.785 8.52 133.339 8.392 133.723 8.136C134.118 7.88 134.315 7.496 134.315 6.984C134.315 6.46133 134.118 6.072 133.723 5.816C133.339 5.56 132.785 5.432 132.059 5.432H129.115V13.368ZM144.279 15V13.272L144.167 12.904V9.88C144.167 9.29333 143.991 8.84 143.639 8.52C143.287 8.18933 142.754 8.024 142.039 8.024C141.559 8.024 141.084 8.09867 140.615 8.248C140.156 8.39733 139.767 8.60533 139.447 8.872L138.663 7.416C139.122 7.064 139.666 6.80267 140.295 6.632C140.935 6.45067 141.596 6.36 142.279 6.36C143.516 6.36 144.471 6.65867 145.143 7.256C145.826 7.84267 146.167 8.75467 146.167 9.992V15H144.279ZM141.591 15.112C140.951 15.112 140.391 15.0053 139.911 14.792C139.431 14.568 139.058 14.264 138.791 13.88C138.535 13.4853 138.407 13.0427 138.407 12.552C138.407 12.072 138.519 11.64 138.743 11.256C138.978 10.872 139.356 10.568 139.879 10.344C140.402 10.12 141.095 10.008 141.959 10.008H144.439V11.336H142.103C141.42 11.336 140.962 11.448 140.727 11.672C140.492 11.8853 140.375 12.152 140.375 12.472C140.375 12.8347 140.519 13.1227 140.807 13.336C141.095 13.5493 141.495 13.656 142.007 13.656C142.498 13.656 142.935 13.544 143.319 13.32C143.714 13.096 143.996 12.7653 144.167 12.328L144.503 13.528C144.311 14.0293 143.964 14.4187 143.463 14.696C142.972 14.9733 142.348 15.112 141.591 15.112ZM152.67 15.112C151.774 15.112 150.974 14.9253 150.27 14.552C149.576 14.168 149.032 13.6453 148.638 12.984C148.243 12.3227 148.046 11.5707 148.046 10.728C148.046 9.87467 148.243 9.12267 148.638 8.472C149.032 7.81067 149.576 7.29333 150.27 6.92C150.974 6.54667 151.774 6.36 152.67 6.36C153.502 6.36 154.232 6.53067 154.862 6.872C155.502 7.20267 155.987 7.69333 156.318 8.344L154.782 9.24C154.526 8.83467 154.211 8.536 153.838 8.344C153.475 8.152 153.08 8.056 152.654 8.056C152.163 8.056 151.72 8.16267 151.326 8.376C150.931 8.58933 150.622 8.89867 150.398 9.304C150.174 9.69867 150.062 10.1733 150.062 10.728C150.062 11.2827 150.174 11.7627 150.398 12.168C150.622 12.5627 150.931 12.8667 151.326 13.08C151.72 13.2933 152.163 13.4 152.654 13.4C153.08 13.4 153.475 13.304 153.838 13.112C154.211 12.92 154.526 12.6213 154.782 12.216L156.318 13.112C155.987 13.752 155.502 14.248 154.862 14.6C154.232 14.9413 153.502 15.112 152.67 15.112ZM159.6 13.096L159.648 10.584L164.112 6.456H166.512L162.72 10.264L161.664 11.144L159.6 13.096ZM157.968 15V3.128H159.968V15H157.968ZM164.416 15L161.296 11.144L162.56 9.544L166.848 15H164.416ZM177.986 15.16C177.111 15.16 176.306 15.0213 175.57 14.744C174.845 14.456 174.21 14.056 173.666 13.544C173.122 13.0213 172.701 12.408 172.402 11.704C172.103 11 171.954 10.232 171.954 9.4C171.954 8.568 172.103 7.8 172.402 7.096C172.701 6.392 173.122 5.784 173.666 5.272C174.221 4.74933 174.866 4.34933 175.602 4.072C176.338 3.784 177.143 3.64 178.018 3.64C178.967 3.64 179.821 3.79467 180.578 4.104C181.346 4.41333 181.991 4.86667 182.514 5.464L181.202 6.744C180.765 6.30667 180.29 5.98667 179.778 5.784C179.277 5.57067 178.722 5.464 178.114 5.464C177.527 5.464 176.983 5.56 176.482 5.752C175.981 5.944 175.549 6.216 175.186 6.568C174.823 6.92 174.541 7.336 174.338 7.816C174.146 8.296 174.05 8.824 174.05 9.4C174.05 9.96533 174.146 10.488 174.338 10.968C174.541 11.448 174.823 11.8693 175.186 12.232C175.549 12.584 175.975 12.856 176.466 13.048C176.957 13.24 177.501 13.336 178.098 13.336C178.653 13.336 179.186 13.2507 179.698 13.08C180.221 12.8987 180.717 12.6 181.186 12.184L182.37 13.736C181.783 14.2053 181.101 14.5627 180.322 14.808C179.554 15.0427 178.775 15.16 177.986 15.16ZM180.402 13.464V9.272H182.37V13.736L180.402 13.464ZM188.537 15.112C187.812 15.112 187.172 14.9787 186.617 14.712C186.063 14.4347 185.631 14.0187 185.321 13.464C185.012 12.8987 184.857 12.1893 184.857 11.336V6.456H186.857V11.064C186.857 11.832 187.028 12.408 187.369 12.792C187.721 13.1653 188.217 13.352 188.857 13.352C189.327 13.352 189.732 13.256 190.073 13.064C190.425 12.872 190.697 12.584 190.889 12.2C191.092 11.816 191.193 11.3413 191.193 10.776V6.456H193.193V15H191.289V12.696L191.625 13.4C191.337 13.9547 190.916 14.3813 190.361 14.68C189.807 14.968 189.199 15.112 188.537 15.112ZM201.076 15V13.272L200.964 12.904V9.88C200.964 9.29333 200.788 8.84 200.436 8.52C200.084 8.18933 199.551 8.024 198.836 8.024C198.356 8.024 197.881 8.09867 197.412 8.248C196.953 8.39733 196.564 8.60533 196.244 8.872L195.46 7.416C195.919 7.064 196.463 6.80267 197.092 6.632C197.732 6.45067 198.393 6.36 199.076 6.36C200.313 6.36 201.268 6.65867 201.94 7.256C202.623 7.84267 202.964 8.75467 202.964 9.992V15H201.076ZM198.388 15.112C197.748 15.112 197.188 15.0053 196.708 14.792C196.228 14.568 195.855 14.264 195.588 13.88C195.332 13.4853 195.204 13.0427 195.204 12.552C195.204 12.072 195.316 11.64 195.54 11.256C195.775 10.872 196.153 10.568 196.676 10.344C197.199 10.12 197.892 10.008 198.756 10.008H201.236V11.336H198.9C198.217 11.336 197.759 11.448 197.524 11.672C197.289 11.8853 197.172 12.152 197.172 12.472C197.172 12.8347 197.316 13.1227 197.604 13.336C197.892 13.5493 198.292 13.656 198.804 13.656C199.295 13.656 199.732 13.544 200.116 13.32C200.511 13.096 200.793 12.7653 200.964 12.328L201.3 13.528C201.108 14.0293 200.761 14.4187 200.26 14.696C199.769 14.9733 199.145 15.112 198.388 15.112ZM205.531 15V6.456H207.435V8.808L207.211 8.12C207.467 7.544 207.867 7.10667 208.411 6.808C208.965 6.50933 209.653 6.36 210.475 6.36V8.264C210.389 8.24267 210.309 8.232 210.235 8.232C210.16 8.22133 210.085 8.216 210.011 8.216C209.253 8.216 208.651 8.44 208.203 8.888C207.755 9.32533 207.531 9.98133 207.531 10.856V15H205.531ZM216.826 15V13.272L216.714 12.904V9.88C216.714 9.29333 216.538 8.84 216.186 8.52C215.834 8.18933 215.301 8.024 214.586 8.024C214.106 8.024 213.631 8.09867 213.162 8.248C212.703 8.39733 212.314 8.60533 211.994 8.872L211.21 7.416C211.669 7.064 212.213 6.80267 212.842 6.632C213.482 6.45067 214.143 6.36 214.826 6.36C216.063 6.36 217.018 6.65867 217.69 7.256C218.373 7.84267 218.714 8.75467 218.714 9.992V15H216.826ZM214.138 15.112C213.498 15.112 212.938 15.0053 212.458 14.792C211.978 14.568 211.605 14.264 211.338 13.88C211.082 13.4853 210.954 13.0427 210.954 12.552C210.954 12.072 211.066 11.64 211.29 11.256C211.525 10.872 211.903 10.568 212.426 10.344C212.949 10.12 213.642 10.008 214.506 10.008H216.986V11.336H214.65C213.967 11.336 213.509 11.448 213.274 11.672C213.039 11.8853 212.922 12.152 212.922 12.472C212.922 12.8347 213.066 13.1227 213.354 13.336C213.642 13.5493 214.042 13.656 214.554 13.656C215.045 13.656 215.482 13.544 215.866 13.32C216.261 13.096 216.543 12.7653 216.714 12.328L217.05 13.528C216.858 14.0293 216.511 14.4187 216.01 14.696C215.519 14.9733 214.895 15.112 214.138 15.112ZM226.129 6.36C226.811 6.36 227.419 6.49333 227.953 6.76C228.497 7.02667 228.923 7.43733 229.233 7.992C229.542 8.536 229.697 9.24 229.697 10.104V15H227.697V10.36C227.697 9.60267 227.515 9.03733 227.153 8.664C226.801 8.29067 226.305 8.104 225.665 8.104C225.195 8.104 224.779 8.2 224.417 8.392C224.054 8.584 223.771 8.872 223.569 9.256C223.377 9.62933 223.281 10.104 223.281 10.68V15H221.281V6.456H223.185V8.76L222.849 8.056C223.147 7.512 223.579 7.096 224.145 6.808C224.721 6.50933 225.382 6.36 226.129 6.36ZM235.45 15.112C234.511 15.112 233.786 14.872 233.274 14.392C232.762 13.9013 232.506 13.1813 232.506 12.232V4.568H234.506V12.184C234.506 12.5893 234.607 12.904 234.81 13.128C235.023 13.352 235.317 13.464 235.69 13.464C236.138 13.464 236.511 13.3467 236.81 13.112L237.37 14.536C237.135 14.728 236.847 14.872 236.506 14.968C236.165 15.064 235.813 15.112 235.45 15.112ZM231.098 8.12V6.52H236.794V8.12H231.098ZM242.75 15.112C241.801 15.112 240.969 14.9253 240.254 14.552C239.55 14.168 239.001 13.6453 238.606 12.984C238.222 12.3227 238.03 11.5707 238.03 10.728C238.03 9.87467 238.217 9.12267 238.59 8.472C238.974 7.81067 239.497 7.29333 240.158 6.92C240.83 6.54667 241.593 6.36 242.446 6.36C243.278 6.36 244.019 6.54133 244.67 6.904C245.321 7.26667 245.833 7.77867 246.206 8.44C246.579 9.10133 246.766 9.88 246.766 10.776C246.766 10.8613 246.761 10.9573 246.75 11.064C246.75 11.1707 246.745 11.272 246.734 11.368H239.614V10.04H245.678L244.894 10.456C244.905 9.96533 244.803 9.53333 244.59 9.16C244.377 8.78667 244.083 8.49333 243.71 8.28C243.347 8.06667 242.926 7.96 242.446 7.96C241.955 7.96 241.523 8.06667 241.15 8.28C240.787 8.49333 240.499 8.792 240.286 9.176C240.083 9.54933 239.982 9.992 239.982 10.504V10.824C239.982 11.336 240.099 11.7893 240.334 12.184C240.569 12.5787 240.899 12.8827 241.326 13.096C241.753 13.3093 242.243 13.416 242.798 13.416C243.278 13.416 243.71 13.3413 244.094 13.192C244.478 13.0427 244.819 12.808 245.118 12.488L246.19 13.72C245.806 14.168 245.321 14.5147 244.734 14.76C244.158 14.9947 243.497 15.112 242.75 15.112ZM252.703 15.112C251.754 15.112 250.922 14.9253 250.207 14.552C249.503 14.168 248.954 13.6453 248.559 12.984C248.175 12.3227 247.983 11.5707 247.983 10.728C247.983 9.87467 248.17 9.12267 248.543 8.472C248.927 7.81067 249.45 7.29333 250.111 6.92C250.783 6.54667 251.546 6.36 252.399 6.36C253.231 6.36 253.972 6.54133 254.623 6.904C255.274 7.26667 255.786 7.77867 256.159 8.44C256.532 9.10133 256.719 9.88 256.719 10.776C256.719 10.8613 256.714 10.9573 256.703 11.064C256.703 11.1707 256.698 11.272 256.687 11.368H249.567V10.04H255.631L254.847 10.456C254.858 9.96533 254.756 9.53333 254.543 9.16C254.33 8.78667 254.036 8.49333 253.663 8.28C253.3 8.06667 252.879 7.96 252.399 7.96C251.908 7.96 251.476 8.06667 251.103 8.28C250.74 8.49333 250.452 8.792 250.239 9.176C250.036 9.54933 249.935 9.992 249.935 10.504V10.824C249.935 11.336 250.052 11.7893 250.287 12.184C250.522 12.5787 250.852 12.8827 251.279 13.096C251.706 13.3093 252.196 13.416 252.751 13.416C253.231 13.416 253.663 13.3413 254.047 13.192C254.431 13.0427 254.772 12.808 255.071 12.488L256.143 13.72C255.759 14.168 255.274 14.5147 254.687 14.76C254.111 14.9947 253.45 15.112 252.703 15.112Z" fill="#1A1A1A"/>
<path d="M67.668 43.112C66.9773 43.112 66.3053 43.0047 65.652 42.79C65.008 42.5753 64.4807 42.286 64.07 41.922L64.714 40.816C65.0407 41.124 65.4653 41.376 65.988 41.572C66.5107 41.768 67.0707 41.866 67.668 41.866C68.396 41.866 68.9607 41.712 69.362 41.404C69.7727 41.0867 69.978 40.662 69.978 40.13C69.978 39.6167 69.782 39.206 69.39 38.898C69.0073 38.5807 68.396 38.422 67.556 38.422H66.772V37.442L69.684 33.858L69.88 34.418H64.518V33.2H70.986V34.152L68.088 37.722L67.36 37.288H67.822C69.0073 37.288 69.894 37.554 70.482 38.086C71.0793 38.618 71.378 39.2947 71.378 40.116C71.378 40.6667 71.2427 41.1707 70.972 41.628C70.7013 42.0853 70.2907 42.4493 69.74 42.72C69.1987 42.9813 68.508 43.112 67.668 43.112ZM76.6877 43.112C75.9224 43.112 75.2364 42.916 74.6297 42.524C74.0324 42.132 73.5564 41.5627 73.2017 40.816C72.8564 40.0693 72.6837 39.164 72.6837 38.1C72.6837 37.036 72.8564 36.1307 73.2017 35.384C73.5564 34.6373 74.0324 34.068 74.6297 33.676C75.2364 33.284 75.9224 33.088 76.6877 33.088C77.4437 33.088 78.1251 33.284 78.7317 33.676C79.3384 34.068 79.8144 34.6373 80.1597 35.384C80.5051 36.1307 80.6777 37.036 80.6777 38.1C80.6777 39.164 80.5051 40.0693 80.1597 40.816C79.8144 41.5627 79.3384 42.132 78.7317 42.524C78.1251 42.916 77.4437 43.112 76.6877 43.112ZM76.6877 41.866C77.2011 41.866 77.6491 41.726 78.0317 41.446C78.4237 41.166 78.7271 40.746 78.9417 40.186C79.1657 39.626 79.2777 38.9307 79.2777 38.1C79.2777 37.2693 79.1657 36.574 78.9417 36.014C78.7271 35.454 78.4237 35.034 78.0317 34.754C77.6491 34.474 77.2011 34.334 76.6877 34.334C76.1744 34.334 75.7217 34.474 75.3297 34.754C74.9377 35.034 74.6297 35.454 74.4057 36.014C74.1911 36.574 74.0837 37.2693 74.0837 38.1C74.0837 38.9307 74.1911 39.626 74.4057 40.186C74.6297 40.746 74.9377 41.166 75.3297 41.446C75.7217 41.726 76.1744 41.866 76.6877 41.866ZM86.5794 43V33.2H90.7094C91.7547 33.2 92.674 33.4053 93.4674 33.816C94.27 34.2267 94.8907 34.8007 95.3294 35.538C95.7774 36.2753 96.0014 37.1293 96.0014 38.1C96.0014 39.0707 95.7774 39.9247 95.3294 40.662C94.8907 41.3993 94.27 41.9733 93.4674 42.384C92.674 42.7947 91.7547 43 90.7094 43H86.5794ZM87.9794 41.782H90.6254C91.4374 41.782 92.1374 41.628 92.7254 41.32C93.3227 41.012 93.7847 40.5827 94.1114 40.032C94.438 39.472 94.6014 38.828 94.6014 38.1C94.6014 37.3627 94.438 36.7187 94.1114 36.168C93.7847 35.6173 93.3227 35.188 92.7254 34.88C92.1374 34.572 91.4374 34.418 90.6254 34.418H87.9794V41.782ZM102.556 43V41.432L102.486 41.138V38.464C102.486 37.8947 102.318 37.456 101.982 37.148C101.655 36.8307 101.16 36.672 100.498 36.672C100.059 36.672 99.6298 36.7467 99.2098 36.896C98.7898 37.036 98.4351 37.2273 98.1458 37.47L97.5858 36.462C97.9684 36.154 98.4258 35.9207 98.9578 35.762C99.4991 35.594 100.064 35.51 100.652 35.51C101.669 35.51 102.453 35.7573 103.004 36.252C103.554 36.7467 103.83 37.5027 103.83 38.52V43H102.556ZM100.12 43.084C99.5691 43.084 99.0838 42.9907 98.6638 42.804C98.2531 42.6173 97.9358 42.3607 97.7118 42.034C97.4878 41.698 97.3758 41.32 97.3758 40.9C97.3758 40.4987 97.4691 40.1347 97.6558 39.808C97.8518 39.4813 98.1644 39.22 98.5938 39.024C99.0324 38.828 99.6204 38.73 100.358 38.73H102.71V39.696H100.414C99.7418 39.696 99.2891 39.808 99.0558 40.032C98.8224 40.256 98.7058 40.5267 98.7058 40.844C98.7058 41.208 98.8504 41.502 99.1398 41.726C99.4291 41.9407 99.8304 42.048 100.344 42.048C100.848 42.048 101.286 41.936 101.66 41.712C102.042 41.488 102.318 41.1613 102.486 40.732L102.752 41.656C102.574 42.0947 102.262 42.4447 101.814 42.706C101.366 42.958 100.801 43.084 100.12 43.084ZM106.502 45.8C106.148 45.8 105.802 45.7393 105.466 45.618C105.13 45.506 104.841 45.338 104.598 45.114L105.172 44.106C105.359 44.2833 105.564 44.4187 105.788 44.512C106.012 44.6053 106.25 44.652 106.502 44.652C106.829 44.652 107.1 44.568 107.314 44.4C107.529 44.232 107.73 43.9333 107.916 43.504L108.378 42.482L108.518 42.314L111.43 35.58H112.746L109.148 43.742C108.934 44.2647 108.691 44.6753 108.42 44.974C108.159 45.2727 107.87 45.4827 107.552 45.604C107.235 45.7347 106.885 45.8 106.502 45.8ZM108.266 43.238L104.878 35.58H106.278L109.162 42.188L108.266 43.238ZM116.033 43.084C115.417 43.084 114.829 43 114.269 42.832C113.718 42.664 113.284 42.4587 112.967 42.216L113.527 41.152C113.844 41.3667 114.236 41.5487 114.703 41.698C115.17 41.8473 115.646 41.922 116.131 41.922C116.756 41.922 117.204 41.8333 117.475 41.656C117.755 41.4787 117.895 41.2313 117.895 40.914C117.895 40.6807 117.811 40.4987 117.643 40.368C117.475 40.2373 117.251 40.1393 116.971 40.074C116.7 40.0087 116.397 39.9527 116.061 39.906C115.725 39.85 115.389 39.7847 115.053 39.71C114.717 39.626 114.409 39.514 114.129 39.374C113.849 39.2247 113.625 39.024 113.457 38.772C113.289 38.5107 113.205 38.1653 113.205 37.736C113.205 37.288 113.331 36.896 113.583 36.56C113.835 36.224 114.19 35.9673 114.647 35.79C115.114 35.6033 115.664 35.51 116.299 35.51C116.784 35.51 117.274 35.5707 117.769 35.692C118.273 35.804 118.684 35.9673 119.001 36.182L118.427 37.246C118.091 37.022 117.741 36.868 117.377 36.784C117.013 36.7 116.649 36.658 116.285 36.658C115.697 36.658 115.258 36.756 114.969 36.952C114.68 37.1387 114.535 37.3813 114.535 37.68C114.535 37.932 114.619 38.128 114.787 38.268C114.964 38.3987 115.188 38.5013 115.459 38.576C115.739 38.6507 116.047 38.716 116.383 38.772C116.719 38.8187 117.055 38.884 117.391 38.968C117.727 39.0427 118.03 39.15 118.301 39.29C118.581 39.43 118.805 39.626 118.973 39.878C119.15 40.13 119.239 40.466 119.239 40.886C119.239 41.334 119.108 41.7213 118.847 42.048C118.586 42.3747 118.217 42.6313 117.741 42.818C117.265 42.9953 116.696 43.084 116.033 43.084ZM124.874 43V33.2H126.022L130.418 40.606H129.802L134.142 33.2H135.29L135.304 43H133.96L133.946 35.314H134.268L130.404 41.81H129.76L125.868 35.314H126.218V43H124.874ZM141.227 43.084C140.481 43.084 139.818 42.9207 139.239 42.594C138.661 42.2673 138.203 41.8193 137.867 41.25C137.531 40.6713 137.363 40.018 137.363 39.29C137.363 38.5527 137.531 37.8993 137.867 37.33C138.203 36.7607 138.661 36.3173 139.239 36C139.818 35.6733 140.481 35.51 141.227 35.51C141.965 35.51 142.623 35.6733 143.201 36C143.789 36.3173 144.247 36.7607 144.573 37.33C144.909 37.89 145.077 38.5433 145.077 39.29C145.077 40.0273 144.909 40.6807 144.573 41.25C144.247 41.8193 143.789 42.2673 143.201 42.594C142.623 42.9207 141.965 43.084 141.227 43.084ZM141.227 41.908C141.703 41.908 142.128 41.8007 142.501 41.586C142.884 41.3713 143.183 41.068 143.397 40.676C143.612 40.2747 143.719 39.8127 143.719 39.29C143.719 38.758 143.612 38.3007 143.397 37.918C143.183 37.526 142.884 37.2227 142.501 37.008C142.128 36.7933 141.703 36.686 141.227 36.686C140.751 36.686 140.327 36.7933 139.953 37.008C139.58 37.2227 139.281 37.526 139.057 37.918C138.833 38.3007 138.721 38.758 138.721 39.29C138.721 39.8127 138.833 40.2747 139.057 40.676C139.281 41.068 139.58 41.3713 139.953 41.586C140.327 41.8007 140.751 41.908 141.227 41.908ZM150.898 35.51C151.505 35.51 152.037 35.6267 152.494 35.86C152.961 36.0933 153.325 36.448 153.586 36.924C153.847 37.4 153.978 38.002 153.978 38.73V43H152.634V38.884C152.634 38.1653 152.457 37.624 152.102 37.26C151.757 36.896 151.267 36.714 150.632 36.714C150.156 36.714 149.741 36.8073 149.386 36.994C149.031 37.1807 148.756 37.456 148.56 37.82C148.373 38.184 148.28 38.6367 148.28 39.178V43H146.936V35.58H148.224V37.582L148.014 37.05C148.257 36.5647 148.63 36.1867 149.134 35.916C149.638 35.6453 150.226 35.51 150.898 35.51ZM159.769 43.084C158.976 43.084 158.276 42.9207 157.669 42.594C157.072 42.2673 156.605 41.8193 156.269 41.25C155.943 40.6807 155.779 40.0273 155.779 39.29C155.779 38.5527 155.938 37.8993 156.255 37.33C156.582 36.7607 157.025 36.3173 157.585 36C158.155 35.6733 158.794 35.51 159.503 35.51C160.222 35.51 160.857 35.6687 161.407 35.986C161.958 36.3033 162.387 36.7513 162.695 37.33C163.013 37.8993 163.171 38.5667 163.171 39.332C163.171 39.388 163.167 39.4533 163.157 39.528C163.157 39.6027 163.153 39.6727 163.143 39.738H156.829V38.772H162.443L161.897 39.108C161.907 38.632 161.809 38.2073 161.603 37.834C161.398 37.4607 161.113 37.1713 160.749 36.966C160.395 36.7513 159.979 36.644 159.503 36.644C159.037 36.644 158.621 36.7513 158.257 36.966C157.893 37.1713 157.609 37.4653 157.403 37.848C157.198 38.2213 157.095 38.6507 157.095 39.136V39.36C157.095 39.8547 157.207 40.298 157.431 40.69C157.665 41.0727 157.987 41.3713 158.397 41.586C158.808 41.8007 159.279 41.908 159.811 41.908C160.25 41.908 160.647 41.8333 161.001 41.684C161.365 41.5347 161.683 41.3107 161.953 41.012L162.695 41.88C162.359 42.272 161.939 42.5707 161.435 42.776C160.941 42.9813 160.385 43.084 159.769 43.084ZM165.223 45.8C164.868 45.8 164.523 45.7393 164.187 45.618C163.851 45.506 163.562 45.338 163.319 45.114L163.893 44.106C164.08 44.2833 164.285 44.4187 164.509 44.512C164.733 44.6053 164.971 44.652 165.223 44.652C165.55 44.652 165.82 44.568 166.035 44.4C166.25 44.232 166.45 43.9333 166.637 43.504L167.099 42.482L167.239 42.314L170.151 35.58H171.467L167.869 43.742C167.654 44.2647 167.412 44.6753 167.141 44.974C166.88 45.2727 166.59 45.4827 166.273 45.604C165.956 45.7347 165.606 45.8 165.223 45.8ZM166.987 43.238L163.599 35.58H164.999L167.883 42.188L166.987 43.238ZM172.068 39.738V38.576H175.834V39.738H172.068ZM178.099 43V33.2H182.495C183.624 33.2 184.492 33.4287 185.099 33.886C185.706 34.334 186.009 34.95 186.009 35.734C186.009 36.266 185.888 36.714 185.645 37.078C185.412 37.442 185.094 37.722 184.693 37.918C184.292 38.114 183.858 38.212 183.391 38.212L183.643 37.792C184.203 37.792 184.698 37.89 185.127 38.086C185.556 38.282 185.897 38.5713 186.149 38.954C186.401 39.3273 186.527 39.794 186.527 40.354C186.527 41.194 186.21 41.8473 185.575 42.314C184.95 42.7713 184.016 43 182.775 43H178.099ZM179.499 41.866H182.719C183.494 41.866 184.086 41.7353 184.497 41.474C184.908 41.2127 185.113 40.802 185.113 40.242C185.113 39.6727 184.908 39.2573 184.497 38.996C184.086 38.7347 183.494 38.604 182.719 38.604H179.373V37.47H182.369C183.078 37.47 183.629 37.3393 184.021 37.078C184.413 36.8167 184.609 36.4247 184.609 35.902C184.609 35.3793 184.413 34.9873 184.021 34.726C183.629 34.4647 183.078 34.334 182.369 34.334H179.499V41.866ZM193.105 43V41.432L193.035 41.138V38.464C193.035 37.8947 192.867 37.456 192.531 37.148C192.204 36.8307 191.709 36.672 191.047 36.672C190.608 36.672 190.179 36.7467 189.759 36.896C189.339 37.036 188.984 37.2273 188.695 37.47L188.135 36.462C188.517 36.154 188.975 35.9207 189.507 35.762C190.048 35.594 190.613 35.51 191.201 35.51C192.218 35.51 193.002 35.7573 193.553 36.252C194.103 36.7467 194.379 37.5027 194.379 38.52V43H193.105ZM190.669 43.084C190.118 43.084 189.633 42.9907 189.213 42.804C188.802 42.6173 188.485 42.3607 188.261 42.034C188.037 41.698 187.925 41.32 187.925 40.9C187.925 40.4987 188.018 40.1347 188.205 39.808C188.401 39.4813 188.713 39.22 189.143 39.024C189.581 38.828 190.169 38.73 190.907 38.73H193.259V39.696H190.963C190.291 39.696 189.838 39.808 189.605 40.032C189.371 40.256 189.255 40.5267 189.255 40.844C189.255 41.208 189.399 41.502 189.689 41.726C189.978 41.9407 190.379 42.048 190.893 42.048C191.397 42.048 191.835 41.936 192.209 41.712C192.591 41.488 192.867 41.1613 193.035 40.732L193.301 41.656C193.123 42.0947 192.811 42.4447 192.363 42.706C191.915 42.958 191.35 43.084 190.669 43.084ZM200.1 43.084C199.344 43.084 198.667 42.9207 198.07 42.594C197.482 42.2673 197.02 41.8193 196.684 41.25C196.348 40.6807 196.18 40.0273 196.18 39.29C196.18 38.5527 196.348 37.8993 196.684 37.33C197.02 36.7607 197.482 36.3173 198.07 36C198.667 35.6733 199.344 35.51 200.1 35.51C200.772 35.51 201.369 35.6453 201.892 35.916C202.424 36.1773 202.834 36.5693 203.124 37.092L202.102 37.75C201.859 37.386 201.56 37.12 201.206 36.952C200.86 36.7747 200.487 36.686 200.086 36.686C199.6 36.686 199.166 36.7933 198.784 37.008C198.401 37.2227 198.098 37.526 197.874 37.918C197.65 38.3007 197.538 38.758 197.538 39.29C197.538 39.822 197.65 40.284 197.874 40.676C198.098 41.068 198.401 41.3713 198.784 41.586C199.166 41.8007 199.6 41.908 200.086 41.908C200.487 41.908 200.86 41.824 201.206 41.656C201.56 41.4787 201.859 41.208 202.102 40.844L203.124 41.488C202.834 42.0013 202.424 42.398 201.892 42.678C201.369 42.9487 200.772 43.084 200.1 43.084ZM205.86 41.208L205.888 39.486L210.158 35.58H211.782L208.506 38.8L207.778 39.416L205.86 41.208ZM204.768 43V32.612H206.112V43H204.768ZM210.438 43L207.526 39.388L208.394 38.31L212.09 43H210.438ZM221.775 43.112C221.019 43.112 220.324 42.9907 219.689 42.748C219.054 42.496 218.504 42.146 218.037 41.698C217.57 41.2407 217.206 40.7087 216.945 40.102C216.684 39.4953 216.553 38.828 216.553 38.1C216.553 37.372 216.684 36.7047 216.945 36.098C217.206 35.4913 217.57 34.964 218.037 34.516C218.513 34.0587 219.068 33.7087 219.703 33.466C220.338 33.214 221.038 33.088 221.803 33.088C222.578 33.088 223.287 33.214 223.931 33.466C224.575 33.718 225.121 34.096 225.569 34.6L224.701 35.468C224.3 35.076 223.861 34.7913 223.385 34.614C222.918 34.4273 222.41 34.334 221.859 34.334C221.299 34.334 220.776 34.4273 220.291 34.614C219.815 34.8007 219.4 35.062 219.045 35.398C218.7 35.734 218.429 36.1353 218.233 36.602C218.046 37.0593 217.953 37.5587 217.953 38.1C217.953 38.632 218.046 39.1313 218.233 39.598C218.429 40.0553 218.7 40.4567 219.045 40.802C219.4 41.138 219.815 41.3993 220.291 41.586C220.767 41.7727 221.285 41.866 221.845 41.866C222.368 41.866 222.867 41.7867 223.343 41.628C223.828 41.46 224.276 41.1847 224.687 40.802L225.485 41.866C225 42.2767 224.43 42.5893 223.777 42.804C223.133 43.0093 222.466 43.112 221.775 43.112ZM224.141 41.684V38.044H225.485V41.866L224.141 41.684ZM231.091 43.084C230.457 43.084 229.897 42.9673 229.411 42.734C228.935 42.5007 228.562 42.146 228.291 41.67C228.03 41.1847 227.899 40.578 227.899 39.85V35.58H229.243V39.696C229.243 40.424 229.416 40.97 229.761 41.334C230.116 41.698 230.611 41.88 231.245 41.88C231.712 41.88 232.118 41.7867 232.463 41.6C232.809 41.404 233.075 41.124 233.261 40.76C233.448 40.3867 233.541 39.9387 233.541 39.416V35.58H234.885V43H233.611V40.998L233.821 41.53C233.579 42.0247 233.215 42.4073 232.729 42.678C232.244 42.9487 231.698 43.084 231.091 43.084ZM242.05 43V41.432L241.98 41.138V38.464C241.98 37.8947 241.812 37.456 241.476 37.148C241.149 36.8307 240.655 36.672 239.992 36.672C239.553 36.672 239.124 36.7467 238.704 36.896C238.284 37.036 237.929 37.2273 237.64 37.47L237.08 36.462C237.463 36.154 237.92 35.9207 238.452 35.762C238.993 35.594 239.558 35.51 240.146 35.51C241.163 35.51 241.947 35.7573 242.498 36.252C243.049 36.7467 243.324 37.5027 243.324 38.52V43H242.05ZM239.614 43.084C239.063 43.084 238.578 42.9907 238.158 42.804C237.747 42.6173 237.43 42.3607 237.206 42.034C236.982 41.698 236.87 41.32 236.87 40.9C236.87 40.4987 236.963 40.1347 237.15 39.808C237.346 39.4813 237.659 39.22 238.088 39.024C238.527 38.828 239.115 38.73 239.852 38.73H242.204V39.696H239.908C239.236 39.696 238.783 39.808 238.55 40.032C238.317 40.256 238.2 40.5267 238.2 40.844C238.2 41.208 238.345 41.502 238.634 41.726C238.923 41.9407 239.325 42.048 239.838 42.048C240.342 42.048 240.781 41.936 241.154 41.712C241.537 41.488 241.812 41.1613 241.98 40.732L242.246 41.656C242.069 42.0947 241.756 42.4447 241.308 42.706C240.86 42.958 240.295 43.084 239.614 43.084ZM245.811 43V35.58H247.099V37.596L246.973 37.092C247.178 36.5787 247.524 36.1867 248.009 35.916C248.494 35.6453 249.092 35.51 249.801 35.51V36.812C249.745 36.8027 249.689 36.798 249.633 36.798C249.586 36.798 249.54 36.798 249.493 36.798C248.774 36.798 248.205 37.0127 247.785 37.442C247.365 37.8713 247.155 38.492 247.155 39.304V43H245.811ZM255.517 43V41.432L255.447 41.138V38.464C255.447 37.8947 255.279 37.456 254.943 37.148C254.616 36.8307 254.121 36.672 253.459 36.672C253.02 36.672 252.591 36.7467 252.171 36.896C251.751 37.036 251.396 37.2273 251.107 37.47L250.547 36.462C250.929 36.154 251.387 35.9207 251.919 35.762C252.46 35.594 253.025 35.51 253.613 35.51C254.63 35.51 255.414 35.7573 255.965 36.252C256.515 36.7467 256.791 37.5027 256.791 38.52V43H255.517ZM253.081 43.084C252.53 43.084 252.045 42.9907 251.625 42.804C251.214 42.6173 250.897 42.3607 250.673 42.034C250.449 41.698 250.337 41.32 250.337 40.9C250.337 40.4987 250.43 40.1347 250.617 39.808C250.813 39.4813 251.125 39.22 251.555 39.024C251.993 38.828 252.581 38.73 253.319 38.73H255.671V39.696H253.375C252.703 39.696 252.25 39.808 252.017 40.032C251.783 40.256 251.667 40.5267 251.667 40.844C251.667 41.208 251.811 41.502 252.101 41.726C252.39 41.9407 252.791 42.048 253.305 42.048C253.809 42.048 254.247 41.936 254.621 41.712C255.003 41.488 255.279 41.1613 255.447 40.732L255.713 41.656C255.535 42.0947 255.223 42.4447 254.775 42.706C254.327 42.958 253.762 43.084 253.081 43.084ZM263.24 35.51C263.847 35.51 264.379 35.6267 264.836 35.86C265.303 36.0933 265.667 36.448 265.928 36.924C266.189 37.4 266.32 38.002 266.32 38.73V43H264.976V38.884C264.976 38.1653 264.799 37.624 264.444 37.26C264.099 36.896 263.609 36.714 262.974 36.714C262.498 36.714 262.083 36.8073 261.728 36.994C261.373 37.1807 261.098 37.456 260.902 37.82C260.715 38.184 260.622 38.6367 260.622 39.178V43H259.278V35.58H260.566V37.582L260.356 37.05C260.599 36.5647 260.972 36.1867 261.476 35.916C261.98 35.6453 262.568 35.51 263.24 35.51ZM271.355 43.084C270.609 43.084 270.03 42.8833 269.619 42.482C269.209 42.0807 269.003 41.5067 269.003 40.76V33.956H270.347V40.704C270.347 41.1053 270.445 41.4133 270.641 41.628C270.847 41.8427 271.136 41.95 271.509 41.95C271.929 41.95 272.279 41.8333 272.559 41.6L272.979 42.566C272.774 42.7433 272.527 42.874 272.237 42.958C271.957 43.042 271.663 43.084 271.355 43.084ZM267.743 36.686V35.58H272.475V36.686H267.743ZM277.662 43.084C276.869 43.084 276.169 42.9207 275.562 42.594C274.965 42.2673 274.498 41.8193 274.162 41.25C273.835 40.6807 273.672 40.0273 273.672 39.29C273.672 38.5527 273.831 37.8993 274.148 37.33C274.475 36.7607 274.918 36.3173 275.478 36C276.047 35.6733 276.687 35.51 277.396 35.51C278.115 35.51 278.749 35.6687 279.3 35.986C279.851 36.3033 280.28 36.7513 280.588 37.33C280.905 37.8993 281.064 38.5667 281.064 39.332C281.064 39.388 281.059 39.4533 281.05 39.528C281.05 39.6027 281.045 39.6727 281.036 39.738H274.722V38.772H280.336L279.79 39.108C279.799 38.632 279.701 38.2073 279.496 37.834C279.291 37.4607 279.006 37.1713 278.642 36.966C278.287 36.7513 277.872 36.644 277.396 36.644C276.929 36.644 276.514 36.7513 276.15 36.966C275.786 37.1713 275.501 37.4653 275.296 37.848C275.091 38.2213 274.988 38.6507 274.988 39.136V39.36C274.988 39.8547 275.1 40.298 275.324 40.69C275.557 41.0727 275.879 41.3713 276.29 41.586C276.701 41.8007 277.172 41.908 277.704 41.908C278.143 41.908 278.539 41.8333 278.894 41.684C279.258 41.5347 279.575 41.3107 279.846 41.012L280.588 41.88C280.252 42.272 279.832 42.5707 279.328 42.776C278.833 42.9813 278.278 43.084 277.662 43.084ZM286.234 43.084C285.441 43.084 284.741 42.9207 284.134 42.594C283.537 42.2673 283.07 41.8193 282.734 41.25C282.408 40.6807 282.244 40.0273 282.244 39.29C282.244 38.5527 282.403 37.8993 282.72 37.33C283.047 36.7607 283.49 36.3173 284.05 36C284.62 35.6733 285.259 35.51 285.968 35.51C286.687 35.51 287.322 35.6687 287.872 35.986C288.423 36.3033 288.852 36.7513 289.16 37.33C289.478 37.8993 289.636 38.5667 289.636 39.332C289.636 39.388 289.632 39.4533 289.622 39.528C289.622 39.6027 289.618 39.6727 289.608 39.738H283.294V38.772H288.908L288.362 39.108C288.372 38.632 288.274 38.2073 288.068 37.834C287.863 37.4607 287.578 37.1713 287.214 36.966C286.86 36.7513 286.444 36.644 285.968 36.644C285.502 36.644 285.086 36.7513 284.722 36.966C284.358 37.1713 284.074 37.4653 283.868 37.848C283.663 38.2213 283.56 38.6507 283.56 39.136V39.36C283.56 39.8547 283.672 40.298 283.896 40.69C284.13 41.0727 284.452 41.3713 284.862 41.586C285.273 41.8007 285.744 41.908 286.276 41.908C286.715 41.908 287.112 41.8333 287.466 41.684C287.83 41.5347 288.148 41.3107 288.418 41.012L289.16 41.88C288.824 42.272 288.404 42.5707 287.9 42.776C287.406 42.9813 286.85 43.084 286.234 43.084Z" fill="#999999"/>
<defs>
<clipPath id="clip0_471_12031">
<rect width="48" height="43" fill="white" transform="translate(0 2.5)"/>
</clipPath>
</defs>
</svg>
