<svg width="314" height="48" viewBox="0 0 314 48" fill="none" xmlns="http://www.w3.org/2000/svg">
<path d="M40.4207 18.2521V16.4067C40.4207 11.9899 38.8577 7.88571 36.0241 4.84034C33.1199 1.71429 29.1266 0 24.7703 0H23.2476C18.8913 0 14.8981 1.71429 11.9938 4.84034C9.16024 7.88571 7.59721 11.9899 7.59721 16.4067V18.2521C4.15855 18.484 1.42578 21.3479 1.42578 24.8471V27.7311C1.42578 31.3714 4.39049 34.3361 8.03082 34.3361H11.7518C12.4174 34.3361 12.9619 33.7916 12.9619 33.126V19.442C12.9619 18.7765 12.4174 18.2319 11.7518 18.2319H10.0174V16.4067C10.0174 8.43025 15.7048 2.42017 23.2375 2.42017H24.7602C32.3031 2.42017 37.9804 8.43025 37.9804 16.4067V18.2319H36.246C35.5804 18.2319 35.0359 18.7765 35.0359 19.442V33.116C35.0359 33.7815 35.5804 34.326 36.246 34.326H37.9401C37.446 40.6387 33.0997 42.1008 31.0829 42.4336C30.5283 40.7294 28.9249 39.4992 27.0392 39.4992H24.014C21.6745 39.4992 19.7686 41.405 19.7686 43.7445C19.7686 46.084 21.6745 48 24.014 48H27.0493C29.0056 48 30.6493 46.6689 31.1434 44.874C32.1317 44.7328 33.6947 44.3798 35.2476 43.4723C37.4359 42.1916 40.0275 39.5798 40.3703 34.316C43.8291 34.1042 46.572 31.2303 46.572 27.721V24.837C46.5821 21.3479 43.8594 18.4739 40.4207 18.2521ZM10.5619 31.9059H8.05099C5.74175 31.9059 3.86612 30.0303 3.86612 27.721V24.837C3.86612 22.5277 5.74175 20.6521 8.05099 20.6521H10.5619V31.9059ZM27.0493 45.5798H24.014C23.0056 45.5798 22.1888 44.763 22.1888 43.7546C22.1888 42.7462 23.0056 41.9294 24.014 41.9294H27.0493C28.0577 41.9294 28.8745 42.7462 28.8745 43.7546C28.8745 44.763 28.0577 45.5798 27.0493 45.5798ZM44.1619 27.721C44.1619 30.0303 42.2863 31.9059 39.977 31.9059H37.4661V20.6521H39.977C42.2863 20.6521 44.1619 22.5277 44.1619 24.837V27.721Z" fill="#E09A88"/>
<path d="M70.688 15.16C69.8347 15.16 69.04 15.0213 68.304 14.744C67.5787 14.456 66.944 14.056 66.4 13.544C65.8667 13.0213 65.4507 12.408 65.152 11.704C64.8533 11 64.704 10.232 64.704 9.4C64.704 8.568 64.8533 7.8 65.152 7.096C65.4507 6.392 65.872 5.784 66.416 5.272C66.96 4.74933 67.5947 4.34933 68.32 4.072C69.0453 3.784 69.84 3.64 70.704 3.64C71.6213 3.64 72.4587 3.8 73.216 4.12C73.9733 4.42933 74.6133 4.89333 75.136 5.512L73.792 6.776C73.3867 6.33867 72.9333 6.01333 72.432 5.8C71.9307 5.576 71.3867 5.464 70.8 5.464C70.2133 5.464 69.6747 5.56 69.184 5.752C68.704 5.944 68.2827 6.216 67.92 6.568C67.568 6.92 67.2907 7.336 67.088 7.816C66.896 8.296 66.8 8.824 66.8 9.4C66.8 9.976 66.896 10.504 67.088 10.984C67.2907 11.464 67.568 11.88 67.92 12.232C68.2827 12.584 68.704 12.856 69.184 13.048C69.6747 13.24 70.2133 13.336 70.8 13.336C71.3867 13.336 71.9307 13.2293 72.432 13.016C72.9333 12.792 73.3867 12.456 73.792 12.008L75.136 13.288C74.6133 13.896 73.9733 14.36 73.216 14.68C72.4587 15 71.616 15.16 70.688 15.16ZM80.3186 15.112C79.5933 15.112 78.9533 14.9787 78.3986 14.712C77.844 14.4347 77.412 14.0187 77.1026 13.464C76.7933 12.8987 76.6386 12.1893 76.6386 11.336V6.456H78.6386V11.064C78.6386 11.832 78.8093 12.408 79.1506 12.792C79.5026 13.1653 79.9986 13.352 80.6386 13.352C81.108 13.352 81.5133 13.256 81.8546 13.064C82.2066 12.872 82.4786 12.584 82.6706 12.2C82.8733 11.816 82.9746 11.3413 82.9746 10.776V6.456H84.9746V15H83.0706V12.696L83.4066 13.4C83.1186 13.9547 82.6973 14.3813 82.1426 14.68C81.588 14.968 80.98 15.112 80.3186 15.112ZM90.2333 15.112C89.5186 15.112 88.8306 15.0213 88.1693 14.84C87.5186 14.648 87.0013 14.4187 86.6173 14.152L87.3853 12.632C87.7693 12.8773 88.2279 13.08 88.7613 13.24C89.2946 13.4 89.8279 13.48 90.3613 13.48C90.9906 13.48 91.4439 13.3947 91.7213 13.224C92.0093 13.0533 92.1533 12.824 92.1533 12.536C92.1533 12.3013 92.0573 12.1253 91.8653 12.008C91.6733 11.88 91.4226 11.784 91.1133 11.72C90.8039 11.656 90.4573 11.5973 90.0733 11.544C89.6999 11.4907 89.3213 11.4213 88.9373 11.336C88.5639 11.24 88.2226 11.1067 87.9133 10.936C87.6039 10.7547 87.3533 10.5147 87.1613 10.216C86.9693 9.91733 86.8733 9.52267 86.8733 9.032C86.8733 8.488 87.0279 8.01867 87.3372 7.624C87.6466 7.21867 88.0786 6.90933 88.6332 6.696C89.1986 6.472 89.8653 6.36 90.6333 6.36C91.2093 6.36 91.7906 6.424 92.3773 6.552C92.9639 6.68 93.4493 6.86133 93.8333 7.096L93.0653 8.616C92.6599 8.37067 92.2493 8.20533 91.8333 8.12C91.4279 8.024 91.0226 7.976 90.6173 7.976C90.0093 7.976 89.5559 8.06667 89.2573 8.248C88.9693 8.42933 88.8253 8.65867 88.8253 8.936C88.8253 9.192 88.9213 9.384 89.1133 9.512C89.3053 9.64 89.5559 9.74133 89.8653 9.816C90.1746 9.89067 90.5159 9.95467 90.8893 10.008C91.2733 10.0507 91.6519 10.12 92.0253 10.216C92.3986 10.312 92.7399 10.4453 93.0493 10.616C93.3693 10.776 93.6253 11.0053 93.8173 11.304C94.0093 11.6027 94.1053 11.992 94.1053 12.472C94.1053 13.0053 93.9453 13.4693 93.6253 13.864C93.3159 14.2587 92.8733 14.568 92.2973 14.792C91.7213 15.0053 91.0333 15.112 90.2333 15.112ZM99.0436 15.112C98.105 15.112 97.3796 14.872 96.8676 14.392C96.3556 13.9013 96.0996 13.1813 96.0996 12.232V4.568H98.0996V12.184C98.0996 12.5893 98.201 12.904 98.4036 13.128C98.617 13.352 98.9103 13.464 99.2836 13.464C99.7316 13.464 100.105 13.3467 100.404 13.112L100.964 14.536C100.729 14.728 100.441 14.872 100.1 14.968C99.7583 15.064 99.4063 15.112 99.0436 15.112ZM94.6916 8.12V6.52H100.388V8.12H94.6916ZM106.168 15.112C105.293 15.112 104.514 14.9253 103.832 14.552C103.149 14.168 102.61 13.6453 102.216 12.984C101.821 12.3227 101.624 11.5707 101.624 10.728C101.624 9.87467 101.821 9.12267 102.216 8.472C102.61 7.81067 103.149 7.29333 103.832 6.92C104.514 6.54667 105.293 6.36 106.168 6.36C107.053 6.36 107.837 6.54667 108.52 6.92C109.213 7.29333 109.752 7.80533 110.136 8.456C110.53 9.10667 110.728 9.864 110.728 10.728C110.728 11.5707 110.53 12.3227 110.136 12.984C109.752 13.6453 109.213 14.168 108.52 14.552C107.837 14.9253 107.053 15.112 106.168 15.112ZM106.168 13.4C106.658 13.4 107.096 13.2933 107.48 13.08C107.864 12.8667 108.162 12.5573 108.376 12.152C108.6 11.7467 108.712 11.272 108.712 10.728C108.712 10.1733 108.6 9.69867 108.376 9.304C108.162 8.89867 107.864 8.58933 107.48 8.376C107.096 8.16267 106.664 8.056 106.184 8.056C105.693 8.056 105.256 8.16267 104.872 8.376C104.498 8.58933 104.2 8.89867 103.976 9.304C103.752 9.69867 103.64 10.1733 103.64 10.728C103.64 11.272 103.752 11.7467 103.976 12.152C104.2 12.5573 104.498 12.8667 104.872 13.08C105.256 13.2933 105.688 13.4 106.168 13.4ZM123.424 6.36C124.107 6.36 124.709 6.49333 125.232 6.76C125.765 7.02667 126.181 7.43733 126.48 7.992C126.779 8.536 126.928 9.24 126.928 10.104V15H124.928V10.36C124.928 9.60267 124.763 9.03733 124.432 8.664C124.101 8.29067 123.627 8.104 123.008 8.104C122.571 8.104 122.181 8.2 121.84 8.392C121.509 8.584 121.248 8.86667 121.056 9.24C120.875 9.61333 120.784 10.088 120.784 10.664V15H118.784V10.36C118.784 9.60267 118.619 9.03733 118.288 8.664C117.957 8.29067 117.483 8.104 116.864 8.104C116.427 8.104 116.037 8.2 115.696 8.392C115.365 8.584 115.104 8.86667 114.912 9.24C114.731 9.61333 114.64 10.088 114.64 10.664V15H112.64V6.456H114.544V8.728L114.208 8.056C114.496 7.50133 114.912 7.08 115.456 6.792C116.011 6.504 116.64 6.36 117.344 6.36C118.144 6.36 118.837 6.55733 119.424 6.952C120.021 7.34667 120.416 7.944 120.608 8.744L119.824 8.472C120.101 7.832 120.56 7.32 121.2 6.936C121.84 6.552 122.581 6.36 123.424 6.36ZM133.516 15.112C132.566 15.112 131.734 14.9253 131.02 14.552C130.316 14.168 129.766 13.6453 129.372 12.984C128.988 12.3227 128.796 11.5707 128.796 10.728C128.796 9.87467 128.982 9.12267 129.356 8.472C129.74 7.81067 130.262 7.29333 130.924 6.92C131.596 6.54667 132.358 6.36 133.212 6.36C134.044 6.36 134.785 6.54133 135.436 6.904C136.086 7.26667 136.598 7.77867 136.972 8.44C137.345 9.10133 137.532 9.88 137.532 10.776C137.532 10.8613 137.526 10.9573 137.516 11.064C137.516 11.1707 137.51 11.272 137.5 11.368H130.38V10.04H136.444L135.66 10.456C135.67 9.96533 135.569 9.53333 135.356 9.16C135.142 8.78667 134.849 8.49333 134.476 8.28C134.113 8.06667 133.692 7.96 133.212 7.96C132.721 7.96 132.289 8.06667 131.916 8.28C131.553 8.49333 131.265 8.792 131.052 9.176C130.849 9.54933 130.748 9.992 130.748 10.504V10.824C130.748 11.336 130.865 11.7893 131.1 12.184C131.334 12.5787 131.665 12.8827 132.092 13.096C132.518 13.3093 133.009 13.416 133.564 13.416C134.044 13.416 134.476 13.3413 134.86 13.192C135.244 13.0427 135.585 12.808 135.884 12.488L136.956 13.72C136.572 14.168 136.086 14.5147 135.5 14.76C134.924 14.9947 134.262 15.112 133.516 15.112ZM139.453 15V6.456H141.357V8.808L141.133 8.12C141.389 7.544 141.789 7.10667 142.333 6.808C142.887 6.50933 143.575 6.36 144.397 6.36V8.264C144.311 8.24267 144.231 8.232 144.157 8.232C144.082 8.22133 144.007 8.216 143.933 8.216C143.175 8.216 142.573 8.44 142.125 8.888C141.677 9.32533 141.453 9.98133 141.453 10.856V15H139.453ZM154.257 15.16C153.383 15.16 152.545 15.0373 151.745 14.792C150.945 14.536 150.311 14.2107 149.841 13.816L150.561 12.2C151.009 12.552 151.564 12.8453 152.225 13.08C152.887 13.3147 153.564 13.432 154.257 13.432C154.844 13.432 155.319 13.368 155.681 13.24C156.044 13.112 156.311 12.9413 156.481 12.728C156.652 12.504 156.737 12.2533 156.737 11.976C156.737 11.6347 156.615 11.3627 156.369 11.16C156.124 10.9467 155.804 10.7813 155.409 10.664C155.025 10.536 154.593 10.4187 154.113 10.312C153.644 10.2053 153.169 10.0827 152.689 9.944C152.22 9.79467 151.788 9.608 151.393 9.384C151.009 9.14933 150.695 8.84 150.449 8.456C150.204 8.072 150.081 7.58133 150.081 6.984C150.081 6.376 150.241 5.82133 150.561 5.32C150.892 4.808 151.388 4.40267 152.049 4.104C152.721 3.79467 153.569 3.64 154.593 3.64C155.265 3.64 155.932 3.72533 156.593 3.896C157.255 4.06667 157.831 4.312 158.321 4.632L157.665 6.248C157.164 5.94933 156.647 5.73067 156.113 5.592C155.58 5.44267 155.068 5.368 154.577 5.368C154.001 5.368 153.532 5.43733 153.169 5.576C152.817 5.71467 152.556 5.896 152.385 6.12C152.225 6.344 152.145 6.6 152.145 6.888C152.145 7.22933 152.263 7.50667 152.497 7.72C152.743 7.92267 153.057 8.08267 153.441 8.2C153.836 8.31733 154.273 8.43467 154.753 8.552C155.233 8.65867 155.708 8.78133 156.177 8.92C156.657 9.05867 157.089 9.24 157.473 9.464C157.868 9.688 158.183 9.992 158.417 10.376C158.663 10.76 158.785 11.2453 158.785 11.832C158.785 12.4293 158.62 12.984 158.289 13.496C157.969 13.9973 157.473 14.4027 156.801 14.712C156.129 15.0107 155.281 15.16 154.257 15.16ZM164.272 15.112C163.546 15.112 162.906 14.9787 162.352 14.712C161.797 14.4347 161.365 14.0187 161.056 13.464C160.746 12.8987 160.592 12.1893 160.592 11.336V6.456H162.592V11.064C162.592 11.832 162.762 12.408 163.104 12.792C163.456 13.1653 163.952 13.352 164.592 13.352C165.061 13.352 165.466 13.256 165.808 13.064C166.16 12.872 166.432 12.584 166.624 12.2C166.826 11.816 166.928 11.3413 166.928 10.776V6.456H168.928V15H167.024V12.696L167.36 13.4C167.072 13.9547 166.65 14.3813 166.096 14.68C165.541 14.968 164.933 15.112 164.272 15.112ZM176.282 15.112C175.589 15.112 174.954 14.952 174.378 14.632C173.813 14.312 173.36 13.832 173.018 13.192C172.688 12.5413 172.522 11.72 172.522 10.728C172.522 9.72533 172.682 8.904 173.002 8.264C173.333 7.624 173.781 7.14933 174.346 6.84C174.912 6.52 175.557 6.36 176.282 6.36C177.125 6.36 177.866 6.54133 178.506 6.904C179.157 7.26667 179.669 7.77333 180.042 8.424C180.426 9.07467 180.618 9.84267 180.618 10.728C180.618 11.6133 180.426 12.3867 180.042 13.048C179.669 13.6987 179.157 14.2053 178.506 14.568C177.866 14.9307 177.125 15.112 176.282 15.112ZM171.546 18.104V6.456H173.45V8.472L173.386 10.744L173.546 13.016V18.104H171.546ZM176.058 13.4C176.538 13.4 176.965 13.2933 177.338 13.08C177.722 12.8667 178.026 12.5573 178.25 12.152C178.474 11.7467 178.586 11.272 178.586 10.728C178.586 10.1733 178.474 9.69867 178.25 9.304C178.026 8.89867 177.722 8.58933 177.338 8.376C176.965 8.16267 176.538 8.056 176.058 8.056C175.578 8.056 175.146 8.16267 174.762 8.376C174.378 8.58933 174.074 8.89867 173.85 9.304C173.626 9.69867 173.514 10.1733 173.514 10.728C173.514 11.272 173.626 11.7467 173.85 12.152C174.074 12.5573 174.378 12.8667 174.762 13.08C175.146 13.2933 175.578 13.4 176.058 13.4ZM187.251 15.112C186.558 15.112 185.923 14.952 185.347 14.632C184.782 14.312 184.328 13.832 183.987 13.192C183.656 12.5413 183.491 11.72 183.491 10.728C183.491 9.72533 183.651 8.904 183.971 8.264C184.302 7.624 184.75 7.14933 185.315 6.84C185.88 6.52 186.526 6.36 187.251 6.36C188.094 6.36 188.835 6.54133 189.475 6.904C190.126 7.26667 190.638 7.77333 191.011 8.424C191.395 9.07467 191.587 9.84267 191.587 10.728C191.587 11.6133 191.395 12.3867 191.011 13.048C190.638 13.6987 190.126 14.2053 189.475 14.568C188.835 14.9307 188.094 15.112 187.251 15.112ZM182.515 18.104V6.456H184.419V8.472L184.355 10.744L184.515 13.016V18.104H182.515ZM187.027 13.4C187.507 13.4 187.934 13.2933 188.307 13.08C188.691 12.8667 188.995 12.5573 189.219 12.152C189.443 11.7467 189.555 11.272 189.555 10.728C189.555 10.1733 189.443 9.69867 189.219 9.304C188.995 8.89867 188.691 8.58933 188.307 8.376C187.934 8.16267 187.507 8.056 187.027 8.056C186.547 8.056 186.115 8.16267 185.731 8.376C185.347 8.58933 185.043 8.89867 184.819 9.304C184.595 9.69867 184.483 10.1733 184.483 10.728C184.483 11.272 184.595 11.7467 184.819 12.152C185.043 12.5573 185.347 12.8667 185.731 13.08C186.115 13.2933 186.547 13.4 187.027 13.4ZM197.324 15.112C196.449 15.112 195.671 14.9253 194.988 14.552C194.305 14.168 193.767 13.6453 193.372 12.984C192.977 12.3227 192.78 11.5707 192.78 10.728C192.78 9.87467 192.977 9.12267 193.372 8.472C193.767 7.81067 194.305 7.29333 194.988 6.92C195.671 6.54667 196.449 6.36 197.324 6.36C198.209 6.36 198.993 6.54667 199.676 6.92C200.369 7.29333 200.908 7.80533 201.292 8.456C201.687 9.10667 201.884 9.864 201.884 10.728C201.884 11.5707 201.687 12.3227 201.292 12.984C200.908 13.6453 200.369 14.168 199.676 14.552C198.993 14.9253 198.209 15.112 197.324 15.112ZM197.324 13.4C197.815 13.4 198.252 13.2933 198.636 13.08C199.02 12.8667 199.319 12.5573 199.532 12.152C199.756 11.7467 199.868 11.272 199.868 10.728C199.868 10.1733 199.756 9.69867 199.532 9.304C199.319 8.89867 199.02 8.58933 198.636 8.376C198.252 8.16267 197.82 8.056 197.34 8.056C196.849 8.056 196.412 8.16267 196.028 8.376C195.655 8.58933 195.356 8.89867 195.132 9.304C194.908 9.69867 194.796 10.1733 194.796 10.728C194.796 11.272 194.908 11.7467 195.132 12.152C195.356 12.5573 195.655 12.8667 196.028 13.08C196.412 13.2933 196.844 13.4 197.324 13.4ZM203.796 15V6.456H205.7V8.808L205.476 8.12C205.732 7.544 206.132 7.10667 206.676 6.808C207.231 6.50933 207.919 6.36 208.74 6.36V8.264C208.655 8.24267 208.575 8.232 208.5 8.232C208.426 8.22133 208.351 8.216 208.276 8.216C207.519 8.216 206.916 8.44 206.468 8.888C206.02 9.32533 205.796 9.98133 205.796 10.856V15H203.796ZM213.966 15.112C213.027 15.112 212.302 14.872 211.789 14.392C211.278 13.9013 211.022 13.1813 211.022 12.232V4.568H213.022V12.184C213.022 12.5893 213.123 12.904 213.326 13.128C213.539 13.352 213.832 13.464 214.206 13.464C214.654 13.464 215.027 13.3467 215.326 13.112L215.886 14.536C215.651 14.728 215.363 14.872 215.022 14.968C214.68 15.064 214.328 15.112 213.966 15.112ZM209.614 8.12V6.52H215.31V8.12H209.614ZM221.201 15V13.608L225.649 9.384C226.022 9.032 226.299 8.72267 226.481 8.456C226.662 8.18933 226.779 7.944 226.833 7.72C226.897 7.48533 226.929 7.26667 226.929 7.064C226.929 6.552 226.753 6.15733 226.401 5.88C226.049 5.592 225.531 5.448 224.849 5.448C224.305 5.448 223.809 5.544 223.361 5.736C222.923 5.928 222.545 6.22133 222.225 6.616L220.769 5.496C221.206 4.90933 221.793 4.456 222.529 4.136C223.275 3.80533 224.107 3.64 225.025 3.64C225.835 3.64 226.539 3.77333 227.137 4.04C227.745 4.296 228.209 4.664 228.529 5.144C228.859 5.624 229.025 6.19467 229.025 6.856C229.025 7.21867 228.977 7.58133 228.881 7.944C228.785 8.296 228.603 8.66933 228.337 9.064C228.07 9.45867 227.681 9.90133 227.169 10.392L223.345 14.024L222.913 13.24H229.457V15H221.201ZM230.263 12.456V11.016L235.783 3.8H238.007L232.567 11.016L231.527 10.696H240.407V12.456H230.263ZM236.407 15V12.456L236.471 10.696V8.44H238.423V15H236.407ZM240.504 16.6L245.784 1.528H247.576L242.296 16.6H240.504ZM249.639 15L254.263 4.632L254.807 5.56H248.455L249.447 4.552V7.464H247.511V3.8H256.215V5.192L251.863 15H249.639Z" fill="#1A1A1A"/>
<path d="M65.47 43V33.2H66.87V43H65.47ZM73.57 35.51C74.1767 35.51 74.7087 35.6267 75.166 35.86C75.6327 36.0933 75.9967 36.448 76.258 36.924C76.5193 37.4 76.65 38.002 76.65 38.73V43H75.306V38.884C75.306 38.1653 75.1287 37.624 74.774 37.26C74.4287 36.896 73.9387 36.714 73.304 36.714C72.828 36.714 72.4127 36.8073 72.058 36.994C71.7033 37.1807 71.428 37.456 71.232 37.82C71.0453 38.184 70.952 38.6367 70.952 39.178V43H69.608V35.58H70.896V37.582L70.686 37.05C70.9287 36.5647 71.302 36.1867 71.806 35.916C72.31 35.6453 72.898 35.51 73.57 35.51ZM81.2653 43.084C80.6493 43.084 80.0613 43 79.5013 42.832C78.9506 42.664 78.5166 42.4587 78.1993 42.216L78.7593 41.152C79.0766 41.3667 79.4686 41.5487 79.9353 41.698C80.4019 41.8473 80.8779 41.922 81.3633 41.922C81.9886 41.922 82.4366 41.8333 82.7073 41.656C82.9873 41.4787 83.1273 41.2313 83.1273 40.914C83.1273 40.6807 83.0433 40.4987 82.8753 40.368C82.7073 40.2373 82.4833 40.1393 82.2033 40.074C81.9326 40.0087 81.6293 39.9527 81.2933 39.906C80.9573 39.85 80.6213 39.7847 80.2853 39.71C79.9493 39.626 79.6413 39.514 79.3613 39.374C79.0813 39.2247 78.8573 39.024 78.6893 38.772C78.5213 38.5107 78.4373 38.1653 78.4373 37.736C78.4373 37.288 78.5633 36.896 78.8153 36.56C79.0673 36.224 79.4219 35.9673 79.8793 35.79C80.3459 35.6033 80.8966 35.51 81.5313 35.51C82.0166 35.51 82.5066 35.5707 83.0013 35.692C83.5053 35.804 83.9159 35.9673 84.2333 36.182L83.6593 37.246C83.3233 37.022 82.9733 36.868 82.6093 36.784C82.2453 36.7 81.8813 36.658 81.5173 36.658C80.9293 36.658 80.4906 36.756 80.2013 36.952C79.9119 37.1387 79.7673 37.3813 79.7673 37.68C79.7673 37.932 79.8513 38.128 80.0193 38.268C80.1966 38.3987 80.4206 38.5013 80.6913 38.576C80.9713 38.6507 81.2793 38.716 81.6153 38.772C81.9513 38.8187 82.2873 38.884 82.6233 38.968C82.9593 39.0427 83.2626 39.15 83.5333 39.29C83.8133 39.43 84.0373 39.626 84.2053 39.878C84.3826 40.13 84.4713 40.466 84.4713 40.886C84.4713 41.334 84.3406 41.7213 84.0793 42.048C83.8179 42.3747 83.4493 42.6313 82.9733 42.818C82.4973 42.9953 81.9279 43.084 81.2653 43.084ZM88.699 43.084C87.9523 43.084 87.3736 42.8833 86.963 42.482C86.5523 42.0807 86.347 41.5067 86.347 40.76V33.956H87.691V40.704C87.691 41.1053 87.789 41.4133 87.985 41.628C88.1903 41.8427 88.4796 41.95 88.853 41.95C89.273 41.95 89.623 41.8333 89.903 41.6L90.323 42.566C90.1176 42.7433 89.8703 42.874 89.581 42.958C89.301 43.042 89.007 43.084 88.699 43.084ZM85.087 36.686V35.58H89.819V36.686H85.087ZM96.5538 43V41.432L96.4838 41.138V38.464C96.4838 37.8947 96.3158 37.456 95.9798 37.148C95.6532 36.8307 95.1585 36.672 94.4958 36.672C94.0572 36.672 93.6278 36.7467 93.2078 36.896C92.7878 37.036 92.4332 37.2273 92.1438 37.47L91.5838 36.462C91.9665 36.154 92.4238 35.9207 92.9558 35.762C93.4972 35.594 94.0618 35.51 94.6498 35.51C95.6672 35.51 96.4512 35.7573 97.0018 36.252C97.5525 36.7467 97.8278 37.5027 97.8278 38.52V43H96.5538ZM94.1178 43.084C93.5672 43.084 93.0818 42.9907 92.6618 42.804C92.2512 42.6173 91.9338 42.3607 91.7098 42.034C91.4858 41.698 91.3738 41.32 91.3738 40.9C91.3738 40.4987 91.4672 40.1347 91.6538 39.808C91.8498 39.4813 92.1625 39.22 92.5918 39.024C93.0305 38.828 93.6185 38.73 94.3558 38.73H96.7078V39.696H94.4118C93.7398 39.696 93.2872 39.808 93.0538 40.032C92.8205 40.256 92.7038 40.5267 92.7038 40.844C92.7038 41.208 92.8485 41.502 93.1378 41.726C93.4272 41.9407 93.8285 42.048 94.3418 42.048C94.8458 42.048 95.2845 41.936 95.6578 41.712C96.0405 41.488 96.3158 41.1613 96.4838 40.732L96.7498 41.656C96.5725 42.0947 96.2598 42.4447 95.8118 42.706C95.3638 42.958 94.7992 43.084 94.1178 43.084ZM104.277 35.51C104.884 35.51 105.416 35.6267 105.873 35.86C106.34 36.0933 106.704 36.448 106.965 36.924C107.226 37.4 107.357 38.002 107.357 38.73V43H106.013V38.884C106.013 38.1653 105.836 37.624 105.481 37.26C105.136 36.896 104.646 36.714 104.011 36.714C103.535 36.714 103.12 36.8073 102.765 36.994C102.41 37.1807 102.135 37.456 101.939 37.82C101.752 38.184 101.659 38.6367 101.659 39.178V43H100.315V35.58H101.603V37.582L101.393 37.05C101.636 36.5647 102.009 36.1867 102.513 35.916C103.017 35.6453 103.605 35.51 104.277 35.51ZM112.392 43.084C111.646 43.084 111.067 42.8833 110.656 42.482C110.246 42.0807 110.04 41.5067 110.04 40.76V33.956H111.384V40.704C111.384 41.1053 111.482 41.4133 111.678 41.628C111.884 41.8427 112.173 41.95 112.546 41.95C112.966 41.95 113.316 41.8333 113.596 41.6L114.016 42.566C113.811 42.7433 113.564 42.874 113.274 42.958C112.994 43.042 112.7 43.084 112.392 43.084ZM108.78 36.686V35.58H113.512V36.686H108.78ZM124.007 43V41.432L123.937 41.138V38.464C123.937 37.8947 123.769 37.456 123.433 37.148C123.106 36.8307 122.612 36.672 121.949 36.672C121.51 36.672 121.081 36.7467 120.661 36.896C120.241 37.036 119.886 37.2273 119.597 37.47L119.037 36.462C119.42 36.154 119.877 35.9207 120.409 35.762C120.95 35.594 121.515 35.51 122.103 35.51C123.12 35.51 123.904 35.7573 124.455 36.252C125.006 36.7467 125.281 37.5027 125.281 38.52V43H124.007ZM121.571 43.084C121.02 43.084 120.535 42.9907 120.115 42.804C119.704 42.6173 119.387 42.3607 119.163 42.034C118.939 41.698 118.827 41.32 118.827 40.9C118.827 40.4987 118.92 40.1347 119.107 39.808C119.303 39.4813 119.616 39.22 120.045 39.024C120.484 38.828 121.072 38.73 121.809 38.73H124.161V39.696H121.865C121.193 39.696 120.74 39.808 120.507 40.032C120.274 40.256 120.157 40.5267 120.157 40.844C120.157 41.208 120.302 41.502 120.591 41.726C120.88 41.9407 121.282 42.048 121.795 42.048C122.299 42.048 122.738 41.936 123.111 41.712C123.494 41.488 123.769 41.1613 123.937 40.732L124.203 41.656C124.026 42.0947 123.713 42.4447 123.265 42.706C122.817 42.958 122.252 43.084 121.571 43.084ZM131.002 43.084C130.246 43.084 129.569 42.9207 128.972 42.594C128.384 42.2673 127.922 41.8193 127.586 41.25C127.25 40.6807 127.082 40.0273 127.082 39.29C127.082 38.5527 127.25 37.8993 127.586 37.33C127.922 36.7607 128.384 36.3173 128.972 36C129.569 35.6733 130.246 35.51 131.002 35.51C131.674 35.51 132.271 35.6453 132.794 35.916C133.326 36.1773 133.737 36.5693 134.026 37.092L133.004 37.75C132.761 37.386 132.463 37.12 132.108 36.952C131.763 36.7747 131.389 36.686 130.988 36.686C130.503 36.686 130.069 36.7933 129.686 37.008C129.303 37.2227 129 37.526 128.776 37.918C128.552 38.3007 128.44 38.758 128.44 39.29C128.44 39.822 128.552 40.284 128.776 40.676C129 41.068 129.303 41.3713 129.686 41.586C130.069 41.8007 130.503 41.908 130.988 41.908C131.389 41.908 131.763 41.824 132.108 41.656C132.463 41.4787 132.761 41.208 133.004 40.844L134.026 41.488C133.737 42.0013 133.326 42.398 132.794 42.678C132.271 42.9487 131.674 43.084 131.002 43.084ZM138.891 43.084C138.135 43.084 137.458 42.9207 136.861 42.594C136.273 42.2673 135.811 41.8193 135.475 41.25C135.139 40.6807 134.971 40.0273 134.971 39.29C134.971 38.5527 135.139 37.8993 135.475 37.33C135.811 36.7607 136.273 36.3173 136.861 36C137.458 35.6733 138.135 35.51 138.891 35.51C139.563 35.51 140.16 35.6453 140.683 35.916C141.215 36.1773 141.625 36.5693 141.915 37.092L140.893 37.75C140.65 37.386 140.351 37.12 139.997 36.952C139.651 36.7747 139.278 36.686 138.877 36.686C138.391 36.686 137.957 36.7933 137.575 37.008C137.192 37.2227 136.889 37.526 136.665 37.918C136.441 38.3007 136.329 38.758 136.329 39.29C136.329 39.822 136.441 40.284 136.665 40.676C136.889 41.068 137.192 41.3713 137.575 41.586C137.957 41.8007 138.391 41.908 138.877 41.908C139.278 41.908 139.651 41.824 139.997 41.656C140.351 41.4787 140.65 41.208 140.893 40.844L141.915 41.488C141.625 42.0013 141.215 42.398 140.683 42.678C140.16 42.9487 139.563 43.084 138.891 43.084ZM146.849 43.084C146.056 43.084 145.356 42.9207 144.749 42.594C144.152 42.2673 143.685 41.8193 143.349 41.25C143.023 40.6807 142.859 40.0273 142.859 39.29C142.859 38.5527 143.018 37.8993 143.335 37.33C143.662 36.7607 144.105 36.3173 144.665 36C145.235 35.6733 145.874 35.51 146.583 35.51C147.302 35.51 147.937 35.6687 148.487 35.986C149.038 36.3033 149.467 36.7513 149.775 37.33C150.093 37.8993 150.251 38.5667 150.251 39.332C150.251 39.388 150.247 39.4533 150.237 39.528C150.237 39.6027 150.233 39.6727 150.223 39.738H143.909V38.772H149.523L148.977 39.108C148.987 38.632 148.889 38.2073 148.683 37.834C148.478 37.4607 148.193 37.1713 147.829 36.966C147.475 36.7513 147.059 36.644 146.583 36.644C146.117 36.644 145.701 36.7513 145.337 36.966C144.973 37.1713 144.689 37.4653 144.483 37.848C144.278 38.2213 144.175 38.6507 144.175 39.136V39.36C144.175 39.8547 144.287 40.298 144.511 40.69C144.745 41.0727 145.067 41.3713 145.477 41.586C145.888 41.8007 146.359 41.908 146.891 41.908C147.33 41.908 147.727 41.8333 148.081 41.684C148.445 41.5347 148.763 41.3107 149.033 41.012L149.775 41.88C149.439 42.272 149.019 42.5707 148.515 42.776C148.021 42.9813 147.465 43.084 146.849 43.084ZM154.246 43.084C153.63 43.084 153.042 43 152.482 42.832C151.931 42.664 151.497 42.4587 151.18 42.216L151.74 41.152C152.057 41.3667 152.449 41.5487 152.916 41.698C153.382 41.8473 153.858 41.922 154.344 41.922C154.969 41.922 155.417 41.8333 155.688 41.656C155.968 41.4787 156.108 41.2313 156.108 40.914C156.108 40.6807 156.024 40.4987 155.856 40.368C155.688 40.2373 155.464 40.1393 155.184 40.074C154.913 40.0087 154.61 39.9527 154.274 39.906C153.938 39.85 153.602 39.7847 153.266 39.71C152.93 39.626 152.622 39.514 152.342 39.374C152.062 39.2247 151.838 39.024 151.67 38.772C151.502 38.5107 151.418 38.1653 151.418 37.736C151.418 37.288 151.544 36.896 151.796 36.56C152.048 36.224 152.402 35.9673 152.86 35.79C153.326 35.6033 153.877 35.51 154.512 35.51C154.997 35.51 155.487 35.5707 155.982 35.692C156.486 35.804 156.896 35.9673 157.214 36.182L156.64 37.246C156.304 37.022 155.954 36.868 155.59 36.784C155.226 36.7 154.862 36.658 154.498 36.658C153.91 36.658 153.471 36.756 153.182 36.952C152.892 37.1387 152.748 37.3813 152.748 37.68C152.748 37.932 152.832 38.128 153 38.268C153.177 38.3987 153.401 38.5013 153.672 38.576C153.952 38.6507 154.26 38.716 154.596 38.772C154.932 38.8187 155.268 38.884 155.604 38.968C155.94 39.0427 156.243 39.15 156.514 39.29C156.794 39.43 157.018 39.626 157.186 39.878C157.363 40.13 157.452 40.466 157.452 40.886C157.452 41.334 157.321 41.7213 157.06 42.048C156.798 42.3747 156.43 42.6313 155.954 42.818C155.478 42.9953 154.908 43.084 154.246 43.084ZM161.259 43.084C160.643 43.084 160.055 43 159.495 42.832C158.945 42.664 158.511 42.4587 158.193 42.216L158.753 41.152C159.071 41.3667 159.463 41.5487 159.929 41.698C160.396 41.8473 160.872 41.922 161.357 41.922C161.983 41.922 162.431 41.8333 162.701 41.656C162.981 41.4787 163.121 41.2313 163.121 40.914C163.121 40.6807 163.037 40.4987 162.869 40.368C162.701 40.2373 162.477 40.1393 162.197 40.074C161.927 40.0087 161.623 39.9527 161.287 39.906C160.951 39.85 160.615 39.7847 160.279 39.71C159.943 39.626 159.635 39.514 159.355 39.374C159.075 39.2247 158.851 39.024 158.683 38.772C158.515 38.5107 158.431 38.1653 158.431 37.736C158.431 37.288 158.557 36.896 158.809 36.56C159.061 36.224 159.416 35.9673 159.873 35.79C160.34 35.6033 160.891 35.51 161.525 35.51C162.011 35.51 162.501 35.5707 162.995 35.692C163.499 35.804 163.91 35.9673 164.227 36.182L163.653 37.246C163.317 37.022 162.967 36.868 162.603 36.784C162.239 36.7 161.875 36.658 161.511 36.658C160.923 36.658 160.485 36.756 160.195 36.952C159.906 37.1387 159.761 37.3813 159.761 37.68C159.761 37.932 159.845 38.128 160.013 38.268C160.191 38.3987 160.415 38.5013 160.685 38.576C160.965 38.6507 161.273 38.716 161.609 38.772C161.945 38.8187 162.281 38.884 162.617 38.968C162.953 39.0427 163.257 39.15 163.527 39.29C163.807 39.43 164.031 39.626 164.199 39.878C164.377 40.13 164.465 40.466 164.465 40.886C164.465 41.334 164.335 41.7213 164.073 42.048C163.812 42.3747 163.443 42.6313 162.967 42.818C162.491 42.9953 161.922 43.084 161.259 43.084ZM172.453 43.084C171.706 43.084 171.128 42.8833 170.717 42.482C170.306 42.0807 170.101 41.5067 170.101 40.76V33.956H171.445V40.704C171.445 41.1053 171.543 41.4133 171.739 41.628C171.944 41.8427 172.234 41.95 172.607 41.95C173.027 41.95 173.377 41.8333 173.657 41.6L174.077 42.566C173.872 42.7433 173.624 42.874 173.335 42.958C173.055 43.042 172.761 43.084 172.453 43.084ZM168.841 36.686V35.58H173.573V36.686H168.841ZM178.634 43.084C177.887 43.084 177.224 42.9207 176.646 42.594C176.067 42.2673 175.61 41.8193 175.274 41.25C174.938 40.6713 174.77 40.018 174.77 39.29C174.77 38.5527 174.938 37.8993 175.274 37.33C175.61 36.7607 176.067 36.3173 176.646 36C177.224 35.6733 177.887 35.51 178.634 35.51C179.371 35.51 180.029 35.6733 180.608 36C181.196 36.3173 181.653 36.7607 181.98 37.33C182.316 37.89 182.484 38.5433 182.484 39.29C182.484 40.0273 182.316 40.6807 181.98 41.25C181.653 41.8193 181.196 42.2673 180.608 42.594C180.029 42.9207 179.371 43.084 178.634 43.084ZM178.634 41.908C179.11 41.908 179.534 41.8007 179.908 41.586C180.29 41.3713 180.589 41.068 180.804 40.676C181.018 40.2747 181.126 39.8127 181.126 39.29C181.126 38.758 181.018 38.3007 180.804 37.918C180.589 37.526 180.29 37.2227 179.908 37.008C179.534 36.7933 179.11 36.686 178.634 36.686C178.158 36.686 177.733 36.7933 177.36 37.008C176.986 37.2227 176.688 37.526 176.464 37.918C176.24 38.3007 176.128 38.758 176.128 39.29C176.128 39.8127 176.24 40.2747 176.464 40.676C176.688 41.068 176.986 41.3713 177.36 41.586C177.733 41.8007 178.158 41.908 178.634 41.908ZM191.154 43.112C190.407 43.112 189.693 43 189.012 42.776C188.331 42.5427 187.794 42.244 187.402 41.88L187.92 40.788C188.293 41.1147 188.769 41.3853 189.348 41.6C189.927 41.8147 190.529 41.922 191.154 41.922C191.723 41.922 192.185 41.8567 192.54 41.726C192.895 41.5953 193.156 41.418 193.324 41.194C193.492 40.9607 193.576 40.6993 193.576 40.41C193.576 40.074 193.464 39.8033 193.24 39.598C193.025 39.3927 192.741 39.2293 192.386 39.108C192.041 38.9773 191.658 38.8653 191.238 38.772C190.818 38.6787 190.393 38.5713 189.964 38.45C189.544 38.3193 189.157 38.156 188.802 37.96C188.457 37.764 188.177 37.5027 187.962 37.176C187.747 36.84 187.64 36.4107 187.64 35.888C187.64 35.384 187.771 34.922 188.032 34.502C188.303 34.0727 188.713 33.732 189.264 33.48C189.824 33.2187 190.533 33.088 191.392 33.088C191.961 33.088 192.526 33.1627 193.086 33.312C193.646 33.4613 194.131 33.676 194.542 33.956L194.08 35.076C193.66 34.796 193.217 34.5953 192.75 34.474C192.283 34.3433 191.831 34.278 191.392 34.278C190.841 34.278 190.389 34.348 190.034 34.488C189.679 34.628 189.418 34.8147 189.25 35.048C189.091 35.2813 189.012 35.5427 189.012 35.832C189.012 36.1773 189.119 36.4527 189.334 36.658C189.558 36.8633 189.843 37.0267 190.188 37.148C190.543 37.2693 190.93 37.3813 191.35 37.484C191.77 37.5773 192.19 37.6847 192.61 37.806C193.039 37.9273 193.427 38.086 193.772 38.282C194.127 38.478 194.411 38.7393 194.626 39.066C194.841 39.3927 194.948 39.8127 194.948 40.326C194.948 40.8207 194.813 41.2827 194.542 41.712C194.271 42.132 193.851 42.4727 193.282 42.734C192.722 42.986 192.013 43.112 191.154 43.112ZM199.919 43.084C199.285 43.084 198.725 42.9673 198.239 42.734C197.763 42.5007 197.39 42.146 197.119 41.67C196.858 41.1847 196.727 40.578 196.727 39.85V35.58H198.071V39.696C198.071 40.424 198.244 40.97 198.589 41.334C198.944 41.698 199.439 41.88 200.073 41.88C200.54 41.88 200.946 41.7867 201.291 41.6C201.637 41.404 201.903 41.124 202.089 40.76C202.276 40.3867 202.369 39.9387 202.369 39.416V35.58H203.713V43H202.439V40.998L202.649 41.53C202.407 42.0247 202.043 42.4073 201.557 42.678C201.072 42.9487 200.526 43.084 199.919 43.084ZM210.206 43.084C209.59 43.084 209.025 42.944 208.512 42.664C208.008 42.3747 207.602 41.95 207.294 41.39C206.995 40.83 206.846 40.13 206.846 39.29C206.846 38.45 206.991 37.75 207.28 37.19C207.579 36.63 207.98 36.21 208.484 35.93C208.997 35.65 209.571 35.51 210.206 35.51C210.934 35.51 211.578 35.6687 212.138 35.986C212.698 36.3033 213.141 36.7467 213.468 37.316C213.795 37.876 213.958 38.534 213.958 39.29C213.958 40.046 213.795 40.7087 213.468 41.278C213.141 41.8473 212.698 42.2907 212.138 42.608C211.578 42.9253 210.934 43.084 210.206 43.084ZM206.272 45.716V35.58H207.56V37.582L207.476 39.304L207.616 41.026V45.716H206.272ZM210.094 41.908C210.57 41.908 210.995 41.8007 211.368 41.586C211.751 41.3713 212.049 41.068 212.264 40.676C212.488 40.2747 212.6 39.8127 212.6 39.29C212.6 38.758 212.488 38.3007 212.264 37.918C212.049 37.526 211.751 37.2227 211.368 37.008C210.995 36.7933 210.57 36.686 210.094 36.686C209.627 36.686 209.203 36.7933 208.82 37.008C208.447 37.2227 208.148 37.526 207.924 37.918C207.709 38.3007 207.602 38.758 207.602 39.29C207.602 39.8127 207.709 40.2747 207.924 40.676C208.148 41.068 208.447 41.3713 208.82 41.586C209.203 41.8007 209.627 41.908 210.094 41.908ZM219.749 43.084C219.133 43.084 218.568 42.944 218.055 42.664C217.551 42.3747 217.145 41.95 216.837 41.39C216.538 40.83 216.389 40.13 216.389 39.29C216.389 38.45 216.534 37.75 216.823 37.19C217.122 36.63 217.523 36.21 218.027 35.93C218.54 35.65 219.114 35.51 219.749 35.51C220.477 35.51 221.121 35.6687 221.681 35.986C222.241 36.3033 222.684 36.7467 223.011 37.316C223.338 37.876 223.501 38.534 223.501 39.29C223.501 40.046 223.338 40.7087 223.011 41.278C222.684 41.8473 222.241 42.2907 221.681 42.608C221.121 42.9253 220.477 43.084 219.749 43.084ZM215.815 45.716V35.58H217.103V37.582L217.019 39.304L217.159 41.026V45.716H215.815ZM219.637 41.908C220.113 41.908 220.538 41.8007 220.911 41.586C221.294 41.3713 221.592 41.068 221.807 40.676C222.031 40.2747 222.143 39.8127 222.143 39.29C222.143 38.758 222.031 38.3007 221.807 37.918C221.592 37.526 221.294 37.2227 220.911 37.008C220.538 36.7933 220.113 36.686 219.637 36.686C219.17 36.686 218.746 36.7933 218.363 37.008C217.99 37.2227 217.691 37.526 217.467 37.918C217.252 38.3007 217.145 38.758 217.145 39.29C217.145 39.8127 217.252 40.2747 217.467 40.676C217.691 41.068 217.99 41.3713 218.363 41.586C218.746 41.8007 219.17 41.908 219.637 41.908ZM228.536 43.084C227.789 43.084 227.127 42.9207 226.548 42.594C225.969 42.2673 225.512 41.8193 225.176 41.25C224.84 40.6713 224.672 40.018 224.672 39.29C224.672 38.5527 224.84 37.8993 225.176 37.33C225.512 36.7607 225.969 36.3173 226.548 36C227.127 35.6733 227.789 35.51 228.536 35.51C229.273 35.51 229.931 35.6733 230.51 36C231.098 36.3173 231.555 36.7607 231.882 37.33C232.218 37.89 232.386 38.5433 232.386 39.29C232.386 40.0273 232.218 40.6807 231.882 41.25C231.555 41.8193 231.098 42.2673 230.51 42.594C229.931 42.9207 229.273 43.084 228.536 43.084ZM228.536 41.908C229.012 41.908 229.437 41.8007 229.81 41.586C230.193 41.3713 230.491 41.068 230.706 40.676C230.921 40.2747 231.028 39.8127 231.028 39.29C231.028 38.758 230.921 38.3007 230.706 37.918C230.491 37.526 230.193 37.2227 229.81 37.008C229.437 36.7933 229.012 36.686 228.536 36.686C228.06 36.686 227.635 36.7933 227.262 37.008C226.889 37.2227 226.59 37.526 226.366 37.918C226.142 38.3007 226.03 38.758 226.03 39.29C226.03 39.8127 226.142 40.2747 226.366 40.676C226.59 41.068 226.889 41.3713 227.262 41.586C227.635 41.8007 228.06 41.908 228.536 41.908ZM234.245 43V35.58H235.533V37.596L235.407 37.092C235.612 36.5787 235.957 36.1867 236.443 35.916C236.928 35.6453 237.525 35.51 238.235 35.51V36.812C238.179 36.8027 238.123 36.798 238.067 36.798C238.02 36.798 237.973 36.798 237.927 36.798C237.208 36.798 236.639 37.0127 236.219 37.442C235.799 37.8713 235.589 38.492 235.589 39.304V43H234.245ZM242.74 43.084C241.993 43.084 241.415 42.8833 241.004 42.482C240.593 42.0807 240.388 41.5067 240.388 40.76V33.956H241.732V40.704C241.732 41.1053 241.83 41.4133 242.026 41.628C242.231 41.8427 242.521 41.95 242.894 41.95C243.314 41.95 243.664 41.8333 243.944 41.6L244.364 42.566C244.159 42.7433 243.911 42.874 243.622 42.958C243.342 43.042 243.048 43.084 242.74 43.084ZM239.128 36.686V35.58H243.86V36.686H239.128Z" fill="#999999"/>
</svg>
