<svg width="18" height="18" viewBox="0 0 18 18" fill="none" xmlns="http://www.w3.org/2000/svg">
<path fill-rule="evenodd" clip-rule="evenodd" d="M1.5 9.5C1.5 5.0816 5.0816 1.5 9.5 1.5C13.9184 1.5 17.5 5.0816 17.5 9.5C17.5 13.9184 13.9184 17.5 9.5 17.5C5.0816 17.5 1.5 13.9184 1.5 9.5ZM9.5 10.3C9.28783 10.3 9.08434 10.2157 8.93431 10.0657C8.78429 9.91566 8.7 9.71217 8.7 9.5V6.3C8.7 6.08783 8.78429 5.88434 8.93431 5.73431C9.08434 5.58429 9.28783 5.5 9.5 5.5C9.71217 5.5 9.91566 5.58429 10.0657 5.73431C10.2157 5.88434 10.3 6.08783 10.3 6.3V9.5C10.3 9.71217 10.2157 9.91566 10.0657 10.0657C9.91566 10.2157 9.71217 10.3 9.5 10.3ZM8.3 12.7C8.3 12.3817 8.42643 12.0765 8.65147 11.8515C8.87652 11.6264 9.18174 11.5 9.5 11.5H9.508C9.82626 11.5 10.1315 11.6264 10.3565 11.8515C10.5816 12.0765 10.708 12.3817 10.708 12.7V12.708C10.708 13.0263 10.5816 13.3315 10.3565 13.5565C10.1315 13.7816 9.82626 13.908 9.508 13.908H9.5C9.18174 13.908 8.87652 13.7816 8.65147 13.5565C8.42643 13.3315 8.3 13.0263 8.3 12.708V12.7Z" fill="#EA5953"/>
</svg>
