<svg width="21" height="24" viewBox="0 0 21 24" fill="none" xmlns="http://www.w3.org/2000/svg">
<path d="M1.25954 10.1344L0.0147421 21.3344L1.60514 21.5104L2.84994 10.3104L1.25954 10.1344ZM2.40034 24H18.0259V22.4H2.40034V24ZM20.4115 21.3344L19.1667 10.1344L17.5763 10.3104L18.8211 21.5104L20.4099 21.3344H20.4115ZM16.7795 8H3.64674V9.6H16.7827V8H16.7795ZM19.1667 10.1344C19.1014 9.54744 18.8219 9.00518 18.3818 8.61139C17.9416 8.2176 17.3717 7.99992 16.7811 8V9.6C16.9781 9.59999 17.1681 9.67262 17.3148 9.804C17.4616 9.93537 17.5547 10.1163 17.5763 10.312L19.1667 10.136V10.1344ZM18.0259 24C18.3634 23.9998 18.6971 23.9285 19.0051 23.7906C19.3131 23.6528 19.5886 23.4515 19.8136 23.1999C20.0386 22.9484 20.208 22.6522 20.3107 22.3308C20.4135 22.0093 20.4473 21.6698 20.4099 21.3344L18.8211 21.5104C18.8338 21.6223 18.8226 21.7357 18.7884 21.843C18.7542 21.9503 18.6977 22.0492 18.6226 22.1332C18.5476 22.2171 18.4556 22.2843 18.3528 22.3303C18.25 22.3763 18.1386 22.4 18.0259 22.4V24ZM0.0147421 21.3344C-0.0226202 21.6699 0.0112298 22.0096 0.114081 22.3311C0.216932 22.6527 0.38647 22.949 0.611618 23.2005C0.836766 23.4521 1.11246 23.6533 1.42068 23.7911C1.72891 23.9289 2.06273 24 2.40034 24V22.4C2.28786 22.4 2.17663 22.3763 2.07393 22.3304C1.97123 22.2845 1.87936 22.2175 1.80432 22.1337C1.72928 22.0499 1.67275 21.9512 1.63843 21.8441C1.60411 21.737 1.59277 21.6238 1.60514 21.512L0.0147421 21.336V21.3344ZM2.84994 10.3104C2.87197 10.1149 2.96524 9.93444 3.11193 9.8034C3.25862 9.67235 3.44844 9.59994 3.64514 9.6V8C3.05483 8.00031 2.48533 8.21817 2.04553 8.61192C1.60573 9.00568 1.32647 9.54771 1.26114 10.1344L2.84994 10.3104ZM6.21314 6.4V5.6H4.61314V6.4H6.21314ZM14.2131 5.6V6.4H15.8131V5.6H14.2131ZM10.2131 1.6C11.274 1.6 12.2914 2.02143 13.0416 2.77157C13.7917 3.52172 14.2131 4.53913 14.2131 5.6H15.8131C15.8131 4.11479 15.2231 2.69041 14.1729 1.6402C13.1227 0.589998 11.6984 0 10.2131 0V1.6ZM6.21314 5.6C6.21314 4.53913 6.63457 3.52172 7.38471 2.77157C8.13486 2.02143 9.15228 1.6 10.2131 1.6V0C8.72793 0 7.30355 0.589998 6.25334 1.6402C5.20314 2.69041 4.61314 4.11479 4.61314 5.6H6.21314Z" fill="white"/>
</svg>
